<svg width="195" height="183" viewBox="0 0 195 183" fill="none" xmlns="http://www.w3.org/2000/svg">
<path d="M195 139.958H0V140.05H195V139.958Z" fill="#EBEBEB"/>
<path d="M175.461 145.847H162.544V145.939H175.461V145.847Z" fill="#EBEBEB"/>
<path d="M129.176 146.843H125.787V146.934H129.176V146.843Z" fill="#EBEBEB"/>
<path d="M162.154 142.451H154.67V142.542H162.154V142.451Z" fill="#EBEBEB"/>
<path d="M37.3036 143.066H20.4595V143.157H37.3036V143.066Z" fill="#EBEBEB"/>
<path d="M43.247 143.066H40.7783V143.157H43.247V143.066Z" fill="#EBEBEB"/>
<path d="M87.8086 144.61H51.2734V144.702H87.8086V144.61Z" fill="#EBEBEB"/>
<path d="M92.43 123.635H17.1249C16.5349 123.634 15.9695 123.413 15.5527 123.021C15.1359 122.63 14.9019 122.099 14.9019 121.545V22.2016C14.907 21.6511 15.1433 21.1248 15.5596 20.7369C15.9758 20.349 16.5383 20.1309 17.1249 20.13H92.43C93.0206 20.13 93.587 20.3502 94.0046 20.7421C94.4222 21.134 94.6569 21.6656 94.6569 22.2199V121.545C94.6569 122.099 94.4222 122.631 94.0046 123.023C93.587 123.415 93.0206 123.635 92.43 123.635ZM17.1249 20.2032C16.5608 20.2042 16.0202 20.4151 15.6217 20.7898C15.2232 21.1645 14.9994 21.6722 14.9994 22.2016V121.545C14.9994 122.074 15.2232 122.582 15.6217 122.957C16.0202 123.331 16.5608 123.542 17.1249 123.543H92.43C92.9944 123.542 93.5354 123.331 93.9345 122.957C94.3336 122.582 94.5583 122.075 94.5594 121.545V22.2016C94.5583 21.6719 94.3336 21.1641 93.9345 20.7896C93.5354 20.415 92.9944 20.2042 92.43 20.2032H17.1249Z" fill="#EBEBEB"/>
<path d="M176.791 123.635H101.482C100.891 123.634 100.326 123.413 99.9083 123.022C99.4909 122.63 99.2559 122.099 99.2549 121.545V22.2016C99.261 21.6508 99.4983 21.1244 99.9151 20.7367C100.332 20.3489 100.895 20.1309 101.482 20.13H176.791C177.377 20.1319 177.938 20.3504 178.354 20.7382C178.769 21.126 179.005 21.6517 179.01 22.2016V121.545C179.01 122.098 178.776 122.628 178.36 123.02C177.944 123.412 177.38 123.633 176.791 123.635ZM101.482 20.2032C100.917 20.2042 100.376 20.415 99.9772 20.7896C99.5781 21.1641 99.3534 21.6719 99.3524 22.2016V121.545C99.3534 122.075 99.5781 122.582 99.9772 122.957C100.376 123.331 100.917 123.542 101.482 123.543H176.791C177.355 123.542 177.896 123.331 178.295 122.957C178.694 122.582 178.919 122.075 178.92 121.545V22.2016C178.919 21.6719 178.694 21.1641 178.295 20.7896C177.896 20.415 177.355 20.2042 176.791 20.2032H101.482Z" fill="#EBEBEB"/>
<path d="M86.8489 67.2452H25.7983V139.794H86.8489V67.2452Z" fill="#F0F0F0"/>
<path d="M84.6884 69.8914H27.9551V85.4061H84.6884V69.8914Z" fill="#E0E0E0"/>
<path d="M31.1765 72.4021H27.9551V85.4024H31.1765V72.4021Z" fill="#EBEBEB"/>
<path d="M46.761 72.4021H43.5396V85.4024H46.761V72.4021Z" fill="#EBEBEB"/>
<path d="M64.4514 72.0721L61.2769 72.5856L63.63 85.397L66.8046 84.8834L64.4514 72.0721Z" fill="#EBEBEB"/>
<path d="M35.1701 74.115H31.9487V85.4024H35.1701V74.115Z" fill="#EBEBEB"/>
<path d="M42.5764 74.115H39.355V85.4024H42.5764V74.115Z" fill="#EBEBEB"/>
<path d="M61.2727 74.115H58.0513V85.4024H61.2727V74.115Z" fill="#EBEBEB"/>
<path d="M50.9933 73.7259L47.8486 74.3818L50.458 85.4004L53.6027 84.7445L50.9933 73.7259Z" fill="#EBEBEB"/>
<path d="M37.9588 71.7543H36.3481V85.4024H37.9588V71.7543Z" fill="#EBEBEB"/>
<path d="M57.1273 71.7543H55.5166V85.4024H57.1273V71.7543Z" fill="#EBEBEB"/>
<path d="M27.9552 103.373H84.6885V87.8583H27.9552V103.373Z" fill="#E0E0E0"/>
<path d="M81.4671 103.373H84.6885V90.3727H81.4671V103.373Z" fill="#EBEBEB"/>
<path d="M65.8826 103.373H69.104V90.3727H65.8826V103.373Z" fill="#EBEBEB"/>
<path d="M45.8396 102.861L49.0142 103.375L51.3673 90.5634L48.1927 90.0499L45.8396 102.861Z" fill="#EBEBEB"/>
<path d="M77.4695 103.373H80.6909V92.0856H77.4695V103.373Z" fill="#EBEBEB"/>
<path d="M70.0672 103.373H73.2886V92.0856H70.0672V103.373Z" fill="#EBEBEB"/>
<path d="M51.367 103.373H54.5884V92.0856H51.367V103.373Z" fill="#EBEBEB"/>
<path d="M59.0458 102.715L62.1904 103.37L64.7998 92.3518L61.6552 91.6959L59.0458 102.715Z" fill="#EBEBEB"/>
<path d="M74.6852 103.373H76.2959V89.7249H74.6852V103.373Z" fill="#EBEBEB"/>
<path d="M55.5163 103.373H57.127V89.7249H55.5163V103.373Z" fill="#EBEBEB"/>
<path d="M31.1765 90.3727H27.9551V103.373H31.1765V90.3727Z" fill="#EBEBEB"/>
<path d="M35.1701 92.0856H31.9487V103.373H35.1701V92.0856Z" fill="#EBEBEB"/>
<path d="M42.5764 92.0856H39.355V103.373H42.5764V92.0856Z" fill="#EBEBEB"/>
<path d="M37.9588 89.7249H36.3481V103.373H37.9588V89.7249Z" fill="#EBEBEB"/>
<path d="M84.6884 105.829H27.9551V121.344H84.6884V105.829Z" fill="#E0E0E0"/>
<path d="M63.7375 108.34H60.5161V121.34H63.7375V108.34Z" fill="#EBEBEB"/>
<path d="M81.4314 108.012L78.2568 108.526L80.6099 121.337L83.7845 120.824L81.4314 108.012Z" fill="#EBEBEB"/>
<path d="M52.1467 110.056H48.9253V121.344H52.1467V110.056Z" fill="#EBEBEB"/>
<path d="M59.5569 110.056H56.3354V121.344H59.5569V110.056Z" fill="#EBEBEB"/>
<path d="M78.2536 110.056H75.0322V121.344H78.2536V110.056Z" fill="#EBEBEB"/>
<path d="M67.9767 109.665L64.832 110.321L67.4414 121.34L70.5861 120.684L67.9767 109.665Z" fill="#EBEBEB"/>
<path d="M54.9354 107.695H53.3247V121.344H54.9354V107.695Z" fill="#EBEBEB"/>
<path d="M74.1039 107.695H72.4932V121.344H74.1039V107.695Z" fill="#EBEBEB"/>
<path d="M44.3548 108.015L41.1802 108.529L43.5333 121.34L46.7079 120.827L44.3548 108.015Z" fill="#EBEBEB"/>
<path d="M41.176 110.056H37.9546V121.344H41.176V110.056Z" fill="#EBEBEB"/>
<path d="M30.8971 109.667L27.7524 110.323L30.3618 121.342L33.5065 120.686L30.8971 109.667Z" fill="#EBEBEB"/>
<path d="M37.0267 107.695H35.416V121.344H37.0267V107.695Z" fill="#EBEBEB"/>
<path d="M119.059 96.4886H153.465C154.354 96.4886 155.234 96.6532 156.054 96.9729C156.875 97.2926 157.621 97.7612 158.248 98.3517C158.876 98.9423 159.373 99.6433 159.711 100.415C160.049 101.186 160.222 102.012 160.22 102.846V128.056H112.32V102.846C112.316 101.164 113.023 99.5501 114.287 98.358C115.551 97.1658 117.267 96.4934 119.059 96.4886Z" fill="#E6E6E6"/>
<path d="M102.133 115.177H108.287C108.817 115.175 109.341 115.271 109.83 115.46C110.32 115.648 110.765 115.926 111.139 116.277C111.514 116.627 111.811 117.044 112.014 117.503C112.216 117.962 112.321 118.453 112.32 118.95V139.812H98.1162V118.95C98.1157 118.455 98.2192 117.964 98.4209 117.506C98.6225 117.048 98.9183 116.632 99.2914 116.282C99.6644 115.932 100.107 115.654 100.595 115.464C101.083 115.274 101.605 115.177 102.133 115.177Z" fill="#E0E0E0"/>
<path d="M102.133 115.177H102.262C102.79 115.177 103.312 115.274 103.8 115.464C104.288 115.654 104.731 115.932 105.104 116.282C105.477 116.632 105.773 117.048 105.974 117.506C106.176 117.964 106.279 118.455 106.279 118.95V139.812H98.1162V118.95C98.1157 118.455 98.2192 117.964 98.4209 117.506C98.6225 117.048 98.9183 116.632 99.2914 116.282C99.6644 115.932 100.107 115.654 100.595 115.464C101.083 115.274 101.605 115.177 102.133 115.177Z" fill="#EBEBEB"/>
<path d="M155.209 130.215H107.995V139.794H155.209V130.215Z" fill="#E6E6E6"/>
<path d="M153.461 121.457H107.929C105.673 121.457 103.845 123.173 103.845 125.289V127.672C103.845 129.788 105.673 131.504 107.929 131.504H153.461C155.716 131.504 157.544 129.788 157.544 127.672V125.289C157.544 123.173 155.716 121.457 153.461 121.457Z" fill="#F5F5F5"/>
<path d="M153.383 121.457H147.74C145.485 121.457 143.657 123.173 143.657 125.289V127.672C143.657 129.788 145.485 131.504 147.74 131.504H153.383C155.638 131.504 157.467 129.788 157.467 127.672V125.289C157.467 123.173 155.638 121.457 153.383 121.457Z" fill="#E0E0E0"/>
<path d="M153.996 115.177H160.154C160.681 115.177 161.204 115.274 161.691 115.464C162.179 115.654 162.621 115.932 162.994 116.282C163.367 116.633 163.662 117.049 163.863 117.507C164.065 117.964 164.168 118.455 164.167 118.95V139.812H149.982V118.95C149.981 118.455 150.084 117.964 150.286 117.507C150.487 117.049 150.782 116.633 151.155 116.282C151.528 115.932 151.971 115.654 152.458 115.464C152.945 115.274 153.468 115.177 153.996 115.177Z" fill="#E0E0E0"/>
<path d="M153.996 115.177H154.128C154.656 115.177 155.178 115.274 155.666 115.464C156.153 115.654 156.596 115.932 156.969 116.282C157.341 116.633 157.637 117.049 157.838 117.507C158.039 117.964 158.142 118.455 158.141 118.95V139.812H149.982V118.95C149.981 118.455 150.084 117.964 150.286 117.507C150.487 117.049 150.782 116.633 151.155 116.282C151.528 115.932 151.971 115.654 152.458 115.464C152.945 115.274 153.468 115.177 153.996 115.177Z" fill="#F0F0F0"/>
<path d="M58.5998 58.4259C63.6068 57.6632 67.0068 53.2357 66.1941 48.5369C65.3814 43.8381 60.6636 40.6473 55.6567 41.41C50.6497 42.1728 47.2497 46.6002 48.0624 51.299C48.8752 55.9978 53.5929 59.1886 58.5998 58.4259Z" fill="#E0E0E0"/>
<path d="M58.3796 57.1542C62.6381 56.5055 65.53 52.7398 64.8387 48.7434C64.1475 44.7469 60.1348 42.033 55.8763 42.6817C51.6178 43.3304 48.7259 47.0961 49.4172 51.0926C50.1084 55.0891 54.121 57.803 58.3796 57.1542Z" fill="#F0F0F0"/>
<path d="M56.7569 54.9512V49.8272L53.1416 51.7487" fill="#F0F0F0"/>
<path d="M56.7569 55.3172C56.6535 55.3172 56.5543 55.2787 56.4811 55.21C56.408 55.1414 56.3669 55.0483 56.3669 54.9512V50.4531L53.3327 52.0672C53.2427 52.1146 53.1363 52.1266 53.0369 52.1005C52.9375 52.0744 52.8531 52.0124 52.8023 51.9281C52.7515 51.844 52.7381 51.7445 52.7651 51.6513C52.7922 51.558 52.8574 51.4786 52.9466 51.4303L56.5658 49.5088C56.6251 49.4775 56.6921 49.4614 56.7601 49.4619C56.8281 49.4624 56.8948 49.4796 56.9536 49.5118C57.0123 49.544 57.0611 49.59 57.095 49.6454C57.1289 49.7007 57.1468 49.7634 57.1469 49.8272V54.9512C57.1469 55.0483 57.1058 55.1414 57.0327 55.21C56.9596 55.2787 56.8604 55.3172 56.7569 55.3172Z" fill="#E0E0E0"/>
<path d="M167.158 39.0449H108.365V88.0047H167.158V39.0449Z" fill="#E6E6E6"/>
<path d="M165.61 40.3881H109.836V86.6908H165.61V40.3881Z" fill="#F0F0F0"/>
<path d="M122.924 40.3881L109.836 86.5883V64.8808L116.747 40.3881H122.924Z" fill="white"/>
<path d="M127.561 40.3881L114.356 86.6908H112.25L125.455 40.3881H127.561Z" fill="white"/>
<path d="M165.61 69.6059V77.0027L162.938 86.6908H160.832L165.61 69.6059Z" fill="white"/>
<path d="M129.289 39.5573H128.349V87.7265H129.289V39.5573Z" fill="#E6E6E6"/>
<path d="M147.498 39.5573H146.558V87.7265H147.498V39.5573Z" fill="#E6E6E6"/>
<path d="M97.4999 156.487C139.262 156.487 173.117 154.632 173.117 152.344C173.117 150.056 139.262 148.201 97.4999 148.201C55.7377 148.201 21.8828 150.056 21.8828 152.344C21.8828 154.632 55.7377 156.487 97.4999 156.487Z" fill="#F5F5F5"/>
<path d="M156.741 143.19C156.741 143.19 158.594 139.398 156.476 135.658C154.358 131.917 153.746 131.039 155.095 130.27C156.445 129.502 157.065 133.264 157.065 133.264C157.732 131.565 157.8 129.71 157.26 127.972C156.324 125.267 155.735 120.861 157.014 120.388C158.293 119.916 157.26 125.878 158.375 127.921C158.941 126.491 159.307 124.999 159.463 123.481C159.615 121.307 159.378 117.837 160.388 116.948C161.398 116.059 162.049 116.673 161.055 121.468C160.457 124.334 160.127 127.244 160.068 130.164C160.068 130.164 162.264 123.873 163.742 123.69C165.22 123.507 165.216 125.542 163.952 127.309C162.689 129.077 160.251 132.243 159.853 133.872C159.853 133.872 162.267 129.136 164.436 130.578C166.604 132.02 162.548 134.886 160.739 135.921C158.929 136.957 157.673 143.428 157.673 143.428L156.741 143.19Z" fill="#407BFF"/>
<path opacity="0.2" d="M156.741 143.19C156.741 143.19 158.594 139.398 156.476 135.658C154.358 131.917 153.746 131.039 155.095 130.27C156.445 129.502 157.065 133.264 157.065 133.264C157.732 131.565 157.8 129.71 157.26 127.972C156.324 125.267 155.735 120.861 157.014 120.388C158.293 119.916 157.26 125.878 158.375 127.921C158.941 126.491 159.307 124.999 159.463 123.481C159.615 121.307 159.378 117.837 160.388 116.948C161.398 116.059 162.049 116.673 161.055 121.468C160.457 124.334 160.127 127.244 160.068 130.164C160.068 130.164 162.264 123.873 163.742 123.69C165.22 123.507 165.216 125.542 163.952 127.309C162.689 129.077 160.251 132.243 159.853 133.872C159.853 133.872 162.267 129.136 164.436 130.578C166.604 132.02 162.548 134.886 160.739 135.921C158.929 136.957 157.673 143.428 157.673 143.428L156.741 143.19Z" fill="black"/>
<path d="M158.204 144.746C158.204 144.746 156.398 140.928 158.562 137.217C160.727 133.506 161.351 132.635 160.013 131.852C158.676 131.068 158.005 134.816 158.005 134.816C157.358 133.111 157.313 131.255 157.876 129.524C158.847 126.83 159.495 122.431 158.219 121.94C156.944 121.45 157.903 127.43 156.765 129.454C156.217 128.018 155.869 126.52 155.731 125C155.606 122.826 155.891 119.36 154.889 118.456C153.886 117.552 153.231 118.159 154.167 122.969C154.728 125.84 155.02 128.753 155.041 131.672C155.041 131.672 152.923 125.351 151.453 125.15C149.982 124.949 149.955 126.98 151.195 128.766C152.436 130.552 154.83 133.751 155.22 135.383C155.22 135.383 152.88 130.625 150.681 132.038C148.481 133.451 152.514 136.372 154.308 137.433C156.102 138.494 157.279 144.984 157.279 144.984L158.204 144.746Z" fill="#407BFF"/>
<path d="M149.881 142.023H164.783L163.578 152.033H151.086L149.881 142.023Z" fill="#263238"/>
<path d="M94.6137 150.426V151.74C94.6137 151.779 94.6055 151.817 94.5896 151.853C94.5737 151.889 94.5505 151.922 94.5211 151.95C94.4918 151.977 94.457 151.999 94.4187 152.014C94.3803 152.029 94.3392 152.036 94.2978 152.036H54.744C54.4066 152.036 54.0744 151.959 53.7764 151.81C53.4784 151.662 53.2238 151.447 53.0348 151.185C52.8458 150.923 52.7282 150.621 52.6924 150.306C52.6565 149.991 52.7034 149.673 52.8291 149.379L65.3637 120.246L85.6203 120.374L84.93 124.155L80.4606 148.622C80.4272 148.807 80.4372 148.997 80.4899 149.179C80.5427 149.36 80.6369 149.529 80.7661 149.672C80.8952 149.816 81.0562 149.932 81.2378 150.012C81.4194 150.091 81.6173 150.133 81.8178 150.133H94.2978C94.3391 150.133 94.3801 150.14 94.4184 150.154C94.4567 150.169 94.4915 150.19 94.5209 150.218C94.5503 150.245 94.5736 150.277 94.5895 150.313C94.6055 150.349 94.6137 150.387 94.6137 150.426Z" fill="#263238"/>
<path opacity="0.5" d="M94.6137 150.426V151.74C94.6137 151.779 94.6055 151.817 94.5896 151.853C94.5737 151.889 94.5505 151.922 94.5211 151.95C94.4918 151.977 94.457 151.999 94.4187 152.014C94.3803 152.029 94.3392 152.036 94.2978 152.036H54.744C54.4066 152.036 54.0744 151.959 53.7764 151.81C53.4784 151.662 53.2238 151.447 53.0348 151.185C52.8458 150.923 52.7282 150.621 52.6924 150.306C52.6565 149.991 52.7034 149.673 52.8291 149.379L60.6018 131.317L65.3637 120.246L85.6203 120.374L84.93 124.155L82.98 134.794L80.4567 148.622C80.4233 148.807 80.4333 148.997 80.486 149.179C80.5388 149.36 80.633 149.529 80.7622 149.672C80.8913 149.816 81.0523 149.932 81.2339 150.012C81.4155 150.091 81.6134 150.133 81.8139 150.133H94.2939C94.3355 150.132 94.3769 150.139 94.4157 150.153C94.4544 150.168 94.4897 150.189 94.5195 150.216C94.5493 150.244 94.573 150.276 94.5892 150.312C94.6054 150.348 94.6137 150.387 94.6137 150.426Z" fill="white"/>
<path opacity="0.2" d="M81.818 150.13H56.078C55.9297 150.129 55.7838 150.095 55.6531 150.029C55.5224 149.963 55.4109 149.868 55.3285 149.752C55.246 149.637 55.1952 149.504 55.1803 149.365C55.1655 149.227 55.1871 149.087 55.2434 148.958L66.2336 124.151H84.9263L80.4569 148.618C80.4234 148.804 80.4336 148.994 80.4865 149.176C80.5395 149.358 80.6341 149.526 80.7637 149.67C80.8933 149.814 81.0547 149.93 81.2368 150.009C81.4189 150.088 81.6172 150.13 81.818 150.13Z" fill="black"/>
<path opacity="0.1" d="M85.6205 120.37L84.9303 124.151L82.9841 134.79L60.6021 131.317L65.364 120.242L85.6205 120.37Z" fill="black"/>
<path d="M125.007 66.063H31.231C30.916 66.063 30.6042 66.1213 30.3132 66.2344C30.0222 66.3475 29.7577 66.5133 29.535 66.7223C29.3123 66.9313 29.1356 67.1795 29.0151 67.4526C28.8946 67.7257 28.8325 68.0184 28.8325 68.3139V127.895C28.8325 128.492 29.0852 129.065 29.535 129.487C29.9848 129.909 30.5949 130.146 31.231 130.146H125.007C125.643 130.146 126.253 129.909 126.704 129.487C127.154 129.065 127.408 128.492 127.409 127.895V68.3139C127.408 67.7166 127.154 67.1441 126.704 66.7221C126.253 66.3001 125.643 66.063 125.007 66.063Z" fill="#263238"/>
<path opacity="0.6" d="M125.007 66.063H31.231C30.916 66.063 30.6042 66.1213 30.3132 66.2344C30.0222 66.3475 29.7577 66.5133 29.535 66.7223C29.3123 66.9313 29.1356 67.1795 29.0151 67.4526C28.8946 67.7257 28.8325 68.0184 28.8325 68.3139V127.895C28.8325 128.492 29.0852 129.065 29.535 129.487C29.9848 129.909 30.5949 130.146 31.231 130.146H125.007C125.643 130.146 126.253 129.909 126.704 129.487C127.154 129.065 127.408 128.492 127.409 127.895V68.3139C127.408 67.7166 127.154 67.1441 126.704 66.7221C126.253 66.3001 125.643 66.063 125.007 66.063Z" fill="white"/>
<path opacity="0.2" d="M33.22 130.142H31.231C30.5956 130.142 29.9861 129.906 29.5364 129.484C29.0867 129.063 28.8336 128.491 28.8325 127.895V68.3176C28.832 68.0217 28.8937 67.7286 29.014 67.4551C29.1343 67.1815 29.3109 66.933 29.5336 66.7236C29.7564 66.5142 30.021 66.348 30.3123 66.2347C30.6035 66.1213 30.9157 66.063 31.231 66.063H33.22C32.9037 66.0616 32.5903 66.1188 32.2977 66.2315C32.0051 66.3442 31.7391 66.5101 31.5151 66.7197C31.2911 66.9292 31.1134 67.1783 30.9924 67.4525C30.8713 67.7267 30.8093 68.0207 30.8098 68.3176V127.895C30.8098 128.191 30.8723 128.485 30.9936 128.758C31.1149 129.032 31.2927 129.28 31.5167 129.489C31.7407 129.698 32.0065 129.863 32.2989 129.975C32.5912 130.088 32.9042 130.144 33.22 130.142Z" fill="black"/>
<path d="M125.248 67.9991H32.9858V125.45H125.248V67.9991Z" fill="#407BFF"/>
<path opacity="0.4" d="M77.8436 89.8676C82.2677 89.8676 85.8542 86.5019 85.8542 82.35C85.8542 78.1981 82.2677 74.8324 77.8436 74.8324C73.4195 74.8324 69.833 78.1981 69.833 82.35C69.833 86.5019 73.4195 89.8676 77.8436 89.8676Z" fill="white"/>
<path d="M75.9327 81.2081V80.52C75.9327 80.1919 76.0716 79.8773 76.3188 79.6453C76.566 79.4133 76.9013 79.2829 77.2509 79.2829H78.4209C78.5954 79.281 78.7684 79.3116 78.9302 79.3729C79.0919 79.4342 79.2391 79.525 79.3631 79.64C79.4872 79.7551 79.5857 79.8921 79.6529 80.0432C79.7201 80.1942 79.7547 80.3563 79.7547 80.52V81.2227H80.6088V80.52C80.6078 79.9796 80.3786 79.4617 79.9714 79.0796C79.5643 78.6974 79.0123 78.4824 78.4365 78.4814H77.2665C76.6907 78.4824 76.1388 78.6974 75.7316 79.0796C75.3245 79.4617 75.0953 79.9796 75.0942 80.52V81.2227L75.9327 81.2081Z" fill="white"/>
<path d="M74.0024 82.1341V85.827C74.0024 85.8808 74.0137 85.9341 74.0357 85.9839C74.0576 86.0336 74.0898 86.0788 74.1304 86.1169C74.1709 86.1549 74.2191 86.1851 74.2721 86.2057C74.3251 86.2263 74.3819 86.2369 74.4392 86.2369H81.2486C81.306 86.2369 81.3628 86.2263 81.4158 86.2057C81.4688 86.1851 81.5169 86.1549 81.5575 86.1169C81.5981 86.0788 81.6302 86.0336 81.6522 85.9839C81.6741 85.9341 81.6854 85.8808 81.6854 85.827V82.1341C81.6854 82.0253 81.6394 81.9211 81.5575 81.8442C81.4756 81.7673 81.3645 81.7241 81.2486 81.7241H74.4392C74.3819 81.7241 74.3251 81.7347 74.2721 81.7553C74.2191 81.7759 74.1709 81.8061 74.1304 81.8442C74.0898 81.8823 74.0576 81.9275 74.0357 81.9772C74.0137 82.0269 74.0024 82.0802 74.0024 82.1341ZM78.0896 84.2239V84.9559H77.6099V84.2239C77.5398 84.1873 77.4808 84.1344 77.4384 84.0704C77.3961 84.0063 77.3719 83.9332 77.3681 83.8579C77.3681 83.7366 77.4195 83.6202 77.5109 83.5344C77.6023 83.4486 77.7264 83.4004 77.8556 83.4004C77.9849 83.4004 78.1089 83.4486 78.2004 83.5344C78.2918 83.6202 78.3431 83.7366 78.3431 83.8579C78.3382 83.9343 78.3122 84.0081 78.2678 84.0723C78.2234 84.1364 78.162 84.1887 78.0896 84.2239Z" fill="white"/>
<path d="M58.301 96.0933H50.735C50.2849 96.0933 49.9199 96.4358 49.9199 96.8582V103.959C49.9199 104.381 50.2849 104.724 50.735 104.724H58.301C58.7512 104.724 59.1161 104.381 59.1161 103.959V96.8582C59.1161 96.4358 58.7512 96.0933 58.301 96.0933Z" fill="white"/>
<path d="M69.9661 96.0823H62.4001C61.9499 96.0823 61.585 96.4248 61.585 96.8473V103.948C61.585 104.37 61.9499 104.713 62.4001 104.713H69.9661C70.4162 104.713 70.7812 104.37 70.7812 103.948V96.8473C70.7812 96.4248 70.4162 96.0823 69.9661 96.0823Z" fill="white"/>
<path d="M81.6267 96.0713H74.0607C73.6105 96.0713 73.2456 96.4138 73.2456 96.8363V103.937C73.2456 104.359 73.6105 104.702 74.0607 104.702H81.6267C82.0769 104.702 82.4418 104.359 82.4418 103.937V96.8363C82.4418 96.4138 82.0769 96.0713 81.6267 96.0713Z" fill="white"/>
<path d="M93.2878 96.0567H85.7218C85.2717 96.0567 84.9067 96.3992 84.9067 96.8216V103.922C84.9067 104.345 85.2717 104.687 85.7218 104.687H93.2878C93.738 104.687 94.1029 104.345 94.1029 103.922V96.8216C94.1029 96.3992 93.738 96.0567 93.2878 96.0567Z" fill="white"/>
<path d="M104.949 96.0457H97.383C96.9328 96.0457 96.5679 96.3882 96.5679 96.8107V103.911C96.5679 104.334 96.9328 104.676 97.383 104.676H104.949C105.399 104.676 105.764 104.334 105.764 103.911V96.8107C105.764 96.3882 105.399 96.0457 104.949 96.0457Z" fill="white"/>
<path d="M99.1416 100.529C99.1416 99.0103 100.007 98.1466 101.17 98.1466C102.332 98.1466 103.194 99.0103 103.194 100.529C103.194 102.048 102.328 102.912 101.17 102.912C100.011 102.912 99.1416 102.048 99.1416 100.529ZM102.484 100.529C102.484 99.3361 101.942 98.7395 101.17 98.7395C100.397 98.7395 99.8514 99.3361 99.8514 100.529C99.8514 101.722 100.39 102.319 101.17 102.319C101.95 102.319 102.484 101.719 102.484 100.529Z" fill="#263238"/>
<path d="M56.3664 100.471C56.3664 102.059 55.407 102.912 54.0264 102.912C53.5955 102.926 53.1684 102.832 52.7901 102.637L53.0397 102.114C53.3294 102.271 53.6609 102.347 53.9952 102.334C55.0014 102.334 55.641 101.741 55.641 100.573V100.408C55.4746 100.613 55.2567 100.775 55.0069 100.881C54.7571 100.987 54.4832 101.034 54.2097 101.016C53.223 101.016 52.5132 100.463 52.5132 99.6069C52.5132 98.7505 53.2932 98.1429 54.2643 98.1429C55.6137 98.1466 56.3664 98.9847 56.3664 100.471ZM55.4928 99.5849C55.4928 99.1055 55.1028 98.6846 54.3228 98.6846C54.1863 98.6691 54.0478 98.6809 53.9164 98.7192C53.7851 98.7575 53.6639 98.8214 53.5608 98.9068C53.4576 98.9922 53.3749 99.0971 53.3181 99.2146C53.2612 99.3321 53.2314 99.4595 53.2308 99.5886C53.2308 100.138 53.6637 100.489 54.3618 100.489C55.0599 100.489 55.4928 100.097 55.4928 99.5849Z" fill="#263238"/>
<path d="M64.1548 100.529C64.1548 99.0103 65.0206 98.1466 66.1828 98.1466C67.345 98.1466 68.2069 99.0103 68.2069 100.529C68.2069 102.048 67.3411 102.912 66.1828 102.912C65.0245 102.912 64.1548 102.048 64.1548 100.529ZM67.4971 100.529C67.4971 99.3361 66.9589 98.7395 66.1828 98.7395C65.4067 98.7395 64.8646 99.3361 64.8646 100.529C64.8646 101.722 65.4028 102.319 66.1828 102.319C66.9628 102.319 67.4971 101.722 67.4971 100.529Z" fill="#263238"/>
<path d="M79.6381 102.279V102.846H76.0696V102.407L78.0898 100.577C78.6163 100.097 78.7138 99.8045 78.7138 99.5117C78.7138 99.0323 78.355 98.7395 77.6569 98.7395C77.4185 98.727 77.1803 98.7661 76.9605 98.8537C76.7408 98.9412 76.5454 99.075 76.3894 99.2446L75.9058 98.8529C76.1339 98.616 76.4153 98.4298 76.7297 98.3076C77.044 98.1854 77.3834 98.1304 77.7232 98.1466C78.7567 98.1466 79.4236 98.6443 79.4236 99.4422C79.4236 99.896 79.2832 100.302 78.6085 100.906L77.0914 102.275L79.6381 102.279Z" fill="#263238"/>
<path d="M90.0898 98.1978V102.846H89.3878V98.7797H88.2646V98.1978H90.0898Z" fill="#263238"/>
<g opacity="0.6">
<path d="M69.1194 93.9851V94.1498H67.7661V92.3528H69.0765V92.5175H67.9689V93.158H68.9556V93.33H67.9689V93.9961L69.1194 93.9851Z" fill="white"/>
<path d="M70.8743 93.3666V94.1498H70.6793V93.3849C70.691 93.3281 70.688 93.2695 70.6708 93.2139C70.6536 93.1583 70.6226 93.1074 70.5804 93.0652C70.5381 93.0231 70.4858 92.991 70.4278 92.9714C70.3698 92.9519 70.3076 92.9456 70.2464 92.953C70.1778 92.9484 70.1088 92.958 70.0445 92.981C69.9802 93.0041 69.922 93.04 69.8741 93.0864C69.8261 93.1328 69.7896 93.1885 69.767 93.2495C69.7444 93.3106 69.7363 93.3755 69.7433 93.4398V94.1498H69.5522V92.7993H69.7355V93.0482C69.7941 92.9638 69.8756 92.8957 69.9716 92.8506C70.0675 92.8056 70.1745 92.7854 70.2816 92.792C70.3628 92.7855 70.4447 92.796 70.5211 92.8229C70.5975 92.8497 70.6666 92.8922 70.7233 92.9472C70.7801 93.0022 70.8231 93.0684 70.8492 93.1409C70.8753 93.2135 70.8839 93.2906 70.8743 93.3666Z" fill="white"/>
<path d="M72.1498 94.062C72.064 94.1272 71.9559 94.161 71.8456 94.1572C71.7894 94.1615 71.7329 94.1544 71.68 94.1364C71.627 94.1183 71.5789 94.0896 71.5389 94.0524C71.4988 94.0152 71.4679 93.9703 71.4481 93.9208C71.4283 93.8712 71.4203 93.8183 71.4244 93.7655V92.964H71.167V92.8103H71.4244V92.5175H71.6194V92.8103H72.0562V92.964H71.6194V93.7692C71.6194 93.9303 71.7052 94.0144 71.8651 94.0144C71.9426 94.0167 72.0185 93.9934 72.0796 93.9485L72.1498 94.062Z" fill="white"/>
<path d="M73.7098 93.5313H72.5086C72.5176 93.6637 72.5822 93.7874 72.6882 93.8752C72.7942 93.963 72.933 94.0078 73.0741 93.9998C73.1568 94.0023 73.239 93.9879 73.3151 93.9575C73.3912 93.9272 73.4594 93.8817 73.5148 93.8241L73.624 93.9412C73.5176 94.035 73.3854 94.0988 73.2422 94.1255C73.0991 94.1522 72.9509 94.1407 72.8144 94.0923C72.6779 94.0438 72.5586 93.9605 72.4701 93.8516C72.3815 93.7427 72.3273 93.6127 72.3136 93.4764C72.3082 93.3874 72.3225 93.2982 72.3555 93.2146C72.3885 93.131 72.4396 93.0547 72.5055 92.9904C72.5714 92.9262 72.6507 92.8754 72.7385 92.8412C72.8263 92.8071 72.9206 92.7903 73.0156 92.792C73.1103 92.7902 73.2043 92.807 73.2917 92.8412C73.3791 92.8755 73.458 92.9264 73.5233 92.9908C73.5886 93.0551 73.6389 93.1316 73.671 93.2152C73.7031 93.2988 73.7163 93.3877 73.7098 93.4764C73.7098 93.4764 73.7098 93.5093 73.7098 93.5313ZM72.5086 93.3959H73.5265C73.5154 93.2764 73.4569 93.1652 73.3627 93.0842C73.2685 93.0032 73.1453 92.9583 73.0176 92.9583C72.8898 92.9583 72.7666 93.0032 72.6724 93.0842C72.5782 93.1652 72.5198 93.2764 72.5086 93.3959Z" fill="white"/>
<path d="M74.8289 92.792V92.964H74.7821C74.7135 92.9606 74.645 92.9716 74.5815 92.996C74.518 93.0205 74.4611 93.0579 74.4148 93.1055C74.3685 93.1531 74.3341 93.2098 74.314 93.2714C74.2939 93.333 74.2886 93.398 74.2985 93.4618V94.1498H74.0996V92.7993H74.2868V93.0628C74.337 92.9712 74.4158 92.8961 74.5127 92.8477C74.6096 92.7993 74.7199 92.7799 74.8289 92.792Z" fill="white"/>
<path d="M77.122 92.7993L76.4044 94.3109C76.2835 94.5744 76.1314 94.6586 75.9247 94.6586C75.8609 94.6608 75.7973 94.6509 75.7377 94.6295C75.6781 94.6081 75.6236 94.5757 75.5776 94.5341L75.6673 94.3987C75.7006 94.4323 75.7411 94.4588 75.7862 94.4764C75.8313 94.4941 75.8798 94.5026 75.9286 94.5012C76.0573 94.5012 76.1431 94.4463 76.225 94.2779L76.2874 94.1462L75.6595 92.7993H75.8623L76.4005 93.9449L76.9426 92.7993H77.122Z" fill="white"/>
<path d="M77.2196 93.4764C77.2189 93.3402 77.2612 93.2068 77.3413 93.0931C77.4214 92.9795 77.5356 92.8907 77.6695 92.8381C77.8035 92.7855 77.951 92.7713 78.0935 92.7974C78.236 92.8236 78.367 92.8888 78.4699 92.9849C78.5728 93.081 78.6431 93.2036 78.6717 93.3372C78.7003 93.4707 78.686 93.6093 78.6306 93.7352C78.5752 93.8612 78.4812 93.9688 78.3606 94.0446C78.2399 94.1204 78.098 94.1608 77.9528 94.1608C77.8559 94.1644 77.7592 94.1492 77.6687 94.1161C77.5783 94.083 77.4961 94.0328 77.4273 93.9686C77.3585 93.9043 77.3046 93.8275 77.2688 93.7428C77.2331 93.6581 77.2164 93.5674 77.2196 93.4764ZM78.4832 93.4764C78.4787 93.3781 78.4434 93.2833 78.3818 93.2037C78.3202 93.1241 78.235 93.0633 78.1368 93.0288C78.0386 92.9943 77.9318 92.9877 77.8297 93.0097C77.7275 93.0318 77.6345 93.0815 77.5623 93.1528C77.4901 93.2241 77.4418 93.3138 77.4234 93.4106C77.4051 93.5075 77.4175 93.6072 77.4591 93.6975C77.5007 93.7878 77.5697 93.8646 77.6575 93.9183C77.7453 93.9721 77.848 94.0004 77.9528 93.9998C78.0242 93.9994 78.0947 93.9854 78.1601 93.9585C78.2254 93.9316 78.2842 93.8924 78.3328 93.8434C78.3814 93.7943 78.4188 93.7365 78.4426 93.6734C78.4665 93.6103 78.4763 93.5432 78.4715 93.4764H78.4832Z" fill="white"/>
<path d="M80.3592 92.7993V94.1498H80.1759V93.901C80.1225 93.9842 80.046 94.0523 79.9547 94.098C79.8634 94.1438 79.7606 94.1655 79.6572 94.1608C79.5747 94.1685 79.4915 94.1587 79.4137 94.1322C79.3358 94.1056 79.2653 94.0631 79.2073 94.0076C79.1493 93.9521 79.1053 93.8851 79.0785 93.8115C79.0518 93.738 79.0429 93.6597 79.0527 93.5825V92.7993H79.2438V93.5642C79.2322 93.6211 79.2351 93.6797 79.2523 93.7352C79.2695 93.7908 79.3005 93.8417 79.3427 93.8839C79.385 93.926 79.4373 93.9582 79.4953 93.9777C79.5534 93.9972 79.6155 94.0035 79.6767 93.9961C79.7444 93.9998 79.8122 93.9895 79.8753 93.9659C79.9383 93.9423 79.9951 93.906 80.0416 93.8596C80.088 93.8132 80.1231 93.7578 80.1443 93.6972C80.1655 93.6367 80.1723 93.5726 80.1642 93.5093V92.7993H80.3592Z" fill="white"/>
<path d="M81.6268 92.792V92.964H81.58C81.5114 92.9606 81.4429 92.9716 81.3794 92.996C81.3159 93.0205 81.2589 93.0579 81.2127 93.1055C81.1664 93.1531 81.132 93.2098 81.1119 93.2714C81.0918 93.333 81.0865 93.398 81.0964 93.4618V94.1498H80.9014V92.7993H81.0886V93.0628C81.1385 92.9718 81.2167 92.8972 81.3128 92.8488C81.4089 92.8005 81.5184 92.7806 81.6268 92.792Z" fill="white"/>
<path d="M82.5822 93.2531C82.5752 93.0651 82.6282 92.8794 82.7344 92.7199C82.8406 92.5603 82.9952 92.4342 83.1784 92.3576C83.3615 92.2811 83.5648 92.2576 83.7623 92.2902C83.9597 92.3229 84.1422 92.4101 84.2865 92.5407C84.4307 92.6714 84.5301 92.8395 84.5719 93.0235C84.6136 93.2075 84.5959 93.3991 84.5208 93.5735C84.4458 93.748 84.317 93.8975 84.1508 94.0028C83.9847 94.1081 83.7888 94.1644 83.5884 94.1645C83.4578 94.1694 83.3275 94.1495 83.2053 94.1059C83.0832 94.0622 82.9717 93.9958 82.8777 93.9107C82.7836 93.8255 82.709 93.7233 82.6582 93.6103C82.6074 93.4973 82.5815 93.3758 82.5822 93.2531ZM84.3879 93.2531C84.3925 93.1022 84.3487 92.9535 84.2622 92.8262C84.1758 92.6989 84.0506 92.5989 83.9029 92.5391C83.7551 92.4794 83.5917 92.4626 83.4337 92.491C83.2757 92.5194 83.1304 92.5916 83.0167 92.6984C82.903 92.8051 82.826 92.9414 82.7957 93.0897C82.7655 93.238 82.7833 93.3914 82.847 93.53C82.9107 93.6686 83.0173 93.7861 83.1529 93.8673C83.2886 93.9484 83.4471 93.9895 83.6079 93.9851C83.8147 93.9851 84.0131 93.908 84.1594 93.7707C84.3057 93.6335 84.3879 93.4473 84.3879 93.2531Z" fill="white"/>
<path d="M85.3861 92.5175H84.7153V92.3528H86.2753V92.5175H85.6006V94.1498H85.3978L85.3861 92.5175Z" fill="white"/>
<path d="M88.0811 92.964C88.0811 93.33 87.7847 93.5752 87.3011 93.5752H86.7902V94.1425H86.5796V92.3455H87.2933C87.7847 92.3528 88.0811 92.598 88.0811 92.964ZM87.8783 92.964C87.8783 92.6749 87.6755 92.5102 87.2933 92.5102H86.7863V93.4069H87.2933C87.6755 93.4142 87.8783 93.2531 87.8783 92.964Z" fill="white"/>
</g>
<g opacity="0.6">
<path d="M70.2583 109.394L70.3363 109.251C70.5113 109.394 70.7363 109.471 70.9681 109.467C71.323 109.467 71.479 109.328 71.479 109.149C71.479 108.658 70.309 108.958 70.309 108.296C70.309 108.032 70.5274 107.805 71.011 107.805C71.2207 107.803 71.4267 107.857 71.6038 107.963L71.5375 108.113C71.3801 108.019 71.1977 107.968 71.011 107.966C70.6639 107.966 70.5079 108.113 70.5079 108.292C70.5079 108.783 71.6779 108.486 71.6779 109.138C71.6779 109.405 71.4556 109.628 70.9681 109.628C70.7084 109.637 70.4547 109.553 70.2583 109.394Z" fill="white"/>
<path d="M73.3199 108.995H72.1187C72.1278 109.127 72.1924 109.251 72.2984 109.339C72.4044 109.426 72.5431 109.471 72.6842 109.463C72.7669 109.466 72.8491 109.451 72.9252 109.421C73.0013 109.391 73.0695 109.345 73.1249 109.288L73.2341 109.405C73.1655 109.478 73.0801 109.537 72.9842 109.575C72.8884 109.614 72.7846 109.632 72.6803 109.628C72.5814 109.634 72.4823 109.62 72.3894 109.588C72.2964 109.555 72.2116 109.505 72.1405 109.44C72.0693 109.376 72.0133 109.298 71.9759 109.212C71.9386 109.125 71.9209 109.033 71.9237 108.94C71.9189 108.851 71.9336 108.762 71.9668 108.679C72 108.595 72.0511 108.519 72.1169 108.455C72.1827 108.391 72.2618 108.34 72.3493 108.306C72.4368 108.272 72.5309 108.254 72.6257 108.255C72.7208 108.253 72.8152 108.27 72.9031 108.304C72.9909 108.338 73.0703 108.388 73.136 108.453C73.2017 108.517 73.2524 108.594 73.2847 108.678C73.3171 108.762 73.3304 108.851 73.3238 108.94C73.3238 108.94 73.3199 108.976 73.3199 108.995ZM72.1187 108.859H73.1366C73.1255 108.74 73.067 108.629 72.9728 108.548C72.8786 108.467 72.7555 108.422 72.6277 108.422C72.4999 108.422 72.3768 108.467 72.2826 108.548C72.1883 108.629 72.1299 108.74 72.1187 108.859Z" fill="white"/>
<path d="M75.0477 108.83V109.613H74.8566V108.848C74.8675 108.792 74.864 108.734 74.8465 108.679C74.829 108.623 74.7979 108.573 74.7557 108.531C74.7136 108.49 74.6615 108.458 74.6038 108.439C74.5461 108.419 74.4844 108.413 74.4237 108.42C74.355 108.416 74.2861 108.425 74.2217 108.448C74.1574 108.471 74.0992 108.507 74.0513 108.554C74.0033 108.6 73.9668 108.656 73.9442 108.717C73.9216 108.778 73.9136 108.843 73.9206 108.907V109.613H73.71V108.266H73.8972V108.515C73.9553 108.43 74.0365 108.361 74.1325 108.316C74.2285 108.27 74.3357 108.249 74.4432 108.255C74.5254 108.247 74.6085 108.256 74.6864 108.283C74.7643 108.309 74.8349 108.351 74.893 108.406C74.9511 108.461 74.9952 108.528 75.022 108.601C75.0487 108.675 75.0575 108.753 75.0477 108.83Z" fill="white"/>
<path d="M76.8924 107.71V109.613H76.7052V109.346C76.6482 109.435 76.5667 109.508 76.4693 109.558C76.3719 109.608 76.2622 109.632 76.1514 109.628C75.9667 109.615 75.794 109.538 75.6679 109.41C75.5418 109.283 75.4717 109.116 75.4717 108.942C75.4717 108.768 75.5418 108.601 75.6679 108.473C75.794 108.346 75.9667 108.268 76.1514 108.255C76.2593 108.252 76.3663 108.275 76.462 108.321C76.5577 108.368 76.6388 108.438 76.6974 108.523V107.71H76.8924ZM76.7013 108.94C76.6968 108.842 76.6616 108.747 76.6001 108.668C76.5387 108.588 76.4538 108.527 76.3558 108.493C76.2579 108.458 76.1512 108.451 76.0492 108.473C75.9471 108.495 75.8541 108.544 75.7817 108.615C75.7093 108.686 75.6607 108.775 75.6419 108.872C75.6231 108.968 75.635 109.068 75.676 109.158C75.7171 109.249 75.7855 109.326 75.8728 109.38C75.9601 109.434 76.0624 109.463 76.167 109.463C76.2395 109.464 76.3115 109.451 76.3784 109.425C76.4454 109.399 76.5058 109.36 76.556 109.311C76.6061 109.262 76.6449 109.204 76.6699 109.14C76.695 109.076 76.7056 109.008 76.7013 108.94Z" fill="white"/>
<path d="M79.2324 108.779V109.613H79.0452V109.405C78.9911 109.48 78.9167 109.54 78.8297 109.579C78.7427 109.618 78.6462 109.635 78.5499 109.628C78.2262 109.628 78.0273 109.467 78.0273 109.233C78.0273 108.998 78.1677 108.867 78.5811 108.867H79.0374V108.786C79.043 108.737 79.0367 108.687 79.019 108.64C79.0014 108.593 78.9728 108.551 78.9354 108.516C78.8981 108.481 78.8528 108.454 78.803 108.437C78.7532 108.421 78.7 108.415 78.6474 108.42C78.4721 108.418 78.3016 108.475 78.1677 108.581L78.0819 108.446C78.2466 108.322 78.4524 108.258 78.663 108.263C78.7383 108.254 78.8146 108.262 78.8864 108.285C78.9582 108.307 79.0237 108.345 79.0782 108.394C79.1327 108.443 79.1748 108.504 79.2015 108.57C79.2282 108.637 79.2388 108.708 79.2324 108.779ZM79.0374 109.207V108.987H78.585C78.3081 108.987 78.2184 109.09 78.2184 109.229C78.2184 109.368 78.351 109.482 78.5811 109.482C78.6785 109.488 78.7753 109.464 78.8574 109.415C78.9395 109.365 79.0026 109.293 79.0374 109.207Z" fill="white"/>
<path d="M81.0923 108.266V109.434C81.1076 109.526 81.0996 109.62 81.069 109.708C81.0384 109.796 80.9859 109.876 80.916 109.942C80.846 110.008 80.7605 110.057 80.6665 110.086C80.5724 110.114 80.4724 110.122 80.3747 110.107C80.1322 110.116 79.8943 110.044 79.7039 109.902L79.8014 109.763C79.9612 109.885 80.1614 109.949 80.3669 109.946C80.7335 109.946 80.8973 109.793 80.8973 109.46V109.288C80.8356 109.372 80.752 109.44 80.6544 109.486C80.5568 109.531 80.4484 109.552 80.3396 109.547C80.2438 109.554 80.1475 109.542 80.0569 109.513C79.9662 109.483 79.883 109.436 79.8126 109.374C79.7422 109.313 79.686 109.239 79.6476 109.156C79.6092 109.073 79.5894 108.984 79.5894 108.894C79.5894 108.804 79.6092 108.715 79.6476 108.632C79.686 108.55 79.7422 108.475 79.8126 108.414C79.883 108.353 79.9662 108.306 80.0569 108.276C80.1475 108.246 80.2438 108.234 80.3396 108.241C80.4504 108.236 80.5607 108.258 80.6598 108.305C80.7589 108.351 80.8434 108.422 80.9051 108.508V108.252L81.0923 108.266ZM80.9051 108.907C80.909 108.805 80.8803 108.704 80.8227 108.617C80.7651 108.531 80.6813 108.462 80.5819 108.421C80.4825 108.379 80.3722 108.366 80.265 108.384C80.1579 108.402 80.0588 108.449 79.9804 108.52C79.9021 108.591 79.8481 108.682 79.8255 108.782C79.8028 108.882 79.8124 108.986 79.8531 109.08C79.8937 109.175 79.9637 109.256 80.0538 109.313C80.144 109.37 80.2503 109.401 80.3591 109.401C80.4303 109.405 80.5016 109.395 80.5685 109.372C80.6354 109.349 80.6965 109.313 80.7478 109.267C80.7991 109.22 80.8396 109.164 80.8667 109.102C80.8938 109.04 80.9068 108.974 80.9051 108.907Z" fill="white"/>
<path d="M82.7188 108.779V109.613H82.5355V109.405C82.481 109.479 82.4066 109.539 82.3197 109.579C82.2327 109.618 82.1363 109.635 82.0402 109.628C81.7126 109.628 81.5137 109.467 81.5137 109.233C81.5137 108.998 81.658 108.867 82.0714 108.867H82.5238V108.786C82.5238 108.556 82.3873 108.42 82.1338 108.42C81.9597 108.418 81.7907 108.475 81.658 108.581L81.5683 108.446C81.7344 108.322 81.9415 108.258 82.1533 108.263C82.2282 108.255 82.3041 108.263 82.3754 108.286C82.4467 108.309 82.5117 108.346 82.5658 108.396C82.6198 108.445 82.6616 108.505 82.688 108.571C82.7145 108.637 82.725 108.708 82.7188 108.779ZM82.5238 109.207V108.987H82.0753C81.7945 108.987 81.7048 109.09 81.7048 109.229C81.7048 109.368 81.8413 109.482 82.0714 109.482C82.1683 109.488 82.2648 109.465 82.3464 109.415C82.428 109.366 82.4902 109.293 82.5238 109.207Z" fill="white"/>
<path d="M83.2026 107.838C83.2082 107.807 83.2256 107.778 83.2517 107.757C83.2778 107.736 83.3108 107.725 83.345 107.725C83.3792 107.725 83.4122 107.736 83.4383 107.757C83.4644 107.778 83.4817 107.807 83.4873 107.838C83.4817 107.87 83.4644 107.899 83.4383 107.919C83.4122 107.94 83.3792 107.951 83.345 107.951C83.3108 107.951 83.2778 107.94 83.2517 107.919C83.2256 107.899 83.2082 107.87 83.2026 107.838ZM83.2455 108.266H83.4405V109.613H83.2455V108.266Z" fill="white"/>
<path d="M85.3006 108.83V109.613H85.1095V108.848C85.1204 108.792 85.117 108.734 85.0995 108.679C85.0819 108.624 85.0508 108.573 85.0087 108.531C84.9665 108.49 84.9145 108.458 84.8568 108.439C84.7991 108.419 84.7374 108.413 84.6766 108.42C84.6079 108.416 84.539 108.425 84.4747 108.448C84.4104 108.471 84.3522 108.507 84.3042 108.554C84.2563 108.6 84.2198 108.656 84.1972 108.717C84.1746 108.778 84.1665 108.843 84.1735 108.907V109.613H83.9824V108.266H84.1657V108.515C84.2238 108.43 84.3051 108.361 84.4011 108.316C84.4971 108.27 84.6043 108.249 84.7117 108.255C84.7927 108.25 84.8741 108.261 84.95 108.288C85.0259 108.315 85.0945 108.357 85.1508 108.412C85.2071 108.467 85.2497 108.533 85.2757 108.605C85.3016 108.678 85.3101 108.754 85.3006 108.83Z" fill="white"/>
</g>
<path opacity="0.4" d="M88.709 118.763H66.9743C66.1154 118.762 65.2921 118.442 64.6852 117.871C64.0782 117.301 63.7373 116.528 63.7373 115.722C63.7373 114.916 64.0782 114.143 64.6852 113.573C65.2921 113.002 66.1154 112.681 66.9743 112.68H88.709C89.5686 112.68 90.3929 113.001 91.0007 113.571C91.6085 114.142 91.9499 114.915 91.9499 115.722C91.9499 116.529 91.6085 117.302 91.0007 117.873C90.3929 118.443 89.5686 118.763 88.709 118.763Z" fill="white"/>
<path d="M69.3653 115.568C69.3635 115.426 69.3929 115.284 69.4517 115.153C69.5105 115.022 69.5974 114.903 69.7072 114.804C69.8169 114.706 69.947 114.63 70.0895 114.58C70.232 114.531 70.3837 114.51 70.5353 114.518C70.6903 114.513 70.8446 114.539 70.9879 114.594C71.1312 114.65 71.2601 114.734 71.366 114.84L71.1632 115.023C71.0848 114.944 70.9893 114.881 70.883 114.839C70.7767 114.798 70.6621 114.778 70.547 114.781C70.4085 114.782 70.2726 114.816 70.1512 114.878C70.0298 114.941 69.9269 115.031 69.8515 115.14C69.7762 115.249 69.7308 115.374 69.7194 115.503C69.708 115.633 69.7309 115.763 69.7862 115.882C69.8415 116.001 69.9273 116.106 70.0361 116.186C70.1449 116.267 70.2732 116.321 70.4096 116.343C70.5459 116.366 70.6861 116.356 70.8177 116.315C70.9492 116.275 71.0679 116.204 71.1632 116.11L71.366 116.293C71.2596 116.399 71.13 116.483 70.986 116.539C70.842 116.594 70.687 116.62 70.5314 116.615C70.3803 116.623 70.2291 116.602 70.0871 116.553C69.9451 116.503 69.8154 116.427 69.706 116.329C69.5967 116.231 69.51 116.113 69.4514 115.982C69.3928 115.851 69.3635 115.71 69.3653 115.568Z" fill="white"/>
<path d="M71.5765 115.568C71.5656 115.349 71.6248 115.132 71.7466 114.945C71.8683 114.758 72.047 114.609 72.2596 114.518C72.4722 114.427 72.709 114.398 72.9394 114.434C73.1698 114.471 73.3834 114.571 73.5525 114.722C73.7217 114.874 73.8386 115.069 73.8884 115.283C73.9381 115.497 73.9184 115.721 73.8316 115.924C73.7449 116.128 73.5952 116.303 73.4018 116.426C73.2084 116.549 72.9801 116.615 72.7465 116.615C72.5953 116.622 72.4442 116.601 72.3022 116.552C72.1603 116.502 72.0306 116.426 71.921 116.328C71.8115 116.23 71.7244 116.112 71.6652 115.982C71.6059 115.851 71.5757 115.71 71.5765 115.568ZM73.585 115.568C73.5873 115.41 73.5393 115.254 73.4471 115.122C73.355 114.989 73.2228 114.885 73.0674 114.823C72.9121 114.761 72.7405 114.744 72.5748 114.774C72.409 114.803 72.2564 114.879 72.1365 114.99C72.0165 115.102 71.9347 115.244 71.9014 115.4C71.8681 115.555 71.8848 115.716 71.9493 115.862C72.0139 116.009 72.1235 116.134 72.2641 116.222C72.4046 116.309 72.5699 116.356 72.7387 116.355C72.8502 116.359 72.9612 116.341 73.0651 116.302C73.169 116.264 73.2634 116.207 73.3426 116.133C73.4219 116.059 73.4843 115.971 73.5259 115.874C73.5676 115.777 73.5877 115.673 73.585 115.568Z" fill="white"/>
<path d="M76.2528 114.558V116.608H75.9954L74.685 115.078V116.608H74.373V114.558H74.6304L75.9408 116.084V114.558H76.2528Z" fill="white"/>
<path d="M77.3406 114.796H76.5918V114.558H78.3897V114.811H77.6487V116.608H77.3406V114.796Z" fill="white"/>
<path d="M78.7368 114.558H79.0488V116.608H78.7368V114.558Z" fill="white"/>
<path d="M81.5839 114.558V116.608H81.3265L80.0161 115.078V116.608H79.7041V114.558H79.9498L81.2602 116.084V114.558H81.5839Z" fill="white"/>
<path d="M82.2197 115.707V114.558H82.5317V115.711C82.5317 116.165 82.754 116.37 83.1479 116.37C83.5418 116.37 83.7641 116.165 83.7641 115.711V114.558H84.0683V115.722C84.0683 115.952 83.9709 116.173 83.7976 116.335C83.6243 116.498 83.3892 116.589 83.144 116.589C82.8989 116.589 82.6638 116.498 82.4904 116.335C82.3171 116.173 82.2197 115.952 82.2197 115.722V115.707Z" fill="white"/>
<path d="M86.2914 116.337V116.593H84.708V114.558H86.268V114.811H85.02V115.44H86.112V115.689H85.02V116.351L86.2914 116.337Z" fill="white"/>
<path opacity="0.1" d="M115.631 68.2663C102.874 80.2601 70.1099 106.956 32.9858 104.98V68.2663H115.631Z" fill="white"/>
<path opacity="0.1" d="M125.244 90.3105V125.721H69.7007C71.8301 118.569 76.0889 108.775 84.3491 101.777C99.2081 89.1869 116.454 89.2235 125.244 90.3105Z" fill="white"/>
<path d="M136.98 62.6189L138.275 67.9845L139.57 62.6189H136.98Z" fill="#407BFF"/>
<path opacity="0.7" d="M136.98 62.6189L138.275 67.9845L139.57 62.6189H136.98Z" fill="white"/>
<path d="M152.767 47.4263H123.786C121.936 47.4263 120.436 48.8339 120.436 50.5702V60.6645C120.436 62.4009 121.936 63.8084 123.786 63.8084H152.767C154.617 63.8084 156.117 62.4009 156.117 60.6645V50.5702C156.117 48.8339 154.617 47.4263 152.767 47.4263Z" fill="#407BFF"/>
<path opacity="0.7" d="M152.767 47.4263H123.786C121.936 47.4263 120.436 48.8339 120.436 50.5702V60.6645C120.436 62.4009 121.936 63.8084 123.786 63.8084H152.767C154.617 63.8084 156.117 62.4009 156.117 60.6645V50.5702C156.117 48.8339 154.617 47.4263 152.767 47.4263Z" fill="white"/>
<g opacity="0.5">
<path d="M127.561 53.436V54.1424H127.253V53.436L126.387 52.1038H126.723L127.421 53.2018L128.123 52.1038H128.431L127.561 53.436Z" fill="#263238"/>
<path d="M128.361 53.3701C128.358 53.2096 128.406 53.0517 128.498 52.9168C128.591 52.7819 128.725 52.6759 128.882 52.6125C129.039 52.549 129.213 52.5309 129.381 52.5604C129.549 52.59 129.704 52.6658 129.826 52.7783C129.948 52.8908 130.032 53.0349 130.067 53.1922C130.101 53.3495 130.085 53.5129 130.02 53.6615C129.956 53.8102 129.845 53.9374 129.703 54.0269C129.561 54.1165 129.394 54.1643 129.223 54.1643C129.109 54.1694 128.996 54.1525 128.89 54.1146C128.784 54.0767 128.688 54.0186 128.607 53.944C128.526 53.8694 128.462 53.7799 128.42 53.6812C128.377 53.5824 128.357 53.4765 128.361 53.3701ZM129.776 53.3701C129.783 53.298 129.773 53.2253 129.748 53.1568C129.723 53.0883 129.683 53.0254 129.631 52.9721C129.579 52.9188 129.515 52.8763 129.445 52.8471C129.374 52.818 129.298 52.803 129.221 52.803C129.143 52.803 129.067 52.818 128.997 52.8471C128.926 52.8763 128.862 52.9188 128.81 52.9721C128.758 53.0254 128.718 53.0883 128.693 53.1568C128.668 53.2253 128.658 53.298 128.665 53.3701C128.658 53.4423 128.668 53.5149 128.693 53.5834C128.718 53.6519 128.758 53.7148 128.81 53.7681C128.862 53.8214 128.926 53.864 128.997 53.8931C129.067 53.9222 129.143 53.9372 129.221 53.9372C129.298 53.9372 129.374 53.9222 129.445 53.8931C129.515 53.864 129.579 53.8214 129.631 53.7681C129.683 53.7148 129.723 53.6519 129.748 53.5834C129.773 53.5149 129.783 53.4423 129.776 53.3701Z" fill="#263238"/>
<path d="M132.034 52.5942V54.146H131.754V53.9118C131.689 53.9934 131.604 54.0589 131.506 54.1029C131.408 54.1469 131.3 54.168 131.192 54.1643C131.095 54.1737 130.997 54.1625 130.906 54.1317C130.814 54.1008 130.731 54.0511 130.662 53.9862C130.594 53.9212 130.542 53.8427 130.51 53.7563C130.478 53.67 130.467 53.578 130.478 53.4872V52.5942H130.779V53.458C130.779 53.7617 130.942 53.9118 131.227 53.9118C131.298 53.9162 131.37 53.9056 131.436 53.8809C131.503 53.8562 131.563 53.818 131.612 53.769C131.661 53.72 131.697 53.6614 131.719 53.5975C131.741 53.5336 131.747 53.4659 131.738 53.3994V52.5942H132.034Z" fill="#263238"/>
<path d="M133.497 52.5796V52.8541H133.427C133.354 52.8496 133.281 52.8604 133.213 52.8857C133.146 52.911 133.085 52.9501 133.035 53.0002C132.985 53.0503 132.948 53.1101 132.926 53.1754C132.904 53.2406 132.898 53.3096 132.908 53.3774V54.1497H132.6V52.5942H132.889V52.8577C132.951 52.7617 133.042 52.6844 133.15 52.6351C133.257 52.5858 133.378 52.5665 133.497 52.5796Z" fill="#263238"/>
<path d="M134.593 53.1212C134.583 52.9023 134.643 52.6855 134.765 52.4988C134.887 52.3121 135.066 52.164 135.279 52.0735C135.492 51.9831 135.728 51.9544 135.958 51.9913C136.189 52.0281 136.402 52.1288 136.571 52.2803C136.739 52.4318 136.856 52.6272 136.905 52.8413C136.955 53.0555 136.935 53.2787 136.848 53.4821C136.761 53.6855 136.611 53.8599 136.418 53.9828C136.225 54.1057 135.996 54.1715 135.763 54.1717C135.611 54.1797 135.46 54.1584 135.317 54.1091C135.175 54.0598 135.044 53.9835 134.935 53.885C134.825 53.7865 134.738 53.6678 134.679 53.5364C134.62 53.4051 134.591 53.2637 134.593 53.1212ZM136.601 53.1212C136.604 52.9628 136.556 52.8074 136.464 52.6746C136.371 52.5419 136.239 52.4379 136.084 52.376C135.928 52.314 135.757 52.2968 135.591 52.3267C135.425 52.3565 135.273 52.432 135.153 52.5435C135.033 52.655 134.951 52.7975 134.918 52.9528C134.884 53.1081 134.901 53.2692 134.966 53.4156C135.03 53.5619 135.14 53.6869 135.281 53.7747C135.421 53.8624 135.586 53.9089 135.755 53.9081C135.867 53.9117 135.978 53.8938 136.082 53.8556C136.185 53.8174 136.28 53.7597 136.359 53.686C136.438 53.6123 136.501 53.5242 136.542 53.4271C136.584 53.33 136.604 53.2259 136.601 53.1212Z" fill="#263238"/>
<path d="M137.795 52.338H137.046V52.0855H138.84V52.338H138.091V54.1314H137.783L137.795 52.338Z" fill="#263238"/>
<path d="M140.954 52.8138C140.954 53.2567 140.611 53.5275 140.041 53.5275H139.503V54.146H139.191V52.1001H140.041C140.611 52.1001 140.954 52.3673 140.954 52.8138ZM140.642 52.8138C140.642 52.521 140.431 52.3526 140.033 52.3526H139.503V53.2713H140.033C140.431 53.2713 140.642 53.1066 140.642 52.8138Z" fill="#263238"/>
<path d="M142.104 53.1212C142.114 52.9094 142.19 52.705 142.322 52.5327C142.453 52.3603 142.635 52.2274 142.846 52.15C143.056 52.0726 143.286 52.054 143.507 52.0964C143.728 52.1389 143.932 52.2406 144.093 52.3892L143.89 52.5759C143.812 52.4962 143.717 52.4332 143.61 52.3909C143.504 52.3486 143.389 52.3281 143.274 52.3307C143.052 52.3307 142.838 52.4136 142.681 52.5612C142.524 52.7087 142.436 52.9089 142.436 53.1176C142.436 53.3263 142.524 53.5264 142.681 53.674C142.838 53.8216 143.052 53.9045 143.274 53.9045C143.389 53.9071 143.504 53.8866 143.61 53.8443C143.717 53.802 143.812 53.7389 143.89 53.6593L144.093 53.8459C143.932 53.9946 143.728 54.0963 143.507 54.1387C143.286 54.1812 143.056 54.1626 142.846 54.0852C142.635 54.0077 142.453 53.8748 142.322 53.7025C142.19 53.5301 142.114 53.3257 142.104 53.1139V53.1212Z" fill="#263238"/>
<path d="M144.273 53.3701C144.27 53.2096 144.318 53.0517 144.41 52.9168C144.503 52.7819 144.637 52.6759 144.794 52.6125C144.951 52.549 145.125 52.5309 145.293 52.5604C145.461 52.59 145.616 52.6658 145.738 52.7783C145.861 52.8908 145.944 53.0349 145.979 53.1922C146.013 53.3495 145.997 53.5129 145.932 53.6615C145.868 53.8102 145.757 53.9374 145.615 54.0269C145.473 54.1165 145.306 54.1643 145.135 54.1643C145.021 54.1694 144.908 54.1525 144.802 54.1146C144.696 54.0767 144.6 54.0186 144.519 53.944C144.438 53.8694 144.374 53.7799 144.332 53.6812C144.29 53.5824 144.269 53.4765 144.273 53.3701ZM145.689 53.3701C145.695 53.298 145.685 53.2253 145.66 53.1568C145.635 53.0883 145.596 53.0254 145.543 52.9721C145.491 52.9188 145.428 52.8763 145.357 52.8471C145.286 52.818 145.21 52.803 145.133 52.803C145.056 52.803 144.979 52.818 144.909 52.8471C144.838 52.8763 144.775 52.9188 144.722 52.9721C144.67 53.0254 144.63 53.0883 144.605 53.1568C144.58 53.2253 144.571 53.298 144.577 53.3701C144.571 53.4423 144.58 53.5149 144.605 53.5834C144.63 53.6519 144.67 53.7148 144.722 53.7681C144.775 53.8214 144.838 53.864 144.909 53.8931C144.979 53.9222 145.056 53.9372 145.133 53.9372C145.21 53.9372 145.286 53.9222 145.357 53.8931C145.428 53.864 145.491 53.8214 145.543 53.7681C145.596 53.7148 145.635 53.6519 145.66 53.5834C145.685 53.5149 145.695 53.4423 145.689 53.3701Z" fill="#263238"/>
<path d="M147.966 51.972V54.1424H147.681V53.8972C147.613 53.9825 147.524 54.0511 147.421 54.097C147.319 54.1429 147.206 54.1648 147.092 54.1607C146.878 54.147 146.678 54.0576 146.531 53.9105C146.385 53.7634 146.303 53.5696 146.303 53.3683C146.303 53.167 146.385 52.9732 146.531 52.8261C146.678 52.679 146.878 52.5896 147.092 52.5759C147.202 52.5727 147.312 52.5936 147.412 52.6368C147.512 52.6799 147.6 52.7443 147.669 52.8248V51.972H147.966ZM147.669 53.3665C147.664 53.264 147.627 53.1653 147.562 53.0826C147.497 52.9999 147.408 52.9369 147.306 52.9013C147.203 52.8657 147.092 52.8591 146.986 52.8824C146.879 52.9057 146.782 52.9578 146.707 53.0323C146.632 53.1067 146.582 53.2003 146.563 53.3013C146.544 53.4023 146.557 53.5063 146.601 53.6004C146.644 53.6945 146.716 53.7745 146.808 53.8305C146.899 53.8865 147.006 53.9161 147.116 53.9155C147.191 53.9172 147.266 53.904 147.336 53.8769C147.406 53.8498 147.469 53.8092 147.521 53.7578C147.573 53.7065 147.613 53.6455 147.639 53.5787C147.664 53.5119 147.675 53.4409 147.669 53.3701V53.3665Z" fill="#263238"/>
<path d="M150.021 53.4653H148.684C148.702 53.5983 148.775 53.7195 148.886 53.804C148.997 53.8884 149.138 53.9296 149.28 53.9191C149.369 53.9221 149.458 53.907 149.54 53.8747C149.622 53.8425 149.696 53.794 149.756 53.7325L149.924 53.9118C149.802 54.028 149.646 54.1086 149.476 54.1437C149.307 54.1788 149.129 54.167 148.967 54.1097C148.804 54.0524 148.662 53.9521 148.558 53.8209C148.455 53.6896 148.394 53.5331 148.383 53.3701C148.379 53.2662 148.398 53.1625 148.438 53.0654C148.478 52.9684 148.539 52.8802 148.616 52.8061C148.694 52.732 148.787 52.6737 148.89 52.6347C148.993 52.5958 149.103 52.577 149.214 52.5796C149.326 52.5743 149.438 52.5918 149.542 52.6308C149.646 52.6697 149.74 52.7292 149.817 52.8053C149.894 52.8813 149.953 52.9721 149.99 53.0715C150.027 53.1709 150.04 53.2765 150.029 53.3811C150.028 53.4093 150.026 53.4374 150.021 53.4653ZM148.684 53.264H149.76C149.749 53.1398 149.688 53.0242 149.59 52.9399C149.492 52.8556 149.364 52.8089 149.232 52.8089C149.099 52.8089 148.971 52.8556 148.873 52.9399C148.775 53.0242 148.715 53.1398 148.703 53.264H148.684Z" fill="#263238"/>
</g>
<g opacity="0.5">
<path d="M133.77 57.3522C133.77 58.5051 133.08 59.12 132.07 59.12C131.758 59.1303 131.45 59.0621 131.176 58.9224L131.371 58.5564C131.582 58.669 131.823 58.7236 132.066 58.7137C132.795 58.7137 133.259 58.2855 133.259 57.4401V57.3229C133.139 57.4713 132.981 57.5895 132.8 57.6667C132.619 57.744 132.42 57.778 132.222 57.7658C132.068 57.7816 131.913 57.7671 131.765 57.7232C131.618 57.6793 131.482 57.6069 131.366 57.5107C131.251 57.4145 131.158 57.2967 131.093 57.1647C131.029 57.0328 130.995 56.8897 130.993 56.7447C130.997 56.5949 131.033 56.4475 131.1 56.3114C131.167 56.1753 131.262 56.0534 131.381 55.9533C131.5 55.8532 131.639 55.777 131.79 55.7293C131.942 55.6816 132.102 55.6634 132.261 55.6759C133.224 55.6686 133.77 56.2762 133.77 57.3522ZM133.134 56.73C133.134 56.3823 132.838 56.0785 132.276 56.0785C132.178 56.0688 132.079 56.0785 131.985 56.1069C131.891 56.1354 131.805 56.182 131.731 56.2437C131.658 56.3054 131.599 56.3809 131.559 56.4653C131.518 56.5497 131.497 56.6411 131.496 56.7337C131.496 57.129 131.808 57.3852 132.311 57.3852C132.412 57.3947 132.513 57.3852 132.609 57.3571C132.705 57.329 132.795 57.2831 132.871 57.2219C132.948 57.1607 133.011 57.0856 133.056 57.0011C133.101 56.9166 133.128 56.8244 133.134 56.73Z" fill="#263238"/>
<path d="M134.261 57.3961C134.261 56.2981 134.889 55.6686 135.732 55.6686C136.574 55.6686 137.194 56.2981 137.194 57.3961C137.194 58.4941 136.566 59.12 135.732 59.12C134.897 59.12 134.261 58.4941 134.261 57.3961ZM136.679 57.3961C136.679 56.5324 136.289 56.1005 135.732 56.1005C135.174 56.1005 134.776 56.5324 134.776 57.3961C134.776 58.2599 135.166 58.6918 135.732 58.6918C136.297 58.6918 136.679 58.2599 136.679 57.3961Z" fill="#263238"/>
<path d="M140.201 58.6625V59.0834H137.616V58.754L139.082 57.4291C139.472 57.0814 139.53 56.8691 139.53 56.6568C139.53 56.3128 139.269 56.1005 138.75 56.1005C138.578 56.091 138.405 56.119 138.246 56.1825C138.087 56.246 137.946 56.3432 137.834 56.4665L137.483 56.181C137.648 56.0096 137.851 55.8747 138.079 55.7861C138.306 55.6974 138.551 55.6573 138.797 55.6686C139.546 55.6686 140.03 56.0346 140.03 56.6092C140.024 56.8165 139.968 57.0198 139.866 57.2037C139.764 57.3876 139.618 57.5473 139.441 57.6706L138.341 58.6625H140.201Z" fill="#263238"/>
<path d="M141.738 55.7089V59.0834H141.227V56.1298H140.4V55.7089H141.738Z" fill="#263238"/>
<path d="M142.521 57.3961C142.521 56.2981 143.149 55.6686 143.992 55.6686C144.834 55.6686 145.454 56.2981 145.454 57.3961C145.454 58.4941 144.83 59.12 143.992 59.12C143.153 59.12 142.521 58.4941 142.521 57.3961ZM144.943 57.3961C144.943 56.5324 144.553 56.1005 143.992 56.1005C143.43 56.1005 143.036 56.5324 143.036 57.3961C143.036 58.2599 143.426 58.6918 143.992 58.6918C144.557 58.6918 144.943 58.2599 144.943 57.3961Z" fill="#263238"/>
</g>
<path d="M135.069 78.3569C137.397 79.8689 140.001 80.9668 142.752 81.596H142.779C142.573 81.5905 142.371 81.6441 142.198 81.7498C142.028 81.8492 141.893 81.9929 141.808 82.1633C141.78 82.2156 141.764 82.273 141.761 82.3317C141.824 81.5631 141.469 80.6993 141.219 79.8685C140.771 78.5546 140.244 77.2077 139.718 75.8864L141.223 75.1288C142.467 76.9186 146.621 82.5842 143.785 84.2239C143.299 84.49 142.725 84.5761 142.175 84.4655C139.085 84.036 136.139 82.9576 133.556 81.3106C133.376 81.1934 133.22 81.091 133.01 80.9446L135.077 78.3496L135.069 78.3569Z" fill="#DC897C"/>
<path d="M134.632 77.958C135.998 78.1125 137.294 78.6065 138.388 79.3891L136.828 83.9201C136.828 83.9201 129.246 77.3614 134.632 77.958Z" fill="#407BFF"/>
<path opacity="0.6" d="M134.616 81.7681C135.31 82.514 136.044 83.2262 136.816 83.9018L137.459 82.0389L138.388 79.3708C137.295 78.5888 136 78.0948 134.636 77.9397C131.321 77.592 132.904 79.9198 134.616 81.7681Z" fill="white"/>
<path opacity="0.2" d="M134.616 81.7681C135.31 82.514 136.044 83.2262 136.816 83.9018L137.459 82.0389C136.65 81.4472 135.654 81.1253 134.628 81.1239C134.605 81.3379 134.601 81.5534 134.616 81.7681Z" fill="black"/>
<path d="M117.78 71.2565C117.78 71.2565 114.153 82.5733 121.793 84.0922C129.433 85.6111 130.26 80.4029 130.26 80.4029C130.26 80.4029 123.981 71.4871 117.78 71.2565Z" fill="#263238"/>
<path d="M115.99 75.0044C115.976 75.0081 115.961 75.0081 115.947 75.0044C115.936 74.9994 115.926 74.9923 115.918 74.9836C115.91 74.9749 115.904 74.9647 115.901 74.9537C115.897 74.9428 115.896 74.9312 115.897 74.9198C115.898 74.9083 115.902 74.8973 115.908 74.8873C116.022 74.692 116.183 74.5242 116.378 74.3972C116.573 74.2702 116.796 74.1873 117.031 74.1553C117.056 74.156 117.079 74.1649 117.097 74.1803C117.115 74.1958 117.126 74.2168 117.129 74.2394C117.13 74.251 117.128 74.2626 117.125 74.2736C117.121 74.2847 117.115 74.2949 117.107 74.3038C117.099 74.3126 117.089 74.3199 117.078 74.3252C117.067 74.3305 117.055 74.3337 117.043 74.3346C116.84 74.3658 116.646 74.4399 116.478 74.5515C116.31 74.6632 116.171 74.8093 116.072 74.9788C116.062 74.9894 116.049 74.9974 116.035 75.0019C116.02 75.0064 116.005 75.0073 115.99 75.0044Z" fill="#263238"/>
<path d="M117.082 76.4098C117.033 76.8509 116.927 77.2848 116.766 77.7018C116.887 77.7695 117.025 77.8052 117.166 77.8052C117.307 77.8052 117.445 77.7695 117.566 77.7018L117.082 76.4098Z" fill="#DE5753"/>
<path d="M116.345 75.9157C116.427 76.117 116.61 76.2378 116.735 76.1866C116.86 76.1353 116.93 75.934 116.848 75.7327C116.766 75.5314 116.583 75.4106 116.458 75.4619C116.333 75.5131 116.267 75.7144 116.345 75.9157Z" fill="#263238"/>
<path d="M116.52 75.4509H115.986C115.986 75.4509 116.368 75.7291 116.52 75.4509Z" fill="#263238"/>
<path d="M124.11 77.8153C124.096 77.8481 124.078 77.8789 124.055 77.9068C124.02 77.969 123.981 78.0275 123.942 78.0898C123.713 78.4754 123.409 78.817 123.045 79.0963C121.875 79.971 120.857 80.2345 119.972 79.982L119.843 79.9417C118.529 79.4403 117.503 77.9653 116.688 76.0145C116.326 75.2511 116.098 74.4379 116.013 73.6063C116.013 73.6063 116.013 73.577 116.013 73.5697C116.013 73.5623 116.013 73.5038 116.013 73.4745C115.983 72.9979 116.08 72.5216 116.295 72.089C116.51 71.6563 116.837 71.2809 117.246 70.9967C117.595 70.7392 117.975 70.5194 118.377 70.3415C122.273 68.5591 126.064 74.3639 124.11 77.8153Z" fill="#E4897B"/>
<path opacity="0.2" d="M123.942 78.0898C123.713 78.4754 123.409 78.817 123.045 79.0963C121.875 79.971 120.857 80.2345 119.972 79.982C120.833 79.7862 121.608 79.3451 122.191 78.7193C122.416 78.5006 122.689 78.3308 122.992 78.2221C123.294 78.1133 123.619 78.0681 123.942 78.0898Z" fill="black"/>
<path d="M115.994 73.5843C115.994 73.5843 117.082 76.2707 120.26 76.2232C120.26 76.2232 122.741 78.4192 124.414 77.7201C126.695 76.7722 127.163 72.8779 124.839 70.1585C121.82 66.6303 115.237 69.174 115.994 73.5843Z" fill="#263238"/>
<path d="M118.56 76.0694C118.357 75.6632 118.361 74.8324 119.075 74.6274C119.789 74.4224 121.025 75.8462 119.488 76.9588C119.27 77.1199 118.981 76.9112 118.56 76.0694Z" fill="#E4897B"/>
<path d="M119.414 68.6945C119.414 68.6945 116.466 69.2399 115.514 70.8905C114.399 72.8084 114.344 74.2943 117.308 75.2825C117.308 75.2825 121.056 71.9885 122.67 71.6225C123.611 71.4034 124.57 71.259 125.537 71.1907C124.461 68.2663 120.603 67.4831 119.414 68.6945Z" fill="#263238"/>
<path d="M122.273 79.1658C122.273 79.1658 124.301 80.4834 124.827 82.6574L131.149 79.1951C131.149 79.1951 126.2 78.1373 125.35 76.3403C125.35 76.3403 122.043 76.7246 122.273 79.1658Z" fill="#E4897B"/>
<path d="M128.552 93.4215C128.552 93.4215 120.362 85.8709 119.48 83.4992C119.48 83.4992 122.924 78.4667 129.808 78.2545C136.691 78.0422 141.375 90.3325 141.375 90.3325L128.552 93.4215Z" fill="#407BFF"/>
<path opacity="0.6" d="M141.375 90.3361L128.556 93.4252C128.556 93.4252 126.77 91.7745 124.773 89.7652C124.157 89.1393 123.513 88.4805 122.893 87.829C121.267 86.0978 119.831 84.4069 119.484 83.4883C119.484 83.4883 122.924 78.4558 129.808 78.2435C136.691 78.0312 141.375 90.3361 141.375 90.3361Z" fill="white"/>
<path d="M120.9 74.9348C120.9 74.9348 122.097 78.668 126.301 79.9051C130.506 81.1422 129.449 85.1719 133.524 84.6961C135.693 84.4435 137.549 80.3041 130.9 76.6441C127.023 74.5176 128.528 67.527 120.299 68.1821C120.292 68.1858 122 72.9767 120.9 74.9348Z" fill="#263238"/>
<path d="M124.983 150.327L123.033 149.91C123.326 140.76 124.734 129.696 125.978 121.384C126.173 120.081 126.368 118.851 126.547 117.702C126.637 117.157 126.719 116.633 126.801 116.128C127.191 113.636 127.549 111.667 127.764 110.448C127.924 109.558 128.013 109.072 128.013 109.072L135.033 110.678L134.53 112.34L132.873 117.83L132.686 118.456L131.586 122.076L129.722 128.235C129.839 137.535 124.983 150.327 124.983 150.327Z" fill="#E4897B"/>
<path d="M141.675 148.797L139.678 148.702C138.157 138.864 137.518 126.559 137.241 118.006C137.202 116.681 137.167 115.444 137.14 114.316C137.14 114.262 137.14 114.207 137.14 114.152C137.089 111.923 137.065 110.151 137.054 109.028C137.054 108.149 137.054 107.67 137.054 107.67L144.257 108.113L143.949 110.931L143.497 115.067L143.407 115.879L143.095 118.697L142.252 126.27C144.093 135.42 141.675 148.797 141.675 148.797Z" fill="#E4897B"/>
<path d="M142.424 148.431C142.424 148.197 139.343 148.38 139.343 148.38C139.343 148.38 137.452 150.184 135.615 150.576C133.778 150.968 134.807 152.018 136.859 152.018H141.929C143.395 152.033 142.483 150.865 142.424 148.431Z" fill="#263238"/>
<path d="M137.455 149.05C137.411 149.012 137.38 148.962 137.367 148.907C137.353 148.852 137.358 148.795 137.381 148.742C137.393 148.701 137.414 148.663 137.442 148.63C137.47 148.597 137.505 148.569 137.545 148.548C137.764 148.465 138.002 148.439 138.235 148.475C137.986 148.351 137.767 148.201 137.756 148.047C137.756 147.948 137.818 147.868 137.958 147.805C138.02 147.779 138.086 147.766 138.153 147.766C138.221 147.766 138.287 147.779 138.348 147.805C138.766 147.97 139.023 148.644 139.035 148.669C139.043 148.688 139.043 148.709 139.035 148.728V148.746C139.027 148.754 139.018 148.76 139.008 148.764C138.61 148.956 138.18 149.079 137.736 149.13C137.635 149.137 137.535 149.108 137.455 149.05ZM137.627 148.684C137.606 148.694 137.587 148.708 137.572 148.725C137.556 148.742 137.544 148.761 137.537 148.783C137.506 148.896 137.537 148.925 137.537 148.936C137.685 149.05 138.247 148.889 138.707 148.709C138.357 148.606 137.983 148.596 137.627 148.68V148.684ZM138.017 147.952C137.974 147.952 137.904 148.007 137.908 148.047C137.908 148.175 138.356 148.413 138.809 148.563C138.708 148.31 138.523 148.093 138.282 147.945C138.243 147.927 138.2 147.919 138.157 147.919C138.113 147.919 138.069 147.927 138.029 147.945L138.017 147.952Z" fill="#263238"/>
<path d="M125.97 148.431C125.97 148.197 122.893 148.38 122.893 148.38C122.893 148.38 121.002 150.184 119.165 150.576C117.328 150.968 118.353 152.018 120.405 152.018H125.475C126.945 152.033 126.036 150.865 125.97 148.431Z" fill="#263238"/>
<path d="M121.005 149.05C120.962 149.011 120.931 148.962 120.918 148.907C120.905 148.852 120.909 148.795 120.931 148.742C120.943 148.701 120.964 148.663 120.992 148.63C121.02 148.597 121.055 148.569 121.095 148.548C121.313 148.465 121.552 148.44 121.785 148.475C121.536 148.351 121.317 148.201 121.309 148.047C121.309 147.949 121.376 147.869 121.508 147.805C121.57 147.779 121.636 147.766 121.703 147.766C121.771 147.766 121.837 147.779 121.898 147.805C122.316 147.97 122.573 148.644 122.585 148.669C122.589 148.678 122.592 148.688 122.592 148.698C122.592 148.709 122.589 148.719 122.585 148.728C122.585 148.728 122.585 148.728 122.585 148.746L122.557 148.764C122.158 148.955 121.727 149.079 121.282 149.13C121.183 149.135 121.084 149.107 121.005 149.05ZM121.177 148.684C121.156 148.694 121.138 148.708 121.123 148.725C121.108 148.742 121.097 148.762 121.091 148.783C121.06 148.896 121.091 148.925 121.11 148.936C121.255 149.05 121.816 148.889 122.28 148.709C121.923 148.602 121.54 148.591 121.177 148.68V148.684ZM121.567 147.952C121.524 147.952 121.454 148.007 121.458 148.047C121.458 148.175 121.906 148.413 122.362 148.563C122.26 148.309 122.074 148.093 121.832 147.945C121.793 147.927 121.75 147.918 121.707 147.919C121.663 147.919 121.619 147.927 121.578 147.945L121.567 147.952Z" fill="#263238"/>
<path d="M126.891 111.824L128.552 100.844V93.4142C132.932 90.3251 141.375 90.3251 141.375 90.3251C141.375 90.3251 147.861 98.7688 144.71 112.651L136.567 113.749L136.048 111.158L135.026 113.749L126.891 111.824Z" fill="#263238"/>
<path opacity="0.2" d="M126.891 111.824L128.552 100.844V93.4142C132.932 90.3251 141.375 90.3251 141.375 90.3251C141.375 90.3251 147.861 98.7688 144.71 112.651L136.567 113.749L136.048 111.158L135.026 113.749L126.891 111.824Z" fill="white"/>
<path opacity="0.2" d="M136.048 111.198L137.608 106.627C137.608 106.627 139.254 106.158 141.367 103.091C141.375 103.091 141.009 108.31 136.048 111.198Z" fill="black"/>
<path opacity="0.2" d="M132.577 95.526L136.231 95.2003C136.814 96.4824 137.016 97.8889 136.816 99.2702L134.476 100.591L132.779 99.4605C132.779 99.4605 132.725 96.5581 132.577 95.526Z" fill="black"/>
<path opacity="0.2" d="M141.375 94.6879C141.865 95.819 142.227 96.9955 142.455 98.1978L143.75 98.7139L144.448 97.8977C144.448 97.8977 143.976 95.5077 143.177 94.3365L141.375 94.6879Z" fill="black"/>
<path d="M126.738 111.198L135.381 113.577L134.838 114.668L126.629 112.296L126.738 111.198Z" fill="#263238"/>
<path d="M136.231 113.42L136.375 114.423L144.85 113.42L144.979 112.157L136.231 113.42Z" fill="#263238"/>
<path d="M138.009 91.866C139.395 91.6463 140.796 91.5179 142.202 91.4817L141.679 90.6729C140.312 90.639 138.945 90.7149 137.592 90.8998L138.009 91.866Z" fill="#263238"/>
<path d="M130.236 92.8615C129.117 93.3154 128.474 93.6557 128.474 93.6557V94.6549C129.103 94.3572 129.733 94.0852 130.365 93.8388L130.236 92.8615Z" fill="#263238"/>
<path d="M130.775 93.696C132.942 92.8984 135.191 92.311 137.487 91.9429L137.097 90.9693C134.872 91.3175 132.697 91.9045 130.615 92.7188L130.775 93.696Z" fill="#263238"/>
<path d="M107.343 96.5545L105.128 95.72L104.738 97.6818C104.738 97.6818 106.735 98.8163 107.57 97.4658L107.343 96.5545Z" fill="#E4897B"/>
<path d="M104.029 95.8408L103.319 97.356L104.754 97.6818L105.128 95.72L104.029 95.8408Z" fill="#E4897B"/>
<path d="M141.34 75.4692L141.078 73.2439L139.058 73.8588C139.058 73.8588 138.933 76.0548 140.599 76.0987L141.34 75.4692Z" fill="#E4897B"/>
<path d="M140.443 72.3911L138.684 72.5229L139.058 73.8588L141.079 73.2439L140.443 72.3911Z" fill="#E4897B"/>
<path opacity="0.2" d="M124.773 89.7761C124.157 89.1503 123.513 88.4915 122.893 87.84C122.655 86.4785 122.503 85.278 122.503 85.278C123.246 85.7952 123.841 86.4761 124.237 87.2606C124.633 88.0451 124.817 88.9091 124.773 89.7761Z" fill="black"/>
<path d="M122.729 84.6485C121.836 88.0283 120.487 91.2876 118.716 94.3475C116.961 97.4768 110.288 97.8537 106.934 97.9343L106.778 96.3385C108.799 95.892 115.078 94.7171 115.936 93.0079C117.336 90.0466 118.489 86.9873 119.383 83.8579L122.729 84.6411V84.6485Z" fill="#DC897C"/>
<path d="M120.818 81.8888C118.911 83.06 117.889 86.1052 117.565 87.5948L121.528 90.3325L123.529 88.5025C124.34 84.3008 121.543 81.446 120.818 81.8888Z" fill="#407BFF"/>
<path opacity="0.6" d="M120.818 81.8888C118.911 83.06 117.889 86.1052 117.565 87.5948L121.528 90.3325L123.529 88.5025C124.34 84.3008 121.543 81.446 120.818 81.8888Z" fill="white"/>
<path d="M140.162 76.1829L137.331 76.4684C137.291 76.4694 137.251 76.4627 137.214 76.4487C137.177 76.4346 137.143 76.4135 137.116 76.3867C137.088 76.3598 137.066 76.3279 137.052 76.2928C137.038 76.2577 137.032 76.2203 137.034 76.1829L136.863 70.5575C136.857 70.478 136.883 70.3993 136.934 70.336C136.986 70.2728 137.06 70.2292 137.143 70.2134L139.971 69.9316C140.011 69.93 140.051 69.9363 140.088 69.9502C140.125 69.964 140.159 69.9851 140.187 70.0121C140.215 70.039 140.237 70.0712 140.251 70.1066C140.264 70.1419 140.27 70.1796 140.267 70.2171L140.439 75.8425C140.444 75.9211 140.419 75.9988 140.368 76.0614C140.317 76.124 140.244 76.1671 140.162 76.1829Z" fill="#263238"/>
<path opacity="0.6" d="M140.162 76.1829L137.331 76.4684C137.291 76.4694 137.251 76.4627 137.214 76.4487C137.177 76.4346 137.143 76.4135 137.116 76.3867C137.088 76.3598 137.066 76.3279 137.052 76.2928C137.038 76.2577 137.032 76.2203 137.034 76.1829L136.863 70.5575C136.857 70.478 136.883 70.3993 136.934 70.336C136.986 70.2728 137.06 70.2292 137.143 70.2134L139.971 69.9316C140.011 69.93 140.051 69.9363 140.088 69.9502C140.125 69.964 140.159 69.9851 140.187 70.0121C140.215 70.039 140.237 70.0712 140.251 70.1066C140.264 70.1419 140.27 70.1796 140.267 70.2171L140.439 75.8425C140.444 75.9211 140.419 75.9988 140.368 76.0614C140.317 76.124 140.244 76.1671 140.162 76.1829Z" fill="white"/>
<path d="M139.912 76.2085L137.085 76.4903C137.045 76.4925 137.005 76.4866 136.967 76.4732C136.93 76.4598 136.896 76.4391 136.868 76.4125C136.839 76.3859 136.817 76.354 136.803 76.3188C136.789 76.2837 136.782 76.2461 136.785 76.2085L136.617 70.5794C136.61 70.5006 136.634 70.422 136.685 70.359C136.737 70.2961 136.811 70.2533 136.894 70.2391L139.721 69.9572C139.761 69.9557 139.801 69.9619 139.838 69.9755C139.875 69.9892 139.908 70.0099 139.936 70.0365C139.964 70.063 139.986 70.0948 140 70.1297C140.014 70.1646 140.02 70.2018 140.018 70.2391L140.189 75.8681C140.197 75.947 140.172 76.0256 140.121 76.0885C140.07 76.1515 139.995 76.1943 139.912 76.2085Z" fill="#263238"/>
<path opacity="0.7" d="M139.912 76.2085L137.085 76.4903C137.045 76.4925 137.005 76.4866 136.967 76.4732C136.93 76.4598 136.896 76.4391 136.868 76.4125C136.839 76.3859 136.817 76.354 136.803 76.3188C136.789 76.2837 136.782 76.2461 136.785 76.2085L136.617 70.5794C136.61 70.5006 136.634 70.422 136.685 70.359C136.737 70.2961 136.811 70.2533 136.894 70.2391L139.721 69.9572C139.761 69.9557 139.801 69.9619 139.838 69.9755C139.875 69.9892 139.908 70.0099 139.936 70.0365C139.964 70.063 139.986 70.0948 140 70.1297C140.014 70.1646 140.02 70.2018 140.018 70.2391L140.189 75.8681C140.197 75.947 140.172 76.0256 140.121 76.0885C140.07 76.1515 139.995 76.1943 139.912 76.2085Z" fill="white"/>
<path d="M139.725 70.067L138.984 70.1402L138.891 70.3562L137.744 70.4696L137.639 70.2757L136.898 70.3489C136.844 70.3594 136.796 70.3878 136.763 70.4289C136.73 70.4699 136.714 70.5208 136.718 70.5721L136.886 76.1975C136.884 76.222 136.888 76.2465 136.897 76.2694C136.907 76.2924 136.921 76.3132 136.939 76.3305C136.958 76.3479 136.98 76.3613 137.004 76.3699C137.029 76.3785 137.055 76.3822 137.081 76.3805L139.909 76.0987C139.962 76.089 140.01 76.0613 140.043 76.0208C140.076 75.9804 140.092 75.93 140.088 75.8791L139.92 70.25C139.921 70.2257 139.917 70.2015 139.908 70.1788C139.898 70.1561 139.884 70.1355 139.866 70.1183C139.847 70.1011 139.825 70.0877 139.801 70.0789C139.777 70.07 139.751 70.066 139.725 70.067Z" fill="#407BFF"/>
<path opacity="0.8" d="M139.347 72.102L137.268 72.3106C137.243 72.3117 137.217 72.3077 137.194 72.2991C137.17 72.2904 137.149 72.2773 137.131 72.2604C137.113 72.2435 137.099 72.2233 137.089 72.2011C137.08 72.1789 137.076 72.1551 137.077 72.1313V71.5896C137.072 71.5391 137.087 71.4887 137.12 71.4482C137.152 71.4076 137.2 71.3798 137.253 71.37L139.335 71.1614C139.361 71.1608 139.386 71.1652 139.409 71.1743C139.433 71.1834 139.454 71.197 139.472 71.2142C139.489 71.2314 139.503 71.2519 139.512 71.2743C139.52 71.2967 139.524 71.3206 139.522 71.3444L139.542 71.8861C139.545 71.9387 139.527 71.9905 139.49 72.0307C139.454 72.0709 139.403 72.0964 139.347 72.102Z" fill="white"/>
</svg>
