<svg width="73" height="64" viewBox="0 0 73 64" fill="none" xmlns="http://www.w3.org/2000/svg">
<path d="M65.6856 51.0067H60.8501V51.0387H65.6856V51.0067Z" fill="#EBEBEB"/>
<path d="M48.3581 51.3549H47.0894V51.3869H48.3581V51.3549Z" fill="#EBEBEB"/>
<path d="M60.7041 49.8189H57.9023V49.8509H60.7041V49.8189Z" fill="#EBEBEB"/>
<path d="M13.9649 50.0339H7.65918V50.0659H13.9649V50.0339Z" fill="#EBEBEB"/>
<path d="M16.1898 50.0339H15.2656V50.0659H16.1898V50.0339Z" fill="#EBEBEB"/>
<path d="M32.8721 50.5741H19.1948V50.6061H32.8721V50.5741Z" fill="#EBEBEB"/>
<path d="M34.602 43.2384H6.41081C6.18997 43.2381 5.9783 43.1609 5.82227 43.0239C5.66624 42.8869 5.57861 42.7011 5.57861 42.5075V7.76449C5.58054 7.57198 5.66902 7.38791 5.82483 7.25226C5.98065 7.11661 6.19122 7.04034 6.41081 7.04001H34.602C34.8231 7.04001 35.0351 7.11701 35.1914 7.25408C35.3478 7.39114 35.4356 7.57705 35.4356 7.77089V42.5075C35.4356 42.7014 35.3478 42.8873 35.1914 43.0243C35.0351 43.1614 34.8231 43.2384 34.602 43.2384ZM6.41081 7.06561C6.19965 7.06595 5.99726 7.13973 5.84808 7.27076C5.6989 7.40179 5.61511 7.57936 5.61511 7.76449V42.5075C5.61511 42.6927 5.6989 42.8702 5.84808 43.0013C5.99726 43.1323 6.19965 43.2061 6.41081 43.2064H34.602C34.8133 43.2061 35.0158 43.1323 35.1652 43.0013C35.3146 42.8703 35.3987 42.6928 35.3991 42.5075V7.76449C35.3987 7.57924 35.3146 7.40167 35.1652 7.27068C35.0158 7.13969 34.8133 7.06595 34.602 7.06561H6.41081Z" fill="#EBEBEB"/>
<path d="M66.1835 43.2384H37.9909C37.7699 43.2381 37.5581 43.161 37.4018 43.024C37.2456 42.887 37.1576 42.7013 37.1572 42.5075V7.76449C37.1595 7.57186 37.2483 7.38779 37.4044 7.25218C37.5604 7.11657 37.7712 7.04033 37.9909 7.04001H66.1835C66.4028 7.04067 66.613 7.1171 66.7685 7.25271C66.924 7.38832 67.0123 7.5722 67.0142 7.76449V42.5075C67.0142 42.7009 66.9268 42.8864 66.7711 43.0234C66.6154 43.1604 66.4041 43.2377 66.1835 43.2384ZM37.9909 7.06561C37.7796 7.06595 37.577 7.13969 37.4276 7.27068C37.2782 7.40167 37.1941 7.57924 37.1937 7.76449V42.5075C37.1941 42.6928 37.2782 42.8703 37.4276 43.0013C37.577 43.1323 37.7796 43.2061 37.9909 43.2064H66.1835C66.3948 43.2061 66.5973 43.1323 66.7467 43.0013C66.8961 42.8703 66.9803 42.6928 66.9806 42.5075V7.76449C66.9803 7.57924 66.8961 7.40167 66.7467 7.27068C66.5973 7.13969 66.3948 7.06595 66.1835 7.06561H37.9909Z" fill="#EBEBEB"/>
<path d="M73 48.9472H0V48.9792H73V48.9472Z" fill="#EBEBEB"/>
<path d="M44.2863 23.9859H39.6683C39.4764 23.9859 39.3208 24.1223 39.3208 24.2906V27.1079C39.3208 27.2761 39.4764 27.4125 39.6683 27.4125H44.2863C44.4782 27.4125 44.6337 27.2761 44.6337 27.1079V24.2906C44.6337 24.1223 44.4782 23.9859 44.2863 23.9859Z" fill="#E0E0E0"/>
<path d="M42.1005 24.2816H39.7104V25.4439H42.1005V24.2816Z" fill="#EBEBEB"/>
<path d="M40.1631 25.7958H39.7104V26.0147H40.1631V25.7958Z" fill="#EBEBEB"/>
<path d="M40.1631 26.1632H39.7104V26.3821H40.1631V26.1632Z" fill="#EBEBEB"/>
<path d="M40.1631 26.5306H39.7104V26.7495H40.1631V26.5306Z" fill="#EBEBEB"/>
<path d="M40.1631 26.8979H39.7104V27.1168H40.1631V26.8979Z" fill="#EBEBEB"/>
<path d="M40.81 25.7958H40.3574V26.0147H40.81V25.7958Z" fill="#EBEBEB"/>
<path d="M40.81 26.1632H40.3574V26.3821H40.81V26.1632Z" fill="#EBEBEB"/>
<path d="M40.81 26.5306H40.3574V26.7495H40.81V26.5306Z" fill="#EBEBEB"/>
<path d="M40.81 26.8979H40.3574V27.1168H40.81V26.8979Z" fill="#EBEBEB"/>
<path d="M41.455 25.7958H41.0024V26.0147H41.455V25.7958Z" fill="#EBEBEB"/>
<path d="M41.455 26.1632H41.0024V26.3821H41.455V26.1632Z" fill="#EBEBEB"/>
<path d="M41.455 26.5306H41.0024V26.7495H41.455V26.5306Z" fill="#EBEBEB"/>
<path d="M41.455 26.8979H41.0024V27.1168H41.455V26.8979Z" fill="#EBEBEB"/>
<path d="M42.1005 25.7958H41.6479V26.0147H42.1005V25.7958Z" fill="#EBEBEB"/>
<path d="M42.1005 26.1632H41.6479V26.3821H42.1005V26.1632Z" fill="#EBEBEB"/>
<path d="M42.1005 26.5306H41.6479V26.7495H42.1005V26.5306Z" fill="#EBEBEB"/>
<path d="M42.1005 26.8979H41.6479V27.1168H42.1005V26.8979Z" fill="#EBEBEB"/>
<path d="M44.2598 23.9859H42.9575V27.1168H44.2598V23.9859Z" fill="#F0F0F0"/>
<path d="M44.2598 24.8627H42.9575V26.1645H44.2598V24.8627Z" fill="#E6E6E6"/>
<path d="M42.9575 26.1632L43.2057 25.4438H44.0788L44.2598 26.1632H42.9575Z" fill="#E0E0E0"/>
<path d="M64.8078 10.3091V49.024H55.42L55.4375 48.96H63.4106V11.4035H46.8381V48.96H51.9671L55.42 49.024H45.5898V10.3091H64.8078Z" fill="#646568"/>
<path d="M63.4108 11.4035V48.96H55.4378L55.4203 49.024L51.9674 48.96H46.8384V11.4035H63.4108Z" fill="#F0F0F0"/>
<path d="M63.4108 11.4035H46.8384V48.9613H63.4108V11.4035Z" fill="#F5F5F5"/>
<path d="M63.4108 11.4035V21.5411L55.4377 48.96L55.4202 49.024L51.9673 48.96L63.0312 11.4035H63.4108Z" fill="white"/>
<path d="M48.7816 26.217H46.8384V31.8247H48.7816V26.217Z" fill="white"/>
<path d="M57.9023 11.4035L46.8384 48.9613L50.2898 49.024L61.2296 11.4035H57.9023Z" fill="white"/>
<path d="M38.1367 43.9846C38.1313 43.9848 38.1258 43.984 38.1207 43.9823C38.1155 43.9806 38.1108 43.9779 38.1069 43.9746C38.1029 43.9713 38.0998 43.9672 38.0977 43.9628C38.0955 43.9584 38.0944 43.9536 38.0944 43.9488C37.9659 40.6131 39.1252 39.3408 39.1369 39.328C39.144 39.3204 39.1543 39.3155 39.1656 39.3146C39.1768 39.3136 39.188 39.3166 39.1967 39.3229C39.2054 39.3292 39.2109 39.3382 39.212 39.3481C39.2131 39.3579 39.2097 39.3677 39.2026 39.3754C39.1909 39.3869 38.0521 40.6426 38.1806 43.9462C38.181 43.9512 38.1802 43.9561 38.1783 43.9607C38.1764 43.9654 38.1735 43.9696 38.1697 43.9733C38.1658 43.9769 38.1612 43.9797 38.156 43.9817C38.1509 43.9836 38.1453 43.9847 38.1397 43.9846H38.1367Z" fill="#E0E0E0"/>
<path d="M38.6783 43.9846C38.6728 43.9842 38.6674 43.9827 38.6624 43.9804C38.6575 43.9781 38.6531 43.9749 38.6496 43.9711C38.6461 43.9673 38.6435 43.9629 38.6419 43.9582C38.6403 43.9535 38.6398 43.9486 38.6404 43.9437C38.7426 42.9683 39.1412 42.2234 39.8274 41.7293C40.8961 40.9613 42.3094 41.0778 42.3225 41.079C42.3281 41.0795 42.3335 41.081 42.3384 41.0833C42.3433 41.0856 42.3477 41.0888 42.3512 41.0926C42.3548 41.0964 42.3574 41.1008 42.359 41.1055C42.3606 41.1102 42.3611 41.1151 42.3605 41.12C42.3599 41.1249 42.3583 41.1296 42.3556 41.1339C42.353 41.1383 42.3494 41.1421 42.345 41.1452C42.3407 41.1483 42.3357 41.1506 42.3303 41.152C42.3249 41.1534 42.3193 41.1538 42.3137 41.1533C42.3006 41.1533 40.9224 41.0368 39.8799 41.7869C39.2127 42.2682 38.8243 42.9965 38.7251 43.9514C38.7247 43.9563 38.7232 43.9611 38.7206 43.9656C38.718 43.97 38.7144 43.9739 38.71 43.977C38.7056 43.9801 38.7006 43.9824 38.6951 43.9837C38.6897 43.985 38.6839 43.9854 38.6783 43.9846Z" fill="#E0E0E0"/>
<path d="M41.4347 41.0995C41.2289 40.736 39.5207 40.4877 40.4989 39.6992C41.4771 38.9107 41.4727 40.6016 41.9078 40.5952C42.5166 40.5862 42.3983 38.3245 43.4028 38.9082C44.4073 39.4918 42.4115 40.4147 42.7312 40.8282C43.0232 41.2122 44.7971 39.9706 44.8365 40.7296C44.876 41.4886 42.9488 40.9267 42.8247 41.3837C42.7298 41.7408 44.6292 42.0646 43.7868 42.5818C42.9444 43.0989 42.6743 41.5309 42.21 41.632C41.8581 41.7088 42.3283 42.9965 41.6187 42.7955C40.9091 42.5946 41.6523 41.4822 41.4347 41.0995Z" fill="#F0F0F0"/>
<path d="M37.4899 44.4006C37.4793 44.4004 37.4691 44.3967 37.4613 44.3904C37.4535 44.384 37.4487 44.3754 37.4476 44.3661C37.1089 41.472 35.6241 39.6928 35.6051 39.68C35.5975 39.6729 35.5933 39.6635 35.5933 39.6538C35.5933 39.644 35.5975 39.6346 35.6051 39.6275C35.6096 39.6245 35.6147 39.6223 35.6201 39.6211C35.6256 39.6199 35.6313 39.6196 35.6369 39.6203C35.6424 39.621 35.6478 39.6227 35.6526 39.6253C35.6574 39.6278 35.6616 39.6312 35.6649 39.6352C35.681 39.6531 37.1833 41.4413 37.525 44.3635C37.5256 44.3684 37.5251 44.3733 37.5235 44.378C37.5219 44.3827 37.5193 44.3871 37.5158 44.3909C37.5122 44.3947 37.5079 44.3979 37.5029 44.4002C37.498 44.4026 37.4926 44.404 37.487 44.4045L37.4899 44.4006Z" fill="#E0E0E0"/>
<path d="M36.005 40.7757C35.4896 41.152 35.6604 43.3434 34.0676 42.4C32.4747 41.4566 35.1859 40.896 35.0399 40.361C34.8224 39.6109 31.2293 40.512 31.8279 39.081C32.4265 37.6499 34.5786 39.8042 35.1436 39.2691C35.6619 38.7789 33.0762 37.0035 34.2822 36.7014C35.4881 36.3994 35.2283 38.967 36.005 38.967C36.6094 38.967 36.497 36.5133 37.611 37.3811C38.725 38.249 36.297 39.1053 36.6109 39.6442C36.8532 40.0538 38.7644 39.0426 38.6782 39.9872C38.5921 40.9318 36.5466 40.3814 36.005 40.7757Z" fill="#E6E6E6"/>
<path d="M40.0301 47.2487L40.379 43.648H35.4048L35.7552 47.2512C35.8006 47.7208 36.0454 48.1583 36.4413 48.4772C36.8371 48.796 37.3551 48.9729 37.8926 48.9728C38.4306 48.9728 38.949 48.7956 39.3449 48.4762C39.7408 48.1569 39.9854 47.7187 40.0301 47.2487Z" fill="#F5F5F5"/>
<path d="M38.826 40.4736C39.3414 40.8499 39.1706 43.0413 40.7634 42.0979C42.3563 41.1546 39.6392 40.5939 39.7954 40.0589C40.013 39.3088 43.606 40.2099 43.0074 38.7789C42.4088 37.3479 40.2568 39.5021 39.6918 38.9671C39.172 38.4768 41.7591 36.7015 40.5532 36.3994C39.3472 36.0973 39.6071 38.665 38.8304 38.665C38.2259 38.665 38.3384 36.2112 37.2244 37.0791C36.1104 37.9469 38.5384 38.8032 38.2245 39.3421C37.9821 39.7517 36.071 38.7405 36.1571 39.6851C36.2433 40.6298 38.2843 40.0794 38.826 40.4736Z" fill="#F5F5F5"/>
<path d="M25.7761 31.232H5.6792V48.8512H25.7761V31.232Z" fill="#646568"/>
<path d="M24.3952 32.5798H7.2168V48.8192H24.3952V32.5798Z" fill="#FAFAFA"/>
<path d="M8.83303 39.3306H8.25195V41.1763H8.83303V39.3306Z" fill="#E6E6E6"/>
<path d="M8.54251 38.473H7.96143V42.0992H8.54251V38.473Z" fill="white"/>
<path d="M8.83159 38.473H7.96143V39.0234H8.83159V38.473Z" fill="white"/>
<path d="M8.83159 41.5475H7.96143V42.0979H8.83159V41.5475Z" fill="white"/>
<path d="M36.4998 54.6573C52.1339 54.6573 64.8078 54.0086 64.8078 53.2083C64.8078 52.4081 52.1339 51.7594 36.4998 51.7594C20.8658 51.7594 8.19189 52.4081 8.19189 53.2083C8.19189 54.0086 20.8658 54.6573 36.4998 54.6573Z" fill="#646568"/>
<path d="M60.2237 21.9379C60.1478 22.1364 60.017 22.3153 59.843 22.4587C59.669 22.6021 59.4572 22.7055 59.2265 22.7597H59.2192C59.0178 22.8038 58.8135 22.8371 58.6075 22.8595L58.5068 22.871C57.8089 22.9427 57.0935 22.9286 56.3941 23.0169L56.289 23.031C55.9418 23.0926 55.59 23.1328 55.2364 23.1513C55.1574 23.1526 55.0785 23.1501 54.9998 23.1437C54.6871 23.13 54.3877 23.0286 54.1457 22.8544C53.8377 22.6137 53.7077 22.2553 53.6274 21.8944C53.8377 21.8381 54.0708 21.7736 54.3268 21.7011C56.1839 21.1661 54.1574 20.2701 54.8144 18.839C55.7328 16.8371 59.4864 16.9779 59.4222 18.3437C60.5975 18.6009 60.7654 20.5734 60.2237 21.9379Z" fill="#263238"/>
<path d="M55.0524 19.5392C54.9662 19.8515 54.9385 20.1792 54.81 20.4787C54.6815 20.7782 54.4231 21.065 54.064 21.129C54.6042 21.3389 55.2728 21.1072 55.6378 20.7002C56.0028 20.2931 56.1196 19.7517 56.1313 19.232C56.1313 19.1117 56.1561 18.967 56.0598 18.8826C55.3692 18.281 55.1371 19.2269 55.0524 19.5392Z" fill="#263238"/>
<path d="M54.5325 24.8845L54.3865 24.9997L54.2712 25.0893C54.1865 25.1558 54.1033 25.2173 54.0172 25.2762C53.8463 25.3952 53.6741 25.5142 53.4974 25.6243C53.4609 25.6461 53.4244 25.6691 53.3894 25.6883C53.3546 25.7112 53.3186 25.7326 53.2813 25.7523L53.1952 25.8035C52.9295 25.9571 52.6608 26.1005 52.3849 26.2362C52.1844 26.3326 51.9814 26.4222 51.7761 26.505C51.5833 26.5843 51.3862 26.6573 51.1921 26.7238L50.8796 26.8224C50.773 26.8544 50.6665 26.88 50.5628 26.9107L50.4022 26.953L50.2285 26.9913C50.1146 27.0144 49.9993 27.0374 49.8883 27.0528C49.0208 27.1628 48.1404 27.1706 47.2705 27.0758C46.8471 27.0361 46.4266 26.9811 46.012 26.9184C45.72 26.8736 45.428 26.8211 45.136 26.7584C45.0148 26.7341 44.8922 26.7059 44.7695 26.6765L44.8966 26.103L45.2469 26.1299C45.5389 26.1504 45.8237 26.1696 46.1098 26.1811C46.5142 26.1977 46.9186 26.217 47.3216 26.217C48.1019 26.2314 48.8817 26.1718 49.6474 26.039C49.7364 26.0211 49.824 25.9993 49.9102 25.9776L50.0357 25.9417L50.1701 25.897C50.2577 25.8662 50.3453 25.8432 50.4387 25.8061L50.6971 25.7037C51.0466 25.5618 51.3877 25.4046 51.7191 25.2326C51.9483 25.1136 52.1746 24.9856 52.3966 24.8486L52.5294 24.7667C52.5557 24.7514 52.5834 24.7347 52.6097 24.7168L52.6944 24.6643L52.7207 24.6477C52.8667 24.5542 53.0127 24.4544 53.1587 24.3546L53.3806 24.1933L53.5865 24.0371L54.2785 24.6617L54.5325 24.8845Z" fill="#FFC3BD"/>
<path d="M45.3961 26.1696L44.0923 25.815L44.3303 26.9517C44.3303 26.9517 45.0281 26.9517 45.361 26.5946L45.3961 26.1696Z" fill="#FFC3BD"/>
<path d="M43.1826 26.048L43.4308 26.7878L44.3331 26.9517L44.0951 25.815L43.1826 26.048Z" fill="#FFC3BD"/>
<path d="M44.2092 26.135C44.0706 25.9349 43.9945 25.7062 43.9888 25.472C44.0019 25.1674 44.199 25.1891 44.199 25.1891C44.199 25.1891 44.1625 25.5514 44.7027 26.1619L44.7158 26.1786L44.2092 26.135Z" fill="#FFC3BD"/>
<path d="M55.4804 24.576C55.368 24.8729 54.946 25.1507 54.5036 25.3696C54.1653 25.5346 53.814 25.6783 53.4524 25.7997L53.3342 25.8381L53.2816 25.7587L52.6173 24.7283L52.5078 24.5581L52.6042 24.4723C53.0508 24.0798 53.5397 23.7261 54.0642 23.4163C54.3386 23.2704 54.5927 23.1821 54.7664 23.2179C55.5621 23.3702 55.7052 23.9923 55.4804 24.576Z" fill="#407BFF"/>
<path opacity="0.3" d="M55.4804 24.576C55.368 24.8729 54.946 25.1507 54.5036 25.3696C54.1653 25.5346 53.814 25.6783 53.4524 25.7997L53.3342 25.8381L53.2816 25.7587L52.6173 24.7283L52.5078 24.5581L52.6042 24.4723C53.0508 24.0798 53.5397 23.7261 54.0642 23.4163C54.3386 23.2704 54.5927 23.1821 54.7664 23.2179C55.5621 23.3702 55.7052 23.9923 55.4804 24.576Z" fill="black"/>
<path d="M53.4568 25.7933C53.4644 25.8158 53.4627 25.8399 53.452 25.8615C53.4413 25.883 53.4223 25.9005 53.3983 25.911C53.3724 25.9229 53.3424 25.9259 53.3141 25.9195C53.2858 25.9132 53.2612 25.8978 53.245 25.8765L53.1998 25.8035L52.5413 24.7718L52.4245 24.5888C52.417 24.577 52.4122 24.5641 52.4105 24.5507C52.4087 24.5373 52.4099 24.5237 52.4141 24.5108C52.4183 24.4978 52.4254 24.4857 52.435 24.4752C52.4445 24.4646 52.4563 24.4558 52.4698 24.4493C52.479 24.4448 52.4888 24.4413 52.499 24.439C52.5181 24.4354 52.538 24.436 52.5568 24.4407C52.5757 24.4453 52.5929 24.454 52.607 24.4659C52.615 24.4728 52.6219 24.4805 52.6275 24.4889L52.7311 24.6528L53.3925 25.6883L53.448 25.7753C53.4502 25.7815 53.4532 25.7876 53.4568 25.7933Z" fill="#407BFF"/>
<path d="M60.5901 23.0822C61.0559 23.2704 61.1128 23.3779 61.0398 23.6736C60.8938 24.2458 60.7799 24.7526 60.6836 25.2096C60.6602 25.3197 60.6383 25.4272 60.6164 25.5309C60.6164 25.5501 60.6091 25.5693 60.6047 25.5898C60.6047 25.6102 60.596 25.6282 60.5916 25.6474C60.5872 25.6666 60.5799 25.7088 60.5726 25.7382C60.1127 26.6675 59.9244 27.7978 60.0426 29.463C60.0528 29.591 60.0543 29.719 60.0616 29.847H59.5856H58.0234H57.7855L55.9605 29.8573H55.7239H55.2056C55.1925 29.7856 55.1794 29.7178 55.1662 29.6486C55.0319 28.9523 54.9209 28.329 54.8275 27.776C54.7749 27.4598 54.7268 27.1654 54.6815 26.8928C54.6815 26.8928 53.9019 26.0493 54.1866 25.5322C54.3545 25.2288 54.4318 23.3728 54.461 23.2922C54.4902 23.2115 54.5151 23.2128 54.5151 23.2128C54.6611 23.1859 54.8071 23.159 54.9458 23.136C55.3711 23.0601 55.7984 22.9969 56.2276 22.9466C56.3736 22.9286 56.5269 22.912 56.6773 22.8979C57.2679 22.8572 57.8606 22.8452 58.4527 22.8621C58.4906 22.8621 58.5257 22.8621 58.5636 22.8621C58.7096 22.8621 58.8556 22.8723 59.0016 22.88C59.1739 22.8877 59.3462 22.9005 59.517 22.9133C59.7463 22.9238 59.9749 22.9448 60.2018 22.976L60.5901 23.0822Z" fill="#407BFF"/>
<path d="M58.1916 20.6259C58.069 21.2851 57.9697 22.4896 58.5099 22.9107C58.5099 22.9107 58.2325 24.3315 56.8659 24.5466C56.206 24.4006 56.1885 22.9811 56.1885 22.9811C57.009 22.7802 56.7345 22.0608 56.7929 21.3325L58.1916 20.6259Z" fill="#FFC3BD"/>
<path opacity="0.2" d="M56.6323 20.6259C56.7783 21.1482 56.9243 22.0237 56.7141 22.583C57.1521 22.5024 57.8003 22.199 57.8908 21.8598C57.9174 21.6306 57.9227 21.3999 57.9069 21.1699L56.6323 20.6259Z" fill="black"/>
<path d="M59.1815 19.7645C59.0165 20.8512 58.9741 21.3145 58.3055 21.8355C57.2922 22.6201 55.8059 22.2054 55.5957 21.0995C55.4059 20.1011 55.7052 18.4921 56.9593 18.1325C57.2352 18.0527 57.5298 18.0359 57.8152 18.0837C58.1005 18.1315 58.3673 18.2423 58.5902 18.4057C58.813 18.5691 58.9847 18.7796 59.089 19.0174C59.1932 19.2551 59.2265 19.5123 59.1858 19.7645H59.1815Z" fill="#FFC3BD"/>
<path d="M58.8837 18.4627C58.1201 19.1961 55.6951 19.3331 55.3271 19.1309C56.0717 18.2208 57.2251 17.7062 57.8748 17.8253C58.2902 17.9196 58.6502 18.1471 58.8837 18.4627Z" fill="#263238"/>
<path d="M59.4024 18.3424H59.3924L59.3726 18.3663L59.4024 18.3424Z" fill="#263238"/>
<path d="M59.4223 18.3257L59.4004 18.3424C59.4054 18.3415 59.41 18.3395 59.4139 18.3366C59.4177 18.3337 59.4206 18.3299 59.4223 18.3257Z" fill="#263238"/>
<path d="M59.393 18.3424V18.3347L59.3726 18.3424C59.3726 18.3424 59.3886 18.3424 59.393 18.3424Z" fill="#263238"/>
<path d="M59.4763 17.623C59.5377 17.7368 59.5629 17.8629 59.5493 17.9882C59.5356 18.1135 59.4837 18.2332 59.3989 18.3347C59.4772 18.3073 59.5453 18.2615 59.5958 18.2024C59.6464 18.1433 59.6773 18.0731 59.6853 17.9996C59.6933 17.926 59.6781 17.852 59.6412 17.7855C59.6043 17.7191 59.5473 17.6629 59.4763 17.623Z" fill="#263238"/>
<path d="M59.5447 20.8358C59.478 20.924 59.3921 20.9997 59.2919 21.0585C59.1916 21.1174 59.0791 21.1583 58.9607 21.1789C58.6454 21.2314 58.514 20.9805 58.6235 20.7322C58.7213 20.5069 59.0045 20.2202 59.3082 20.2675C59.4143 20.29 59.506 20.3484 59.5632 20.4299C59.6204 20.5115 59.6384 20.6095 59.6134 20.7027C59.6009 20.7507 59.5775 20.7959 59.5447 20.8358Z" fill="#FFC3BD"/>
<path d="M58.4264 18.5472C58.2395 18.7405 58.2585 19.0169 58.2629 19.2704C58.2746 20.0128 58.3753 20.9446 57.7285 21.2697C58.4936 21.0829 59.1053 20.7667 59.4951 20.16C59.8032 19.68 59.7871 19.392 59.5535 18.88C59.3783 18.4934 58.8513 18.112 58.4264 18.5472Z" fill="#263238"/>
<path opacity="0.1" d="M59.5332 23.8246C59.5332 23.8246 59.4806 25.8201 59.6792 26.7046C59.8777 27.5891 60.0339 27.3689 60.0339 27.3689C60.0339 27.3689 60.1318 25.9955 60.3259 25.6128C60.5201 25.2301 59.5332 23.8246 59.5332 23.8246Z" fill="black"/>
<path d="M61.748 25.4822C61.7348 25.6179 61.7261 25.783 61.7173 25.9354C61.7085 26.0877 61.7042 26.2477 61.7042 26.4038C61.7042 26.7174 61.7042 27.0323 61.7319 27.3434C61.7738 27.9595 61.8828 28.5707 62.0575 29.1686C62.1042 29.3107 62.1524 29.4605 62.2035 29.5974C62.2546 29.7344 62.3247 29.8765 62.3933 30.0186C62.5393 30.3027 62.6955 30.592 62.8619 30.8787C63.1963 31.4534 63.5511 32.0307 63.9029 32.6067L63.3423 32.9523C62.837 32.4439 62.368 31.9087 61.9378 31.3498C61.7202 31.0707 61.5129 30.784 61.3202 30.4768C61.2238 30.3232 61.1304 30.167 61.0457 29.9955C60.961 29.824 60.8997 29.6602 60.8267 29.4912C60.5786 28.8232 60.4208 28.1319 60.3566 27.4317C60.3186 27.0862 60.3011 26.7393 60.304 26.3923C60.304 26.2182 60.304 26.048 60.3186 25.8739C60.3332 25.6998 60.3405 25.5334 60.3653 25.3414L61.748 25.4822Z" fill="#FFC3BD"/>
<path d="M63.7233 32.4825L64.6723 33.0649L63.5101 33.7152C63.5101 33.7152 62.9948 33.1008 63.2254 32.4761L63.7233 32.4825Z" fill="#FFC3BD"/>
<path d="M64.9951 34.0237L63.9994 34.4845L63.5146 33.7165L64.6724 33.0649L64.9951 34.0237Z" fill="#FFC3BD"/>
<path d="M61.9728 24.0038C62.1918 25.4464 61.6983 25.6806 61.6983 25.6806L60.158 25.8086C60.158 25.8086 59.4003 23.7978 59.8471 23.3062C60.3128 22.7942 61.8662 23.3037 61.9728 24.0038Z" fill="#407BFF"/>
<path opacity="0.3" d="M61.9728 24.0038C62.1918 25.4464 61.6983 25.6806 61.6983 25.6806L60.158 25.8086C60.158 25.8086 59.4003 23.7978 59.8471 23.3062C60.3128 22.7942 61.8662 23.3037 61.9728 24.0038Z" fill="black"/>
<path d="M61.8443 25.6601C61.8471 25.6879 61.8374 25.7156 61.8172 25.7372C61.797 25.7587 61.7679 25.7724 61.7362 25.7753L60.1711 25.9033C60.1396 25.9058 60.1082 25.8973 60.0838 25.8795C60.0595 25.8618 60.0441 25.8363 60.0412 25.8086C60.0379 25.7813 60.0471 25.7539 60.0668 25.7326C60.0866 25.7112 60.1151 25.6976 60.1463 25.6947L61.7114 25.5667C61.7431 25.5638 61.7749 25.572 61.7997 25.5895C61.8246 25.607 61.8406 25.6324 61.8443 25.6601Z" fill="#407BFF"/>
<path d="M55.1622 29.6563L54.949 30.0646C54.9315 30.0966 54.9709 30.1286 55.0337 30.1248L60.0575 29.9251C60.1043 29.9251 60.1422 29.9021 60.1437 29.8777L60.1743 29.4758C60.1743 29.4477 60.1349 29.4246 60.0838 29.4259L55.2454 29.6166C55.2288 29.6164 55.2124 29.6199 55.1978 29.6269C55.1832 29.6338 55.171 29.644 55.1622 29.6563Z" fill="#263238"/>
<path d="M55.8803 30.1401H55.7431C55.7153 30.1401 55.6934 30.1299 55.6949 30.1158L55.7387 29.5923C55.7387 29.5782 55.7635 29.5641 55.7913 29.5629H55.93C55.9562 29.5629 55.9796 29.5744 55.9767 29.5885L55.9343 30.112C55.93 30.1212 55.9224 30.1288 55.9127 30.1339C55.9029 30.139 55.8916 30.1412 55.8803 30.1401Z" fill="#407BFF"/>
<path d="M59.6996 30.0185H59.5623C59.5346 30.0185 59.5127 30.0083 59.5127 29.9929L59.5565 29.4694C59.5565 29.4553 59.5813 29.44 59.6091 29.44H59.7551C59.7602 29.4384 59.7658 29.4379 59.7712 29.4385C59.7767 29.439 59.7819 29.4407 59.7865 29.4432C59.7912 29.4458 59.7951 29.4493 59.798 29.4534C59.8009 29.4575 59.8027 29.4621 59.8032 29.4669L59.7609 29.9904C59.7521 30.0045 59.7273 30.0173 59.6996 30.0185Z" fill="#407BFF"/>
<path d="M57.9476 30.08H57.8089C57.8038 30.0816 57.7984 30.0821 57.793 30.0816C57.7876 30.081 57.7825 30.0793 57.7779 30.0767C57.7734 30.0741 57.7696 30.0706 57.7669 30.0665C57.7642 30.0624 57.7626 30.0579 57.7622 30.0531L57.8045 29.5309C57.8045 29.5168 57.8308 29.5027 57.8586 29.5014H57.9958C58.0235 29.5014 58.0454 29.513 58.044 29.5283L58.0002 30.0518C57.9987 30.0672 57.971 30.08 57.9476 30.08Z" fill="#407BFF"/>
<path d="M57.2689 19.9539C57.2616 20.0422 57.2003 20.1088 57.1361 20.1062C57.0718 20.1037 57.0207 20.0282 57.028 19.9386C57.0353 19.849 57.0952 19.7837 57.1609 19.7862C57.2266 19.7888 57.2748 19.8656 57.2689 19.9539Z" fill="#263238"/>
<path d="M56.1228 19.8835C56.114 19.9718 56.0556 20.0397 55.9899 20.0371C55.9242 20.0345 55.8746 19.9577 55.8833 19.8681C55.8921 19.7785 55.949 19.712 56.0147 19.7145C56.0804 19.7171 56.1344 19.7926 56.1228 19.8835Z" fill="#263238"/>
<path d="M56.0436 19.7209L55.8071 19.6505C55.8071 19.6505 55.9181 19.8144 56.0436 19.7209Z" fill="#263238"/>
<path d="M56.4132 20.055C56.3064 20.2519 56.1699 20.4353 56.0073 20.6003C56.0563 20.6354 56.1134 20.6608 56.1746 20.6747C56.2359 20.6886 56.2998 20.6908 56.3621 20.6809L56.4132 20.055Z" fill="#ED847E"/>
<path d="M56.8787 21.0445C56.8166 21.0496 56.754 21.0496 56.6919 21.0445C56.6886 21.0443 56.6854 21.0436 56.6825 21.0423C56.6795 21.0411 56.6769 21.0394 56.6747 21.0372C56.6726 21.0351 56.6709 21.0326 56.6698 21.0299C56.6687 21.0272 56.6683 21.0243 56.6685 21.0214C56.6692 21.0158 56.6723 21.0106 56.6772 21.0068C56.682 21.003 56.6883 21.0009 56.6948 21.001C56.8217 21.0116 56.9497 20.9957 57.0682 20.9545C57.1867 20.9133 57.2924 20.8481 57.3766 20.7642C57.378 20.7617 57.3799 20.7595 57.3823 20.7577C57.3847 20.7559 57.3875 20.7545 57.3905 20.7537C57.3935 20.7528 57.3966 20.7525 57.3998 20.7528C57.4029 20.7531 57.406 20.7539 57.4087 20.7552C57.4116 20.756 57.4142 20.7574 57.4164 20.7592C57.4186 20.761 57.4203 20.7632 57.4214 20.7656C57.4225 20.768 57.423 20.7707 57.4228 20.7733C57.4227 20.7759 57.4218 20.7785 57.4204 20.7808C57.2865 20.9278 57.0919 21.0226 56.8787 21.0445Z" fill="#263238"/>
<path d="M57.7403 19.3523C57.7318 19.3529 57.7232 19.3516 57.7154 19.3487C57.7075 19.3459 57.7005 19.3414 57.695 19.3357C57.6497 19.2813 57.59 19.2375 57.5211 19.2078C57.4522 19.1782 57.3761 19.1636 57.2993 19.1654C57.286 19.1661 57.2729 19.1622 57.2628 19.1546C57.2527 19.1469 57.2464 19.1361 57.2453 19.1245C57.2447 19.1188 57.2454 19.1131 57.2474 19.1077C57.2494 19.1023 57.2526 19.0973 57.2568 19.093C57.261 19.0887 57.2662 19.0852 57.272 19.0827C57.2778 19.0802 57.2841 19.0787 57.2906 19.0784C57.3837 19.0753 57.4763 19.0923 57.5603 19.1278C57.6442 19.1632 57.7171 19.2161 57.7724 19.2819C57.7765 19.2862 57.7796 19.2913 57.7814 19.2967C57.7833 19.3021 57.7839 19.3077 57.7832 19.3133C57.7825 19.3189 57.7806 19.3244 57.7775 19.3293C57.7743 19.3342 57.7701 19.3386 57.7651 19.3421C57.7579 19.3472 57.7494 19.3508 57.7403 19.3523Z" fill="#263238"/>
<path d="M55.7111 19.2525C55.7027 19.2544 55.6939 19.2544 55.6855 19.2527C55.6771 19.2509 55.6694 19.2473 55.6629 19.2422C55.6536 19.2341 55.6484 19.223 55.6484 19.2115C55.6484 19.2 55.6536 19.189 55.6629 19.1808C55.7255 19.1203 55.8039 19.074 55.8914 19.0459C55.9788 19.0178 56.0728 19.0087 56.1652 19.0195C56.1777 19.0211 56.189 19.027 56.1967 19.0358C56.2043 19.0447 56.2077 19.0559 56.206 19.0669C56.205 19.0724 56.2027 19.0778 56.1992 19.0825C56.1957 19.0872 56.1912 19.0913 56.1858 19.0944C56.1805 19.0975 56.1745 19.0996 56.1682 19.1006C56.1618 19.1016 56.1553 19.1015 56.1491 19.1002C56.073 19.0928 55.996 19.1013 55.9244 19.1251C55.8528 19.149 55.7887 19.1873 55.7374 19.2371C55.7305 19.2444 55.7214 19.2497 55.7111 19.2525Z" fill="#263238"/>
<path d="M52.852 52.3149C52.8169 52.3059 52.7133 52.2816 52.595 52.2598C52.4038 52.2265 52.1716 52.2009 52.1015 52.2598C52.0904 52.2687 52.0826 52.2802 52.0789 52.293C52.0753 52.3057 52.076 52.3191 52.0811 52.3315C52.0862 52.355 52.0975 52.3771 52.1139 52.3962C52.1304 52.4153 52.1516 52.4308 52.176 52.4416C52.2714 52.4757 52.3765 52.4828 52.4768 52.4621C52.5855 52.4433 52.692 52.4159 52.795 52.3801C52.8148 52.372 52.8338 52.3626 52.852 52.352C52.8567 52.3506 52.8607 52.3477 52.8634 52.344C52.8661 52.3403 52.8672 52.3359 52.8666 52.3315C52.8661 52.3278 52.8645 52.3244 52.8619 52.3214C52.8593 52.3185 52.8559 52.3162 52.852 52.3149ZM52.1979 52.3993C52.1795 52.3919 52.1634 52.3807 52.151 52.3666C52.1385 52.3526 52.1301 52.3362 52.1264 52.3187C52.1243 52.3134 52.1241 52.3077 52.1256 52.3022C52.1272 52.2968 52.1305 52.2918 52.1351 52.288C52.1509 52.2767 52.1703 52.27 52.1906 52.2688C52.3879 52.2622 52.5852 52.2838 52.7746 52.3328C52.6213 52.3865 52.3351 52.4621 52.1994 52.3993H52.1979Z" fill="#407BFF"/>
<path d="M54.4507 52.6016L53.2433 52.6617L52.9878 50.007L54.1938 49.9456L54.4507 52.6016Z" fill="#FFC3BD"/>
<path d="M62.7452 50.793L61.5743 51.1885L60.5684 48.7744L61.7393 48.3802L62.7452 50.793Z" fill="#FFC3BD"/>
<path d="M61.5332 51.095L62.6355 50.3193C62.6539 50.3052 62.6775 50.2974 62.7019 50.2974C62.7264 50.2974 62.75 50.3052 62.7684 50.3193L63.7115 51.0681C63.7492 51.1013 63.7704 51.1462 63.7704 51.1929C63.7704 51.2397 63.7492 51.2846 63.7115 51.3177C63.7064 51.3231 63.7005 51.3278 63.694 51.3318C63.3056 51.5968 63.1012 51.7069 62.6209 52.0499C62.3289 52.2649 61.5989 52.8806 61.1799 53.1699C60.7609 53.4592 60.2966 53.0419 60.4499 52.8934C61.0879 52.2048 61.3405 51.6339 61.4252 51.2614C61.4388 51.1969 61.4769 51.1383 61.5332 51.095Z" fill="#263238"/>
<path d="M53.0874 52.151L54.5605 51.9373C54.588 51.9334 54.6162 51.9376 54.6407 51.9491C54.6653 51.9607 54.6848 51.979 54.6963 52.0013L55.2102 52.9779C55.2308 53.0172 55.233 53.062 55.2164 53.1027C55.1997 53.1433 55.1655 53.1767 55.1211 53.1955C55.1045 53.2023 55.0868 53.2066 55.0686 53.2083C54.5503 53.2877 54.3035 53.3171 53.6553 53.4144C53.2553 53.472 52.1092 53.8061 51.5544 53.751C50.9996 53.696 50.9601 53.2057 51.1908 53.1853C52.2216 53.088 52.6362 52.5529 52.8961 52.2534C52.9426 52.1992 53.011 52.1625 53.0874 52.151Z" fill="#263238"/>
<path opacity="0.2" d="M52.9863 50.0083L53.1192 51.3766L54.3368 51.424L54.1937 49.9469L52.9863 50.0083Z" fill="black"/>
<path opacity="0.2" d="M61.8604 48.6656L60.6895 49.0598L61.2092 50.304L62.3787 49.9097L61.8604 48.6656Z" fill="black"/>
<path d="M55.102 30.0685C55.102 30.0685 52.1382 35.8566 52.0112 40.6758C51.9265 43.904 52.5602 50.5971 52.5602 50.5971L54.6874 50.9901C54.6874 50.9901 54.8013 44.1318 55.0728 41.4835C55.5386 36.951 58.8513 29.952 58.8513 29.952L55.102 30.0685Z" fill="#407BFF"/>
<path opacity="0.4" d="M55.102 30.0685C55.102 30.0685 52.1382 35.8566 52.0112 40.6758C51.9265 43.904 52.5602 50.5971 52.5602 50.5971L54.6874 50.9901C54.6874 50.9901 54.8013 44.1318 55.0728 41.4835C55.5386 36.951 58.8513 29.952 58.8513 29.952L55.102 30.0685Z" fill="white"/>
<path opacity="0.2" d="M56.9185 32.2099L57.3156 33.536C56.6602 35.1846 56.0994 36.8609 55.6351 38.5587C55.1738 36.0371 56.3666 33.3414 56.9185 32.2099Z" fill="black"/>
<path d="M52.1632 50.8979L54.8642 51.0797L54.9022 50.1785L52.0625 50.0761L52.1632 50.8979Z" fill="#407BFF"/>
<path d="M56.2205 30.0442C56.2205 30.0442 55.616 36.6259 56.7256 40.8384C57.6221 44.2406 60.8326 49.7869 60.8326 49.7869L62.2926 48.969C62.2926 48.969 61.148 44.6387 60.4165 42.3501C58.6222 36.736 61.8546 33.5386 60.2121 29.9034L56.2205 30.0442Z" fill="#407BFF"/>
<path opacity="0.4" d="M56.2205 30.0442C56.2205 30.0442 55.616 36.6259 56.7256 40.8384C57.6221 44.2406 60.8326 49.7869 60.8326 49.7869L62.2926 48.969C62.2926 48.969 61.148 44.6387 60.4165 42.3501C58.6222 36.736 61.8546 33.5386 60.2121 29.9034L56.2205 30.0442Z" fill="white"/>
<path d="M60.5509 50.0096L62.5993 49.3632L62.4197 48.6131L60.145 49.399L60.5509 50.0096Z" fill="#407BFF"/>
<path d="M61.5335 51.2435H61.5262H61.5101L61.424 51.2678C61.386 51.2806 61.3393 51.2947 61.2911 51.3126C61.1568 51.3625 61.0108 51.4317 60.986 51.5059C60.9817 51.5206 60.9819 51.536 60.9865 51.5506C60.9911 51.5651 61 51.5784 61.0122 51.5891C61.0372 51.6162 61.0715 51.6355 61.1101 51.6441H61.1553C61.2316 51.6277 61.2991 51.5889 61.3466 51.5341C61.421 51.4585 61.4842 51.3751 61.5349 51.2857C61.5353 51.2828 61.5353 51.2798 61.5349 51.2768C61.5356 51.2747 61.5356 51.2725 61.5349 51.2704C61.537 51.2686 61.5386 51.2665 61.5397 51.2641C61.5408 51.2617 61.5413 51.2592 61.5411 51.2567C61.541 51.2541 61.5402 51.2516 61.5389 51.2494C61.5376 51.2471 61.5357 51.2451 61.5335 51.2435ZM61.4634 51.2998C61.4383 51.3413 61.4105 51.3814 61.3802 51.4201C61.3303 51.5017 61.2491 51.5652 61.1509 51.5993C61.1308 51.6008 61.1105 51.5976 61.0921 51.5903C61.0737 51.5829 61.0578 51.5714 61.0458 51.5571C61.0396 51.552 61.0349 51.5455 61.0324 51.5383C61.0298 51.5311 61.0294 51.5235 61.0312 51.5161C61.0546 51.4445 61.259 51.3638 61.4094 51.3165L61.4634 51.2998Z" fill="#407BFF"/>
<path d="M61.5303 51.2422H61.523C61.5002 51.2244 61.4757 51.2081 61.45 51.1936C61.3411 51.113 61.2054 51.0654 61.0631 51.0579C61.0414 51.0605 61.0205 51.0671 61.0019 51.0773C60.9833 51.0874 60.9673 51.1009 60.9551 51.1168C60.9408 51.1324 60.9331 51.1518 60.9331 51.1718C60.9331 51.1918 60.9408 51.2112 60.9551 51.2269C61.0012 51.266 61.0607 51.2908 61.1244 51.2973C61.1788 51.3065 61.234 51.3112 61.2894 51.3114C61.3302 51.3133 61.3712 51.3133 61.412 51.3114C61.45 51.3114 61.488 51.2986 61.5245 51.2909H61.5332C61.5335 51.2879 61.5335 51.2849 61.5332 51.2819C61.5339 51.2798 61.5339 51.2776 61.5332 51.2755C61.5358 51.2733 61.5378 51.2706 61.5391 51.2676C61.5404 51.2646 61.5409 51.2615 61.5406 51.2583C61.5403 51.2551 61.5393 51.252 61.5375 51.2493C61.5357 51.2465 61.5333 51.2441 61.5303 51.2422ZM60.993 51.1962C60.9857 51.1872 60.974 51.1706 60.993 51.1386C61.0012 51.1273 61.0121 51.1178 61.025 51.1107C61.0379 51.1036 61.0524 51.0991 61.0675 51.0976C61.0903 51.0951 61.1133 51.0951 61.1361 51.0976C61.2414 51.1246 61.3403 51.1679 61.4281 51.2256L61.4588 51.2461C61.4461 51.2467 61.4334 51.2467 61.4208 51.2461C61.2748 51.2742 61.05 51.2576 60.993 51.2V51.1962Z" fill="#407BFF"/>
<path d="M52.8829 52.3289C52.8774 52.3163 52.871 52.3039 52.8639 52.2918C52.804 52.1817 52.6172 51.872 52.3777 51.936C52.3076 51.9539 52.2901 51.9885 52.2916 52.0141C52.2916 52.087 52.4376 52.1856 52.5836 52.2585C52.6439 52.288 52.7063 52.3141 52.7705 52.3366L52.8099 52.3481L52.8449 52.3571H52.8566L52.8741 52.3494C52.8772 52.3468 52.8796 52.3436 52.8811 52.3401C52.8826 52.3365 52.8832 52.3327 52.8829 52.3289ZM52.3427 52.0128C52.3427 52.0128 52.3427 51.991 52.3894 51.9795H52.4113C52.5967 51.9552 52.7544 52.2086 52.8113 52.3097C52.6215 52.2483 52.3456 52.096 52.3427 52.0128Z" fill="#407BFF"/>
<path d="M57.1896 19.7913L56.9517 19.7197C56.9517 19.7197 57.0626 19.8899 57.1896 19.7913Z" fill="#263238"/>
<path d="M10.6011 11.5443L10.6975 12.5107H8.13079L8.35563 14.761H7.25333L6.93213 11.5443H10.6011Z" fill="#407BFF"/>
<path d="M13.9316 45.6768L13.8352 44.7104H11.2685L11.0437 42.4589H9.94141L10.2626 45.6768H13.9316Z" fill="#407BFF"/>
<path d="M36.2531 45.6768L36.1567 44.7104H38.7234L38.4986 42.4601H39.6009L39.9221 45.6768H36.2531Z" fill="#407BFF"/>
<path d="M32.7754 11.6224L32.8717 12.5888H35.4399L35.6647 14.8403H36.7656L36.4458 11.6224H32.7754Z" fill="#407BFF"/>
<path d="M27.7909 14.72L28.153 14.7776L27.8537 14.5754C27.7748 14.5216 27.6931 14.4678 27.6128 14.4166L27.5938 14.4038H27.5704C25.7206 14.08 23.4693 13.513 20.8778 12.6976L20.8559 12.6899H20.8325C20.7464 12.7002 20.6603 12.713 20.5756 12.727L20.2515 12.7821L20.5756 12.8858C23.3992 13.7869 25.8272 14.4013 27.7909 14.72Z" fill="#407BFF"/>
<path d="M29.1241 15.753L29.4161 15.8131L29.2 15.616C29.1445 15.5648 29.0876 15.5162 29.0292 15.4662L29.0087 15.4496H28.981C26.3997 14.912 23.1322 14.1235 19.2734 13.1085L19.2384 13.0995L19.2077 13.111L19.0398 13.1814L18.8311 13.2723L19.0676 13.335C23.1001 14.3936 26.4829 15.209 29.1241 15.753Z" fill="#407BFF"/>
<path d="M30.3501 16.983L30.6421 17.0726L30.4538 16.8589C30.426 16.8269 30.3968 16.7962 30.3691 16.7654L30.3311 16.7245V16.6925L30.2669 16.672C28.0346 15.9808 24.1057 14.912 18.0598 13.7408L18.019 13.7331L17.9868 13.7536C17.943 13.7818 17.8992 13.8086 17.8554 13.8394L17.6992 13.9469L17.9051 13.9866C24.0896 15.1834 28.09 16.2765 30.3501 16.983Z" fill="#407BFF"/>
<path d="M31.4802 18.409L31.7722 18.537L31.5956 18.2938L31.4686 18.1184L31.4525 18.0966L31.4262 18.0864C28.7384 16.8986 24.0561 15.3165 17.0116 14.5178H16.9678L16.9386 14.5434L16.8248 14.6432L16.6963 14.7622L16.8934 14.784C24.0693 15.584 28.7865 17.1968 31.4802 18.409Z" fill="#407BFF"/>
<path d="M29.5822 18.4832C30.5817 18.9144 31.547 19.4041 32.4716 19.9488L32.7636 20.1177L32.6103 19.8502C32.5796 19.7965 32.5475 19.7453 32.5168 19.6928L32.5022 19.6697V19.6429L32.4599 19.6185C31.5788 19.1101 30.6626 18.6502 29.7165 18.2413C26.9425 17.0355 22.326 15.5661 16.1006 15.4061H16.0553L16.029 15.4355L15.9327 15.5417L15.8071 15.6697H16.013C22.218 15.8195 26.817 17.28 29.5822 18.4832Z" fill="#407BFF"/>
<path d="M16.629 17.9366L16.7225 17.9443V17.6704L16.6276 17.6627C15.869 17.61 15.1057 17.6711 14.3704 17.8432L14.3325 17.8522L14.3164 17.8842C14.293 17.9277 14.2711 17.9712 14.2492 18.0122L14.1689 18.1798L14.3704 18.1286C15.1042 17.9471 15.8691 17.8821 16.629 17.9366Z" fill="#407BFF"/>
<path d="M29.6862 19.3817C30.9635 20.0036 32.177 20.7214 33.3128 21.527L33.58 21.7216L33.4501 21.4413C33.418 21.3709 33.3829 21.3017 33.3479 21.2339L33.3377 21.2134L33.3172 21.1981C28.2154 17.6426 21.7637 15.9187 15.2672 16.375H15.2234L15.2015 16.4057C15.1738 16.4429 15.1475 16.4813 15.1212 16.5197L15.2001 16.5709L15.1183 16.5248L15.019 16.6681L15.2161 16.6541C20.2416 16.2808 25.2799 17.2305 29.6862 19.3817Z" fill="#407BFF"/>
<path d="M19.9552 17.408C23.303 17.7318 28.4232 18.8851 33.7829 22.5395L34.0325 22.7097L33.9245 22.4537C33.9055 22.4077 33.8851 22.3616 33.8646 22.3142L33.8471 22.2745V22.2464L33.8106 22.2221C28.432 18.6035 23.3103 17.4579 19.9596 17.1341C18.2336 16.9636 16.491 16.9688 14.7664 17.1494H14.7226L14.5444 17.4502L14.7357 17.4285C16.4685 17.2414 18.2205 17.2345 19.9552 17.408Z" fill="#407BFF"/>
<path d="M13.8612 28.023L13.5692 27.9155L13.5386 27.9897C13.0977 29.2405 12.8018 30.527 12.6553 31.8297V31.8425V31.8553C12.683 31.9705 12.7137 32.0857 12.7458 32.2009L12.883 32.7001L12.9312 32.2022C13.0604 30.8091 13.3635 29.4325 13.835 28.0973L13.8612 28.023Z" fill="#407BFF"/>
<path d="M13.3706 23.3792V23.296L13.0552 23.2794V23.3626C13.1092 25.0893 12.8844 27.1859 12.3252 30.1619V30.1862C12.3427 30.3142 12.3632 30.4422 12.3851 30.5626L12.4741 31.0835L12.5705 30.5715C13.1793 27.4048 13.4319 25.1853 13.3706 23.3792Z" fill="#407BFF"/>
<path d="M14.2275 27.1513L14.6319 26.0403L14.3297 25.9379L13.9282 27.0489L14.2275 27.1513Z" fill="#407BFF"/>
<path d="M13.4203 22.656C13.5049 22.1273 13.776 21.635 14.1956 21.248L14.2642 21.193L14.0364 20.992L13.9722 21.0445C13.5014 21.4693 13.1984 22.0153 13.1079 22.6022L13.0977 22.6816L13.4101 22.7392L13.4203 22.656Z" fill="#407BFF"/>
<path d="M13.5444 24.9165L13.8598 24.9497V24.8678C13.889 24.1216 14.7358 23.0758 14.7781 23.0349L14.8307 22.9709L14.5723 22.7993L14.5183 22.8621C14.4832 22.912 13.578 23.9821 13.5474 24.832L13.5444 24.9165Z" fill="#407BFF"/>
<path d="M15.3824 23.6006L15.4495 23.5443L15.2101 23.3421L15.1473 23.401C15.0349 23.5072 14.0333 24.4902 13.5019 26.5037L13.4814 26.5818L13.7895 26.665L13.8099 26.5869C14.3472 24.5504 15.3736 23.6096 15.3824 23.6006Z" fill="#407BFF"/>
<path d="M15.5637 24.6438L15.2922 24.4851L14.606 25.4643L14.879 25.623L15.5637 24.6438Z" fill="#407BFF"/>
<path d="M15.7387 21.2723L15.8249 21.2493L15.7081 20.9856L15.6205 21.0099C15.5533 21.0291 13.9824 21.4797 13.5473 22.903L13.5239 22.9811L13.8276 23.072L13.851 22.9952C14.2481 21.6998 15.6774 21.2902 15.7387 21.2723Z" fill="#407BFF"/>
<path d="M16.2056 19.4726L16.2991 19.4611L16.2246 19.1898L16.1341 19.2013C14.6464 19.3907 13.7981 19.8605 13.3513 20.2253L13.3207 20.2522V20.2752L13.1396 20.841L13.417 20.5773C13.7528 20.2534 14.569 19.6813 16.2056 19.4726Z" fill="#407BFF"/>
<path d="M20.3975 18.432C23.7365 18.5459 28.8465 19.5443 34.2369 23.6557L34.4894 23.8477L34.3843 23.575C34.3595 23.5123 34.3361 23.447 34.3099 23.3882V23.3613L34.2763 23.337C28.8597 19.2602 23.7278 18.2707 20.3771 18.1581C16.9417 18.0416 14.4962 18.7853 13.829 19.0157L13.7954 19.0272L13.7823 19.0566C13.7647 19.095 13.7487 19.1347 13.7341 19.1731L13.6479 19.3856L13.8538 19.3114C14.3079 19.136 16.7899 18.304 20.3975 18.432Z" fill="#407BFF"/>
<path d="M20.7946 19.1667C16.9796 19.2947 14.41 20.649 14.3005 20.7027L14.2217 20.7437L14.4071 20.9792L14.4845 20.9382C14.5896 20.8819 17.1037 19.5571 20.8384 19.4355C24.1511 19.3254 29.2363 20.1613 34.6442 24.7667L34.8924 24.9779L34.7975 24.6925C34.7741 24.6234 34.7493 24.5542 34.7245 24.4864L34.7172 24.4634L34.6967 24.4467C29.2553 19.8848 24.1336 19.0579 20.7946 19.1667Z" fill="#407BFF"/>
<path d="M27.8583 21.0074C25.7592 20.2408 23.4716 19.9571 21.2123 20.183C17.4309 20.576 14.9577 22.3347 14.9343 22.3526L14.8672 22.4026L15.0774 22.6189L15.146 22.569C16.9492 21.4148 19.061 20.6874 21.278 20.457C24.5543 20.1152 29.6 20.7846 35.002 25.9008L35.2517 26.1363L35.1597 25.833C35.1364 25.7587 35.1145 25.6858 35.0911 25.6128V25.591L35.0736 25.5757C32.7668 23.424 30.3388 21.888 27.8583 21.0074Z" fill="#407BFF"/>
<path d="M24.8197 21.0432C19.4177 20.6131 15.6217 23.959 15.5808 23.9872L15.5166 24.0435L15.7531 24.2419L15.8159 24.1869C15.8524 24.1536 19.5637 20.8909 24.8183 21.3107C28.4449 21.6 31.9825 23.5226 35.3303 27.0246L35.5843 27.2896L35.4923 26.9619C35.4719 26.8877 35.4514 26.816 35.4325 26.7418V26.7187L35.412 26.697C32.038 23.241 28.4697 21.3363 24.8197 21.0432Z" fill="#407BFF"/>
<path d="M15.7681 26.2003C18.3727 22.9248 23.6244 20.7757 29.4921 23.3587C32.542 24.7014 33.8181 26.2963 35.2956 28.1421C35.4358 28.317 35.5788 28.4945 35.7248 28.6745L35.9643 28.9689L35.8927 28.6233C35.8752 28.5401 35.8592 28.4582 35.8416 28.384V28.3597L35.8256 28.3405C35.7321 28.2253 35.6402 28.1113 35.5496 27.9961C34.0429 26.1171 32.7421 24.4941 29.6162 23.1155C23.5849 20.4582 18.1859 22.6649 15.5097 26.0301C13.0656 29.1021 13.2394 32.6413 13.562 34.4781V34.496C13.638 34.6713 13.708 34.8467 13.7927 35.0182L13.9723 34.9849C13.2496 31.744 13.9051 28.544 15.7681 26.2003Z" fill="#407BFF"/>
<path d="M28.5634 34.999C28.0101 33.7497 27.7473 33.6179 27.5414 33.6614C27.0304 33.7689 27.5034 35.3984 27.5078 35.415C27.7706 36.2969 31.9287 38.3206 33.7041 39.1488L33.7844 39.1872L33.9304 38.9542L33.8398 38.912C31.0454 37.6051 27.9998 35.9872 27.81 35.3677C27.6027 34.6713 27.5969 34.1248 27.6407 33.9597C27.721 34.0377 27.9166 34.2899 28.2641 35.0745C29.0919 36.9446 32.2835 38.0326 34.1129 38.5139L34.1844 38.5331L34.218 38.4781L34.2778 38.3744L34.3275 38.2848L34.2121 38.2541C32.4353 37.7817 29.3284 36.727 28.5634 34.999Z" fill="#407BFF"/>
<path d="M28.9881 34.56C28.4275 33.4259 27.9865 32.928 27.5602 32.9523C27.1339 32.9766 26.8302 33.5258 26.62 34.7546C26.328 36.4032 31.6409 39.0131 33.2761 39.7747L33.3491 39.8093L33.3929 39.753C33.4177 39.7222 33.4396 39.6902 33.4615 39.6595L33.5141 39.5853L33.4192 39.5405C30.1503 38.016 26.7295 35.968 26.931 34.816C27.1806 33.3926 27.4843 33.2275 27.6099 33.2224C27.7004 33.2224 28.0479 33.3248 28.7005 34.6445C29.3531 35.9642 31.2613 37.1315 34.3667 38.0634L34.4456 38.0877L34.4762 38.025C34.485 38.0083 34.4938 37.993 34.5011 37.9776C34.5084 37.9622 34.52 37.9443 34.5288 37.9264L34.5711 37.8419L34.4646 37.8112C31.4876 36.9216 29.594 35.7965 28.9881 34.56Z" fill="#407BFF"/>
<path d="M29.4133 34.1184C28.7052 32.8179 28.0525 32.183 27.4101 32.1779C26.7677 32.1728 26.2246 32.8179 25.7355 34.1274C24.8478 36.5056 30.92 39.5162 32.8019 40.3814L32.8735 40.4147L33.0545 40.1971L32.9508 40.1498C31.6514 39.5482 25.2128 36.4378 26.0348 34.2323C26.4728 33.0675 26.9546 32.4518 27.4423 32.4518C27.9299 32.4518 28.5037 33.0688 29.13 34.2195C29.825 35.4995 31.612 36.6042 34.5919 37.6102L34.6693 37.6371L34.7043 37.5757C34.7234 37.5415 34.7405 37.5065 34.7554 37.4707L34.7904 37.3914L34.6941 37.3594C31.7931 36.3802 30.0659 35.319 29.4133 34.1184Z" fill="#407BFF"/>
<path d="M29.8366 33.6793C28.9256 32.1625 28.0306 31.3753 27.1765 31.36C26.3224 31.3446 25.5501 32.064 24.8493 33.5117C24.1485 34.9593 25.2683 36.7257 28.0759 38.6317C29.4039 39.5105 30.8116 40.2926 32.285 40.9702L32.3537 41.0009L32.3975 40.9536L32.4778 40.8691L32.5478 40.791L32.4398 40.7424C30.9725 40.0704 23.7265 36.5734 25.1398 33.6397C25.788 32.2944 26.4786 31.6211 27.194 31.6377C27.9094 31.6544 28.7139 32.384 29.5607 33.792C30.5243 35.3958 33.0136 36.48 34.8035 37.152L34.8911 37.1853L34.9379 37.079C34.9466 37.056 34.9568 37.0342 34.9656 37.0112L34.9963 36.9369L34.9072 36.9037C33.1669 36.2445 30.7491 35.2 29.8366 33.6793Z" fill="#407BFF"/>
<path d="M30.2601 33.239C29.0687 31.4355 27.962 30.551 26.8758 30.5152C25.8246 30.4883 24.8478 31.2909 23.9558 32.9011C23.5178 33.7049 23.49 34.5766 23.8915 35.4893C25.1866 38.4397 30.6367 41.0406 31.7157 41.5321L31.7799 41.5603L31.8252 41.5193L31.9113 41.4374L31.9916 41.3593L31.8763 41.3069C30.8119 40.8243 25.4406 38.272 24.1835 35.4099C23.8156 34.5728 23.8346 33.7741 24.2419 33.0368C25.0639 31.5456 25.9414 30.7904 26.8524 30.7904H26.8889C27.8481 30.816 28.8614 31.6557 29.987 33.3593C30.974 34.8544 33.1801 35.9193 34.9919 36.6797L35.0824 36.7168L35.116 36.64C35.1306 36.6067 35.1438 36.5721 35.1569 36.5376L35.1846 36.4659L35.1014 36.4313C33.3407 35.6889 31.1945 34.656 30.2601 33.239Z" fill="#407BFF"/>
<path d="M30.6831 32.7987C29.6378 31.36 28.2172 29.696 26.5324 29.655H26.4813C25.2665 29.655 24.119 30.5421 23.0707 32.2931C22.4604 33.3171 22.3932 34.4038 22.8707 35.5328C24.2606 38.825 29.9707 41.5578 31.1007 42.0723L31.1606 42.0992L31.2058 42.0633C31.2379 42.0378 31.2701 42.0122 31.3007 41.9853L31.3942 41.9072L31.2701 41.8509C30.1546 41.344 24.5278 38.6752 23.1641 35.456C22.7261 34.4038 22.7831 33.3875 23.3539 32.4352C24.3628 30.7469 25.4388 29.8995 26.5543 29.9277C28.0756 29.9597 29.4202 31.5482 30.4218 32.9293C31.4438 34.3373 33.3958 35.369 35.1755 36.1971L35.2719 36.2419L35.304 36.1574C35.3172 36.1216 35.3289 36.0857 35.3405 36.0512L35.3595 35.9859L35.288 35.9513C33.5535 35.1424 31.6511 34.1337 30.6831 32.7987Z" fill="#407BFF"/>
<path d="M31.1054 32.3558L31.0806 32.3251C30.0337 31.008 28.2817 28.8026 26.1545 28.7808H26.1253C24.7252 28.7808 23.398 29.7574 22.1833 31.6838C21.797 32.2698 21.5646 32.924 21.5032 33.5988C21.4419 34.2735 21.553 34.9517 21.8285 35.584C23.2564 39.0733 28.765 41.824 30.4192 42.5843L30.4747 42.6099L30.5301 42.5715C30.5623 42.5498 30.5944 42.528 30.625 42.505L30.7287 42.4269L30.5988 42.368C29.4308 41.8368 23.5557 39.0131 22.122 35.5123C21.8632 34.9158 21.7594 34.2762 21.818 33.6401C21.8765 33.0039 22.0961 32.3873 22.4607 31.8349C23.6287 29.9789 24.8843 29.0432 26.1793 29.0586C28.1357 29.079 29.822 31.2038 30.828 32.4723L30.8528 32.503C31.9128 33.8381 33.8078 34.9171 35.3394 35.703L35.4416 35.7568L35.5263 35.4931L35.4576 35.4585C33.967 34.688 32.1201 33.6397 31.1054 32.3558Z" fill="#407BFF"/>
<path d="M31.536 31.9181C31.4834 31.8579 31.428 31.7901 31.371 31.7248L31.2323 31.5648C30.0643 30.199 28.124 27.913 25.7778 27.9078C24.1937 27.9078 22.6884 28.9741 21.2999 31.0771C20.3334 32.544 20.1626 34.0813 20.7919 35.6467C22.2869 39.3702 27.9634 42.2605 29.6672 43.0579L29.7183 43.081L30.0103 42.9133L29.8643 42.8467C28.1765 42.0659 22.5643 39.2333 21.0912 35.5776C20.494 34.0902 20.6532 32.6336 21.5788 31.2256C22.9118 29.2032 24.3353 28.1792 25.8128 28.1792C27.9838 28.1792 29.8643 30.3923 30.9885 31.712C31.0965 31.84 31.1987 31.959 31.2936 32.0678C32.4047 33.3478 34.1231 34.4077 35.4955 35.1885L35.6036 35.2499L35.6342 35.1475L35.6649 35.0374L35.678 34.9798L35.6182 34.9453C34.2764 34.1888 32.6062 33.152 31.536 31.9181Z" fill="#407BFF"/>
<path d="M32.5099 31.6442C29.7198 27.9859 27.2291 27.2038 25.6289 27.1923C23.7309 27.1859 22.0782 28.2163 20.9569 30.1235C19.6429 32.3712 19.4648 34.5779 20.443 36.681C22.1351 40.3162 26.8305 42.6637 28.765 43.5034L28.8073 43.5213L28.8468 43.5059C28.8949 43.4867 28.9417 43.465 28.9928 43.4432L29.149 43.3702L28.9782 43.296C27.4773 42.656 22.4476 40.2765 20.735 36.5965C19.7918 34.5728 19.9627 32.4416 21.2402 30.2643C22.2987 28.4608 23.8536 27.4675 25.6202 27.4675H25.6523C27.1707 27.4778 29.5461 28.2355 32.2529 31.7824C33.0822 32.8704 34.5656 33.8547 35.6635 34.4883L35.7774 34.5536L35.8051 34.4333C35.8139 34.3987 35.8212 34.3642 35.8285 34.3309L35.8402 34.2758L35.7832 34.2426C34.7276 33.6294 33.3012 32.6797 32.5099 31.6442Z" fill="#407BFF"/>
<path d="M32.8907 31.0579C31.7432 29.568 30.6306 28.5133 29.3867 27.7389C27.7136 26.6957 25.9981 26.2797 24.4227 26.5331C22.7116 26.8109 21.2107 27.8784 20.177 29.5385C17.9009 33.2096 19.0762 36.2829 20.469 38.2131C22.6167 41.2301 26.5529 43.0925 28.1457 43.7529L28.1851 43.7683L28.2216 43.7555C28.2742 43.7376 28.3238 43.7197 28.3676 43.6992L28.5501 43.6275L28.3574 43.5494C26.7733 42.9094 22.8576 41.079 20.7231 38.0838C19.3828 36.2176 18.2411 33.2454 20.4544 29.6845C21.4429 28.0896 22.881 27.0669 24.5045 26.8032C25.9878 26.5625 27.6172 26.9619 29.2144 27.9552C30.4189 28.7053 31.5037 29.7344 32.6279 31.1936C33.2762 32.0358 34.3347 32.9382 35.7742 33.8816L35.8925 33.9584L35.9188 33.8393C35.929 33.7997 35.9363 33.76 35.9421 33.719L35.9509 33.6678L35.9012 33.6358C34.5245 32.7283 33.5083 31.8617 32.8907 31.0579Z" fill="#407BFF"/>
<path d="M33.2719 30.4729C31.9944 28.8281 30.8425 27.7849 29.4234 26.967C27.5882 25.9161 25.7121 25.5168 23.9951 25.815C22.1424 26.1337 20.5115 27.2486 19.4019 28.9523C17.5039 31.8617 17.5419 35.2064 19.491 38.1299C21.6503 41.367 25.769 43.2909 27.4319 43.968L27.4655 43.9808L27.4976 43.9731C27.5531 43.9603 27.6071 43.9449 27.6612 43.9296L27.8991 43.8617L27.6728 43.7721C26.0084 43.1104 21.9058 41.2237 19.7611 38.0121C18.65 36.3481 17.1623 32.9741 19.6793 29.1072C20.7481 27.4662 22.3073 26.3936 24.0812 26.0877C25.7164 25.8048 27.5093 26.1888 29.2672 27.1961C30.6469 27.9872 31.7681 29.0099 33.0164 30.6163C33.6472 31.4291 34.6108 32.3072 35.881 33.2288L36.008 33.3209L36.0299 33.1853C36.0372 33.143 36.043 33.1008 36.0474 33.0573V33.0125L36.0051 32.9817C34.7976 32.0934 33.872 31.2499 33.2719 30.4729Z" fill="#407BFF"/>
<path d="M33.653 29.8867C32.6383 28.5913 31.4265 27.2473 29.4585 26.1952C24.3981 23.4893 20.459 25.6742 18.6238 28.3712C16.6119 31.3229 16.5798 34.9401 18.5158 38.0493C20.5685 41.3363 24.4536 43.2742 26.5866 44.1382L26.6144 44.1497H26.6436C26.7137 44.1395 26.7896 44.1293 26.8538 44.1165L27.1327 44.0691L26.8611 43.9616C24.7237 43.1155 20.8313 41.2096 18.7888 37.9456C16.8995 34.9248 16.9404 31.4073 18.8968 28.5376C20.662 25.9456 24.4448 23.84 29.3125 26.4397C31.2207 27.4637 32.4047 28.7744 33.4005 30.0416C34.1424 30.9466 34.9985 31.7753 35.9525 32.512L36.0912 32.6233L36.1073 32.4685C36.1073 32.4237 36.1146 32.3789 36.1175 32.3405L36.0241 32.3264L36.1175 32.3379V32.2969L36.081 32.2675C35.1739 31.5549 34.3596 30.7564 33.653 29.8867Z" fill="#407BFF"/>
<path d="M34.034 29.3005C32.7784 27.7146 31.5272 26.4486 29.4949 25.4259C27.1589 24.2445 24.763 23.9206 22.5832 24.489C20.6852 24.9869 18.9989 26.153 17.8426 27.7837C15.6847 30.816 15.5723 34.6214 17.5389 37.9622C19.5231 41.3325 23.3789 43.3229 25.5105 44.2099L25.531 44.2176H25.5499C25.6434 44.2176 25.7354 44.2176 25.8288 44.2176L26.1938 44.1997L25.8492 44.0614C23.7016 43.1936 19.8019 41.2365 17.8192 37.8598C15.9052 34.6074 16.0161 30.9018 18.1112 27.9475C20.0297 25.248 24.1264 23.031 29.3532 25.6653C31.3286 26.6611 32.5506 27.8976 33.7756 29.4477C34.4363 30.2697 35.1764 31.0406 35.9875 31.7517L36.1335 31.8886V31.7069C36.1335 31.657 36.1335 31.6083 36.1335 31.5584V31.5226L36.1043 31.497C35.3466 30.8159 34.6541 30.0812 34.034 29.3005Z" fill="#407BFF"/>
<path d="M34.4149 28.7155C33.2921 27.3075 31.9898 25.8317 29.5326 24.6553C27.0229 23.4534 24.4562 23.1488 22.1114 23.776C20.0893 24.3161 18.2965 25.5321 17.0628 27.1987C14.3515 30.8633 15.0275 35.1193 16.5634 37.8803C18.3154 41.015 21.5654 42.9862 23.9919 44.0883L24.0153 44.0985H24.0299C24.154 44.119 24.2825 44.1357 24.4124 44.1497L24.9424 44.2086L24.4518 43.9949C21.9552 42.9107 18.6118 40.951 16.8452 37.7779C15.3458 35.0899 14.6859 30.935 17.3314 27.3625C19.5754 24.3289 24.1773 22.3897 29.3997 24.8921C31.7941 26.0441 33.0643 27.4803 34.1608 28.8601C34.7229 29.5655 35.3313 30.2416 35.9829 30.8851L36.1522 31.0528L36.145 30.8173C36.145 30.7686 36.145 30.72 36.145 30.6675V30.6381L36.1216 30.615C35.5137 30.0095 34.9439 29.3754 34.4149 28.7155Z" fill="#407BFF"/>
<path d="M36.0517 29.6461V29.6218L36.0342 29.6013C35.5611 29.0714 35.145 28.5594 34.799 28.1293C33.5609 26.5933 32.2294 25.1021 29.5722 23.8861C23.8548 21.2646 18.7799 23.3677 16.2862 26.615C13.3969 30.3782 14.105 34.9914 15.5912 37.7971C16.6381 39.7862 18.3813 41.5386 20.7611 42.9978L20.7874 43.0144C21.1345 43.1966 21.4938 43.3603 21.8634 43.5046L21.9393 43.3613C19.0865 41.8253 17.0454 39.9232 15.8745 37.7011C14.4232 34.9606 13.7297 30.4563 16.5519 26.7814C18.9726 23.6275 23.8986 21.5834 29.4466 24.1254C32.0308 25.3107 33.3346 26.7635 34.5479 28.2726C34.8997 28.713 35.3742 29.2966 35.9115 29.8893L36.1028 30.103L36.0765 29.847C36.0668 29.7788 36.0585 29.7118 36.0517 29.6461Z" fill="#407BFF"/>
<path d="M23.2944 12.7065C23.0936 12.6896 22.8913 12.693 22.6914 12.7168C23.8997 13.0904 25.1292 13.4092 26.375 13.6717C25.7749 13.2889 24.0331 12.7616 23.2944 12.7065Z" fill="#407BFF"/>
</svg>
