<svg width="178" height="168" viewBox="0 0 178 168" fill="none" xmlns="http://www.w3.org/2000/svg">
<path d="M178 128.486H0V128.57H178V128.486Z" fill="#EBEBEB"/>
<path d="M152.977 130.774H118.231V130.858H152.977V130.774Z" fill="#EBEBEB"/>
<path d="M119.498 132.717H102.884V132.801H119.498V132.717Z" fill="#EBEBEB"/>
<path d="M160.165 133.893H153.333V133.977H160.165V133.893Z" fill="#EBEBEB"/>
<path d="M77.9641 132.757H45.0234V132.841H77.9641V132.757Z" fill="#EBEBEB"/>
<path d="M41.8549 132.757H34.7705V132.841H41.8549V132.757Z" fill="#EBEBEB"/>
<path d="M32.2714 131.339H20.5732V131.423H32.2714V131.339Z" fill="#EBEBEB"/>
<path d="M84.3718 113.501H15.6317C15.0932 113.5 14.5771 113.297 14.1967 112.938C13.8162 112.578 13.6025 112.09 13.6025 111.582V20.3817C13.6072 19.8764 13.823 19.3932 14.2029 19.0371C14.5829 18.6811 15.0963 18.4808 15.6317 18.48H84.3718C84.9109 18.48 85.4279 18.6821 85.8092 19.0419C86.1904 19.4017 86.4045 19.8897 86.4045 20.3985V111.582C86.4045 112.091 86.1904 112.579 85.8092 112.939C85.4279 113.299 84.9109 113.501 84.3718 113.501ZM15.6317 18.5472C15.1168 18.5481 14.6234 18.7417 14.2596 19.0857C13.8958 19.4296 13.6915 19.8958 13.6915 20.3817V111.582C13.6915 112.068 13.8958 112.534 14.2596 112.878C14.6234 113.222 15.1168 113.416 15.6317 113.417H84.3718C84.887 113.416 85.3809 113.222 85.7452 112.878C86.1095 112.535 86.3146 112.069 86.3155 111.582V20.3817C86.3146 19.8955 86.1095 19.4293 85.7452 19.0855C85.3809 18.7416 84.887 18.5481 84.3718 18.5472H15.6317Z" fill="#EBEBEB"/>
<path d="M161.378 113.501H92.6348C92.096 113.5 91.5795 113.297 91.1985 112.938C90.8175 112.578 90.603 112.091 90.6021 111.582V20.3817C90.6077 19.8761 90.8242 19.3929 91.2047 19.0369C91.5852 18.6809 92.099 18.4808 92.6348 18.48H161.378C161.913 18.4817 162.426 18.6823 162.805 19.0383C163.184 19.3943 163.399 19.877 163.404 20.3817V111.582C163.404 112.09 163.191 112.577 162.811 112.936C162.432 113.296 161.916 113.499 161.378 113.501ZM92.6348 18.5472C92.1196 18.5481 91.6257 18.7416 91.2614 19.0855C90.8971 19.4293 90.692 19.8955 90.6911 20.3817V111.582C90.692 112.069 90.8971 112.535 91.2614 112.878C91.6257 113.222 92.1196 113.416 92.6348 113.417H161.378C161.894 113.416 162.387 113.222 162.752 112.878C163.116 112.535 163.321 112.069 163.322 111.582V20.3817C163.321 19.8955 163.116 19.4293 162.752 19.0855C162.387 18.7416 161.894 18.5481 161.378 18.5472H92.6348Z" fill="#EBEBEB"/>
<path d="M165.451 125.852H102.321V128.486H165.451V125.852Z" fill="#EBEBEB"/>
<path d="M165.451 128.483H167.854V125.849H165.451V128.483Z" fill="#E0E0E0"/>
<path d="M163.671 125.852H166.074V124.061H163.671V125.852Z" fill="#E0E0E0"/>
<path d="M163.671 124.058H104.102V125.849H163.671V124.058Z" fill="#EBEBEB"/>
<path d="M157.708 84H110.064V124.058H157.708V84Z" fill="#F5F5F5"/>
<path d="M157.708 124.058H161.208V84.0002H157.708V124.058Z" fill="#E0E0E0"/>
<path d="M159.684 80.5293H108.085V84.0002H159.684V80.5293Z" fill="#F5F5F5"/>
<path d="M159.684 84H162.275V80.5291H159.684V84Z" fill="#E0E0E0"/>
<path d="M143.418 17.0722V80.5292H127.337V17.0722C127.337 15.0592 128.185 13.1285 129.693 11.7051C131.201 10.2817 133.247 9.48197 135.379 9.48197C135.88 9.48044 136.38 9.52546 136.871 9.61637C138.712 9.94445 140.373 10.869 141.569 12.2303C142.764 13.5916 143.418 15.3042 143.418 17.0722Z" fill="#F5F5F5"/>
<path d="M141.164 11.8039V80.5293H136.871V9.6333C138.507 9.91718 140.008 10.676 141.164 11.8039Z" fill="#F0F0F0"/>
<path d="M157.708 84H110.064V84.8602H157.708V84Z" fill="#E0E0E0"/>
<path d="M150.826 94.3052H116.946V124.061H150.826V94.3052Z" fill="#E0E0E0"/>
<path d="M119.873 118.712L147.897 117.301V121.548L119.873 122.959V118.712Z" fill="#E6E6E6"/>
<path d="M145.843 116.434L121.93 115.023V119.273L145.843 120.681V116.434Z" fill="#E6E6E6"/>
<path d="M133.899 118.608C127.366 118.608 124.785 113.313 127.135 108.881C129.484 104.449 128.523 103.25 128.523 103.25C128.523 103.25 131.442 105.635 131.442 107.409C133.739 105.37 128.039 100.988 130.399 96.6001C132.154 99.5267 133.322 100.992 138.616 105.289C143.596 109.324 146.672 118.608 133.899 118.608Z" fill="#FAFAFA"/>
<path opacity="0.5" d="M135.198 117.936C138.758 117.936 140.417 114.818 138.733 112.402C137.049 109.986 137.879 109.217 137.879 109.217C137.879 109.217 136.099 110.635 136.255 111.603C134.831 110.49 136.836 107.769 135.155 105.376C134.461 106.969 134.636 108.091 132.154 110.447C129.545 112.913 128.235 117.936 135.198 117.936Z" fill="#F0F0F0"/>
<path opacity="0.5" d="M134.515 116.992C132.927 116.992 132.186 115.601 132.938 114.526C133.689 113.45 133.318 113.104 133.318 113.104C133.318 113.104 134.116 113.736 134.03 114.166C134.668 113.672 133.771 112.456 134.518 111.391C134.828 112.103 134.753 112.6 135.857 113.652C137.035 114.757 137.619 116.992 134.515 116.992Z" fill="#E6E6E6"/>
<path d="M48.8289 86.3115H19.9751V128.483H48.8289V86.3115Z" fill="#F0F0F0"/>
<path d="M23.2256 125.2L23.2256 89.5977H22.7236L22.7236 125.2H23.2256Z" fill="#E6E6E6"/>
<path d="M45.6251 89.5977H22.7236V90.1957H45.6251V89.5977Z" fill="#E6E6E6"/>
<path d="M78.1849 86.3115H49.3311V128.483H78.1849V86.3115Z" fill="#F0F0F0"/>
<path d="M78.1885 128.486H81.0649V86.315H78.1885V128.486Z" fill="#E0E0E0"/>
<path d="M52.5811 125.2V89.5977H52.0791V125.2H52.5811Z" fill="#E6E6E6"/>
<path d="M49.3311 128.486V86.792H48.8291V128.486H49.3311Z" fill="#E6E6E6"/>
<path d="M74.9806 89.5977H52.0791V90.1957H74.9806V89.5977Z" fill="#E6E6E6"/>
<path d="M47.8751 95.6426H46.7964V104.96H47.8751V95.6426Z" fill="#E0E0E0"/>
<path d="M51.3638 95.6426H50.2852V104.96H51.3638V95.6426Z" fill="#E0E0E0"/>
<path d="M76.1984 28.6069H24.8418V77.0783H76.1984V28.6069Z" fill="#FAFAFA"/>
<path d="M28.9106 77.0783L47.1094 28.6069H60.7655L42.5668 77.0783H28.9106Z" fill="white"/>
<path d="M45.4507 77.0783L63.6458 28.6069H68.6263L50.4311 77.0783H45.4507Z" fill="white"/>
<path d="M79.6088 26.9404H21.4312C21.3469 26.9404 21.2659 26.9718 21.2059 27.0278C21.1459 27.0838 21.1118 27.1599 21.1108 27.2395C21.1118 27.3191 21.1459 27.3951 21.2059 27.4511C21.2659 27.5071 21.3469 27.5385 21.4312 27.5385H79.6088C79.6928 27.5385 79.7734 27.507 79.8328 27.4509C79.8922 27.3948 79.9256 27.3188 79.9256 27.2395C79.9256 27.1602 79.8922 27.0841 79.8328 27.028C79.7734 26.9719 79.6928 26.9404 79.6088 26.9404Z" fill="#E0E0E0"/>
<path d="M50.0961 77.1826H50.9434L50.9434 28.5029H50.0961L50.0961 77.1826Z" fill="#F0F0F0"/>
<path d="M50.9436 77.1826H51.3672L51.3672 28.5029H50.9436L50.9436 77.1826Z" fill="#E0E0E0"/>
<path d="M24.3467 52.443V53.2427H76.6929V52.443H24.3467Z" fill="#F0F0F0"/>
<path d="M76.6928 76.7459V28.1401H24.3608V76.7459V77.5456H76.6928V76.7459ZM25.1939 76.7459V28.9398H75.8456V76.7459H25.1939Z" fill="#F0F0F0"/>
<path d="M76.6931 77.5454H77.1167V28.14H76.6931V77.5454Z" fill="#E0E0E0"/>
<path opacity="0.5" d="M66.1768 26.2046V79.1112H81.4883L78.6795 26.2046H66.1768Z" fill="#EBEBEB"/>
<path opacity="0.5" d="M35.2867 26.2046V79.1112H19.9751L22.7839 26.2046H35.2867Z" fill="#EBEBEB"/>
<path d="M110.609 36.2646H96.4478V49.6307H110.609V36.2646Z" fill="#EBEBEB"/>
<path d="M110.609 49.6309H111.866V36.2648H110.609V49.6309Z" fill="#E0E0E0"/>
<path d="M108.69 38.0757H98.3662V47.8197H108.69V38.0757Z" fill="white"/>
<path d="M107.423 39.272H99.6338V46.6237H107.423V39.272Z" fill="#F5F5F5"/>
<path d="M117.064 52.6177H102.902V65.9838H117.064V52.6177Z" fill="#EBEBEB"/>
<path d="M117.06 65.9805H118.316V52.6144H117.06V65.9805Z" fill="#E0E0E0"/>
<path d="M115.145 54.4287H104.821V64.1727H115.145V54.4287Z" fill="white"/>
<path d="M111.278 55.625H108.687C107.251 55.625 106.088 56.7232 106.088 58.0778V60.5239C106.088 61.8785 107.251 62.9767 108.687 62.9767H111.278C112.714 62.9767 113.877 61.8785 113.877 60.5239V58.0778C113.877 56.7232 112.714 55.625 111.278 55.625Z" fill="#F5F5F5"/>
<path d="M88.9999 143.66C127.121 143.66 158.025 141.957 158.025 139.857C158.025 137.756 127.121 136.053 88.9999 136.053C50.8786 136.053 19.9751 137.756 19.9751 139.857C19.9751 141.957 50.8786 143.66 88.9999 143.66Z" fill="#F5F5F5"/>
<path d="M27.5293 97.4028H27.1733V101.919H27.5293V97.4028Z" fill="#407BFF"/>
<path d="M27.5293 103.263H27.1733V105.131H27.5293V103.263Z" fill="#407BFF"/>
<path d="M28.4194 80.8984H86.6361V139.856H30.0855C29.6446 139.856 29.2217 139.691 28.9099 139.397C28.5982 139.103 28.423 138.703 28.423 138.287V80.8984H28.4194Z" fill="#407BFF"/>
<path opacity="0.2" d="M86.6361 80.8984H28.4194V85.0783H61.9155L63.0262 139.856L63.8023 85.0783H86.6361V80.8984Z" fill="black"/>
<path d="M27.9174 71.9375H86.636V83.8857H27.9174C27.6974 83.8857 27.4864 83.8032 27.3308 83.6564C27.1753 83.5095 27.0879 83.3104 27.0879 83.1028V72.7237C27.0874 72.6206 27.1085 72.5185 27.15 72.4231C27.1915 72.3277 27.2525 72.241 27.3296 72.168C27.4067 72.0949 27.4983 72.037 27.5991 71.9974C27.7 71.9579 27.8081 71.9375 27.9174 71.9375Z" fill="#407BFF"/>
<path d="M50.8368 139.857L50.228 71.9375H62.8874L63.4926 139.857H50.8368Z" fill="#263238"/>
<path d="M109.58 139.856H86.6501V80.8985H111.232V138.287C111.232 138.702 111.058 139.099 110.749 139.393C110.439 139.687 110.019 139.854 109.58 139.856Z" fill="#407BFF"/>
<path opacity="0.2" d="M109.58 139.856H86.6501V80.8985H111.232V138.287C111.232 138.702 111.058 139.099 110.749 139.393C110.439 139.687 110.019 139.854 109.58 139.856Z" fill="black"/>
<path opacity="0.2" d="M86.6362 80.8984H111.229V85.0783H97.5049L95.6395 139.856L95.8424 85.0783H86.6362V80.8984Z" fill="black"/>
<path d="M111.734 83.8857H86.636V71.9376H111.734C111.843 71.9376 111.951 71.9578 112.051 71.9972C112.152 72.0365 112.243 72.0942 112.321 72.1669C112.398 72.2396 112.459 72.3259 112.5 72.4209C112.542 72.5159 112.563 72.6177 112.563 72.7205V83.0995C112.564 83.2026 112.543 83.3048 112.501 83.4001C112.46 83.4955 112.399 83.5822 112.322 83.6553C112.245 83.7283 112.153 83.7863 112.052 83.8258C111.951 83.8654 111.843 83.8857 111.734 83.8857Z" fill="#407BFF"/>
<path opacity="0.2" d="M111.734 83.8857H86.636V71.9376H111.734C111.843 71.9376 111.951 71.9578 112.051 71.9972C112.152 72.0365 112.243 72.0942 112.321 72.1669C112.398 72.2396 112.459 72.3259 112.5 72.4209C112.542 72.5159 112.563 72.6177 112.563 72.7205V83.0995C112.564 83.2026 112.543 83.3048 112.501 83.4001C112.46 83.4955 112.399 83.5822 112.322 83.6553C112.245 83.7283 112.153 83.7863 112.052 83.8258C111.951 83.8654 111.843 83.8857 111.734 83.8857Z" fill="black"/>
<path d="M95.6392 139.857L96.7 71.9375H104.6L103.539 139.857H95.6392Z" fill="#263238"/>
<path opacity="0.2" d="M95.6392 139.857L96.7 71.9375H104.6L103.539 139.857H95.6392Z" fill="black"/>
<path d="M99.7617 49.3918V49.375H89.4057C88.8097 49.4218 88.2279 49.5722 87.6898 49.8185C77.1878 53.9715 72.0827 64.8545 69.8257 71.924H80.4202C80.4202 71.924 105.493 48.7198 99.7617 49.3918Z" fill="#263238"/>
<path opacity="0.5" d="M80.4204 71.9375C80.4204 62.7546 87.7825 53.985 98.2845 49.8321C108.786 45.6791 80.4204 71.9375 80.4204 71.9375Z" fill="black"/>
<path d="M102.467 55.2081H94.7811C94.2906 55.2479 93.8098 55.3613 93.3571 55.5441C84.3005 58.6286 77.2054 66.7094 73.3784 71.9577H81.246C81.246 71.9577 106.928 54.7041 102.467 55.2081Z" fill="#263238"/>
<path opacity="0.5" d="M81.2603 71.9373C84.9662 62.8653 92.1823 58.6082 101.239 55.5237C110.296 52.4392 81.2603 71.9373 81.2603 71.9373Z" fill="black"/>
<path d="M50.7121 46.5257V46.5056H40.3311C40.1409 46.5021 39.9531 46.5467 39.7873 46.6347C39.6214 46.7228 39.4835 46.851 39.3877 47.0062C36.1481 51.6867 50.0677 63.9608 60.1888 71.934H70.7834C70.7834 71.934 55.2618 45.763 50.7121 46.5257Z" fill="#263238"/>
<path opacity="0.5" d="M70.7832 71.9374C60.6763 63.9641 46.7425 51.69 49.9821 47.0095C53.2217 42.329 70.7832 71.9374 70.7832 71.9374Z" fill="black"/>
<path d="M61.5346 53.0876H53.8308C53.6754 53.0912 53.5227 53.126 53.3827 53.1898C53.2427 53.2535 53.1188 53.3447 53.0191 53.4572C49.5873 56.9348 57.2341 66.0505 62.9871 71.9675H70.844C70.844 71.9675 65.0768 52.503 61.5346 53.0876Z" fill="#263238"/>
<path opacity="0.5" d="M70.8438 71.9374C65.0909 66.0171 57.4404 56.9047 60.8758 53.4271C64.3112 49.9495 70.8438 71.9374 70.8438 71.9374Z" fill="black"/>
<path d="M136.889 134.935L139.609 134.105L138.299 127.942L135.579 128.769L136.889 134.935Z" fill="#FF8B7B"/>
<path d="M115.319 137.102H118.174L118.936 130.855H116.078L115.319 137.102Z" fill="#FF8B7B"/>
<path d="M118.449 136.789H114.963C114.907 136.789 114.853 136.808 114.81 136.842C114.767 136.875 114.738 136.922 114.728 136.974L114.276 139.373C114.266 139.433 114.27 139.493 114.288 139.551C114.306 139.609 114.336 139.662 114.378 139.708C114.42 139.753 114.471 139.789 114.529 139.814C114.587 139.839 114.65 139.851 114.714 139.85C115.836 139.834 116.651 139.77 118.064 139.77C118.933 139.77 121.553 139.857 122.753 139.857C123.952 139.857 124.059 138.738 123.564 138.634C121.343 138.18 119.648 137.555 118.936 136.954C118.801 136.843 118.627 136.784 118.449 136.789Z" fill="#263238"/>
<path d="M139.488 133.816L136.516 134.736C136.462 134.753 136.416 134.786 136.385 134.831C136.354 134.875 136.34 134.928 136.345 134.981L136.587 137.428C136.593 137.487 136.613 137.544 136.645 137.595C136.678 137.645 136.722 137.689 136.775 137.721C136.828 137.753 136.887 137.774 136.95 137.781C137.012 137.789 137.076 137.783 137.135 137.764C138.203 137.428 139.73 136.89 141.076 136.48C142.65 136 143.586 135.758 145.43 135.193C146.548 134.857 146.498 133.695 145.992 133.742C143.714 133.95 142.432 134.343 140.211 133.832C139.977 133.761 139.726 133.756 139.488 133.816Z" fill="#263238"/>
<path d="M125.162 55.2656C125.518 56.0216 125.917 56.8381 126.316 57.6176C126.715 58.3971 127.12 59.1867 127.548 59.9528C127.975 60.7189 128.395 61.4883 128.851 62.2242C129.306 62.96 129.769 63.6858 130.257 64.3813C130.506 64.7173 130.748 65.0533 131.012 65.3691L131.4 65.8362C131.471 65.9286 131.551 66.0152 131.638 66.0949C131.763 66.2188 131.915 66.3151 132.083 66.3771C132.313 66.4476 132.556 66.4682 132.795 66.4376C133.524 66.3147 134.221 66.0615 134.849 65.6917C135.205 65.4968 135.561 65.2717 135.917 65.0365C136.273 64.8013 136.629 64.5291 136.957 64.2973L138.609 65.5842C138.327 66.0055 138.015 66.4085 137.676 66.7904C137.339 67.1756 136.973 67.5383 136.583 67.8757C136.176 68.2355 135.735 68.5594 135.266 68.8434C134.75 69.1635 134.189 69.4145 133.6 69.5893C132.911 69.7994 132.181 69.8625 131.464 69.7741C130.694 69.6774 129.961 69.4052 129.328 68.9811C129.037 68.7858 128.766 68.5665 128.516 68.3259L127.978 67.7682C127.622 67.3986 127.306 67.0155 126.975 66.6359C125.772 65.1261 124.689 63.5348 123.735 61.8747C123.261 61.0583 122.809 60.2384 122.389 59.4018C121.969 58.5651 121.56 57.7453 121.175 56.8482L125.162 55.2656Z" fill="#FF8B7B"/>
<path d="M119.933 55.5073C119.424 58.0374 122.756 61.6561 122.756 61.6561L127.651 59.667C127.651 59.667 127.142 56.7673 125.188 54.674C122.792 52.1104 120.492 52.7521 119.933 55.5073Z" fill="#407BFF"/>
<path opacity="0.2" d="M122.578 56.4011C121.243 55.9509 120.257 56.0987 119.901 56.4011C120.143 58.8069 122.749 61.6427 122.749 61.6427L126.216 60.2349C125.96 59.116 124.668 57.1202 122.578 56.4011Z" fill="black"/>
<path d="M136.544 64.8648L138.107 61.7568L140.3 63.9207C140.3 63.9207 139.677 66.4004 137.623 66.0845L136.544 64.8648Z" fill="#FF8B7B"/>
<path d="M139.36 60.2954L141.058 62.2812L140.3 63.9209L138.107 61.757L139.36 60.2954Z" fill="#FF8B7B"/>
<path opacity="0.2" d="M138.299 127.942L138.975 131.121L136.252 131.948L135.579 128.772L138.299 127.942Z" fill="black"/>
<path opacity="0.2" d="M116.078 130.859H118.936L118.545 134.078H115.683L116.078 130.859Z" fill="black"/>
<path d="M107.11 55.5445C111.229 65.4599 111.738 76.3395 112.236 78.5034L127.299 76.0371C127.655 62.6375 124.095 55.232 123.141 53.4949C123.072 53.3705 122.97 53.265 122.845 53.189C122.721 53.113 122.577 53.069 122.429 53.0615C122.008 53.0346 121.361 53.0043 120.563 53.001C120.143 53.001 119.691 53.001 119.221 53.0245C118.961 53.0245 118.698 53.0514 118.434 53.0682C116.279 53.3028 114.139 53.654 112.026 54.1199C111.628 54.2039 111.222 54.2979 110.83 54.3954C110.438 54.4928 110.118 54.5869 109.762 54.6843C108.274 55.1043 107.11 55.5445 107.11 55.5445Z" fill="#407BFF"/>
<path opacity="0.2" d="M108.58 59.5328C109.078 61.0851 109.506 62.6307 109.865 64.1293C110.339 61.4178 110.549 58.6323 110.549 58.6323L108.58 59.5328Z" fill="black"/>
<path d="M111.46 47.252C112.219 49.1302 113.28 52.628 112.076 54.1601C113.386 55.027 115.074 56.0014 117.534 55.6822C119.994 55.363 119.278 53.8443 118.477 53.1118C116.085 52.9707 115.85 51.3512 115.985 49.7753L111.46 47.252Z" fill="#FF8B7B"/>
<path d="M119.136 56.3238C119.136 56.3238 121.04 54.6976 118.954 53.0008C118.682 52.9843 118.409 53.0115 118.146 53.0814C118.146 53.0814 120.485 54.9697 117.822 55.635C115.792 55.5157 113.82 54.9508 112.062 53.9852C111.85 54.0295 111.646 54.1067 111.46 54.2137C112.194 55.6014 117.178 56.69 117.178 56.69C117.225 56.4708 117.305 56.2591 117.416 56.0617C117.906 57.3593 118.285 58.6919 118.548 60.0467C118.885 59.9992 119.217 59.9285 119.542 59.835C119.265 58.4976 118.909 57.1762 118.474 55.8769C118.719 55.9911 118.942 56.1421 119.136 56.3238Z" fill="white"/>
<path opacity="0.2" d="M113.297 48.2832L115.967 49.775C115.935 50.1429 115.935 50.5126 115.967 50.8805C115.07 50.904 113.696 50.1917 113.443 49.3382C113.329 48.9975 113.279 48.6403 113.297 48.2832Z" fill="black"/>
<path d="M116.793 44.6043C118.887 43.8517 118.669 38.7982 115.448 39.5441C113.269 40.0481 113.493 40.6697 113.892 41.9902C114.291 43.3107 115.469 45.0814 116.793 44.6043Z" fill="#263238"/>
<path d="M110.677 44.3688C111.332 46.9728 111.574 48.5285 113.233 49.6474C115.725 51.3274 118.929 49.5634 119.129 46.8283C119.292 44.3654 118.192 40.5182 115.269 39.9202C114.626 39.7846 113.956 39.8066 113.324 39.9843C112.692 40.1619 112.118 40.4892 111.658 40.9351C111.198 41.3809 110.866 41.9305 110.694 42.5315C110.523 43.1325 110.517 43.765 110.677 44.3688Z" fill="#FF8B7B"/>
<path d="M111.072 46.2573C113.166 45.5047 112.361 40.5453 109.139 41.3013C106.961 41.8053 107.338 42.9813 107.95 44.1371C108.609 45.3602 109.759 46.7344 111.072 46.2573Z" fill="#263238"/>
<path d="M115.857 37.4945C115.312 36.1807 112.475 35.2332 111.959 37.7868C109.573 37.6356 103.892 41.9935 110.638 41.9767C113.973 42.7697 118.915 41.0359 118.99 39.2114C119.064 37.3869 116.676 36.7284 115.857 37.4945Z" fill="#263238"/>
<path d="M109.968 46.8856C110.328 47.4018 110.888 47.7639 111.528 47.8936C112.361 48.0482 112.681 47.3056 112.368 46.5731C112.087 45.9011 111.3 45.0443 110.517 45.2291C109.733 45.4139 109.52 46.2472 109.968 46.8856Z" fill="#FF8B7B"/>
<path d="M139.791 130.217L135.184 131.618C135.184 131.618 130.602 115.951 128.872 107.708C128.342 105.199 126.875 101.996 125.576 98.3005C123.934 93.6536 121.962 88.6505 120.371 84.7361C118.691 80.6134 117.452 77.6533 117.452 77.6533L127.302 76.0371C127.302 76.0371 135.793 97.7461 136.975 105.901C138.203 114.381 139.791 130.217 139.791 130.217Z" fill="#263238"/>
<path opacity="0.2" d="M125.572 98.3002C123.931 93.6533 121.959 88.6503 120.367 84.7359L121.172 82.5317C123.945 85.0652 125.543 93.5895 125.572 98.3002Z" fill="black"/>
<path d="M122.606 76.8066C122.606 76.8066 123.407 100.031 123.051 107.924C122.66 116.572 119.865 133.46 119.865 133.46H114.632C114.632 133.46 115.8 118.148 115.7 109.711C115.575 100.102 112.254 78.5102 112.254 78.5102L122.606 76.8066Z" fill="#263238"/>
<path d="M120.492 133.56H114.326V131.823L121.218 131.709L120.492 133.56Z" fill="#407BFF"/>
<path d="M140.403 130.143L134.917 131.813L134.344 130.14L140.449 128.184L140.403 130.143Z" fill="#407BFF"/>
<path d="M115.042 44.4095C115.081 44.6245 115.234 44.7791 115.398 44.7455C115.562 44.7119 115.633 44.5271 115.594 44.312C115.554 44.097 115.401 43.9458 115.238 43.976C115.074 44.0063 114.988 44.1978 115.042 44.4095Z" fill="#263238"/>
<path d="M117.608 43.9893C117.647 44.2043 117.8 44.3589 117.964 44.3253C118.128 44.2917 118.199 44.1069 118.16 43.8919C118.121 43.6768 117.968 43.5223 117.822 43.5559C117.676 43.5895 117.569 43.7743 117.608 43.9893Z" fill="#263238"/>
<path d="M116.811 44.2314C117.202 44.8421 117.681 45.3985 118.235 45.8846C118.099 46.0148 117.935 46.1155 117.753 46.1799C117.572 46.2443 117.378 46.2708 117.185 46.2575L116.811 44.2314Z" fill="#FF5652"/>
<path d="M116.334 46.9865C116.073 47.0007 115.812 46.9641 115.567 46.8792C115.322 46.7942 115.099 46.6626 114.91 46.4926C114.903 46.4867 114.898 46.4796 114.895 46.4718C114.891 46.464 114.89 46.4557 114.89 46.4473C114.89 46.4388 114.891 46.4305 114.895 46.4227C114.898 46.4149 114.903 46.4078 114.91 46.4019C114.923 46.3906 114.94 46.3843 114.958 46.3843C114.976 46.3843 114.993 46.3906 115.006 46.4019C115.217 46.5853 115.47 46.7193 115.746 46.7928C116.022 46.8664 116.312 46.8775 116.594 46.8253C116.611 46.8232 116.629 46.8277 116.644 46.8376C116.658 46.8476 116.668 46.8624 116.672 46.879C116.675 46.8955 116.671 46.9125 116.661 46.9263C116.651 46.9401 116.636 46.9497 116.618 46.9529C116.524 46.9695 116.429 46.9807 116.334 46.9865Z" fill="#263238"/>
<path d="M114.106 43.7574C114.084 43.7621 114.063 43.7621 114.041 43.7574C114.01 43.7416 113.986 43.7151 113.975 43.6832C113.964 43.6513 113.966 43.6165 113.981 43.5861C114.075 43.3993 114.216 43.237 114.392 43.1129C114.567 42.9889 114.772 42.9068 114.988 42.8738C115.024 42.8702 115.06 42.8802 115.088 42.9016C115.116 42.9231 115.134 42.9541 115.138 42.988C115.142 43.0219 115.131 43.0557 115.108 43.0822C115.086 43.1087 115.053 43.1255 115.017 43.1291C114.85 43.1572 114.692 43.2225 114.557 43.3195C114.422 43.4165 114.314 43.5424 114.241 43.6869C114.229 43.7106 114.21 43.7302 114.185 43.7429C114.161 43.7555 114.133 43.7606 114.106 43.7574Z" fill="#263238"/>
<path d="M118.548 42.9748C118.526 42.976 118.504 42.9721 118.483 42.9633C118.463 42.9545 118.445 42.9412 118.431 42.9244C118.336 42.7912 118.21 42.6811 118.061 42.6034C117.912 42.5256 117.746 42.4825 117.577 42.4775C117.54 42.4784 117.505 42.466 117.479 42.4427C117.452 42.4195 117.436 42.3874 117.434 42.3532C117.433 42.3199 117.446 42.2876 117.47 42.2631C117.494 42.2386 117.527 42.2239 117.562 42.2222C117.777 42.2249 117.989 42.2764 118.178 42.3723C118.368 42.4682 118.53 42.6057 118.652 42.7732C118.673 42.8004 118.682 42.8344 118.676 42.8678C118.671 42.9012 118.652 42.9312 118.623 42.9513C118.602 42.9666 118.575 42.9748 118.548 42.9748Z" fill="#263238"/>
<path d="M119.413 137.263C119.16 137.256 118.908 137.224 118.662 137.166C118.649 137.163 118.637 137.156 118.627 137.146C118.618 137.137 118.611 137.125 118.609 137.112C118.606 137.1 118.607 137.087 118.612 137.076C118.618 137.064 118.626 137.055 118.637 137.048C118.737 136.988 119.638 136.453 119.958 136.604C119.994 136.621 120.025 136.647 120.047 136.679C120.069 136.711 120.081 136.748 120.083 136.786C120.094 136.847 120.088 136.91 120.066 136.969C120.044 137.028 120.007 137.08 119.958 137.122C119.799 137.226 119.607 137.276 119.413 137.263ZM118.854 137.075C119.342 137.166 119.716 137.149 119.866 137.024C119.9 136.997 119.925 136.961 119.94 136.921C119.954 136.881 119.957 136.838 119.947 136.796C119.949 136.78 119.945 136.765 119.937 136.751C119.928 136.737 119.916 136.726 119.901 136.719C119.734 136.638 119.221 136.87 118.854 137.088V137.075Z" fill="#407BFF"/>
<path d="M118.676 137.166C118.665 137.169 118.652 137.169 118.641 137.166C118.63 137.16 118.622 137.151 118.616 137.141C118.61 137.131 118.608 137.12 118.609 137.108C118.609 137.075 118.644 136.295 118.965 136.04C119.003 136.008 119.048 135.984 119.098 135.97C119.147 135.956 119.199 135.953 119.249 135.959C119.301 135.959 119.35 135.975 119.39 136.005C119.431 136.035 119.459 136.077 119.47 136.124C119.545 136.426 119 137.018 118.708 137.169L118.676 137.166ZM119.207 136.074C119.178 136.073 119.15 136.078 119.124 136.088C119.098 136.097 119.074 136.112 119.054 136.131C118.862 136.375 118.758 136.67 118.755 136.974C119.039 136.762 119.385 136.302 119.338 136.141C119.338 136.124 119.338 136.084 119.239 136.074H119.207Z" fill="#407BFF"/>
<path d="M139.876 134.088C139.863 134.088 139.851 134.085 139.84 134.078C139.829 134.071 139.821 134.062 139.816 134.051C139.808 134.04 139.804 134.028 139.804 134.015C139.804 134.003 139.808 133.99 139.816 133.98C139.919 133.879 140.834 133.026 141.24 133.096C141.276 133.104 141.31 133.12 141.339 133.143C141.368 133.165 141.39 133.195 141.404 133.227C141.429 133.281 141.44 133.339 141.437 133.398C141.433 133.456 141.414 133.513 141.382 133.563C141.169 133.899 140.353 134.041 139.891 134.091L139.876 134.088ZM141.183 133.221C140.955 133.221 140.435 133.611 140.072 133.936C140.702 133.846 141.14 133.684 141.261 133.496C141.28 133.462 141.291 133.424 141.291 133.385C141.291 133.347 141.28 133.309 141.261 133.275C141.258 133.261 141.25 133.249 141.239 133.24C141.228 133.231 141.215 133.226 141.201 133.224L141.183 133.221Z" fill="#407BFF"/>
<path d="M139.876 134.088H139.859C139.847 134.085 139.836 134.079 139.828 134.071C139.82 134.062 139.814 134.052 139.812 134.04C139.812 134.01 139.641 133.298 139.894 132.925C139.93 132.87 139.977 132.823 140.033 132.786C140.088 132.749 140.152 132.723 140.218 132.71C140.4 132.673 140.482 132.744 140.514 132.807C140.663 133.083 140.204 133.836 139.923 134.074C139.909 134.083 139.893 134.088 139.876 134.088ZM140.314 132.824H140.247C140.197 132.833 140.151 132.852 140.109 132.879C140.068 132.906 140.034 132.941 140.008 132.982C139.881 133.267 139.851 133.581 139.923 133.883C140.19 133.59 140.485 133.019 140.396 132.854C140.387 132.843 140.374 132.833 140.36 132.828C140.345 132.823 140.33 132.821 140.314 132.824Z" fill="#407BFF"/>
<path d="M110.588 58.8875C110.232 59.6603 109.876 60.4936 109.52 61.3101C109.164 62.1266 108.837 62.9498 108.52 63.7763C108.203 64.6029 107.89 65.4227 107.619 66.2493C107.348 67.0759 107.092 67.8991 106.886 68.7122C106.79 69.1187 106.686 69.5253 106.622 69.9218L106.565 70.2208V70.2947V70.2746C106.565 70.2578 106.565 70.2309 106.565 70.2074C106.549 70.1066 106.5 70.0129 106.426 69.9386C106.32 69.8747 106.476 70.0663 106.754 70.1939C107.085 70.3542 107.431 70.4868 107.786 70.5904C109.538 71.0275 111.323 71.3297 113.126 71.4943L113.24 73.5103C112.242 73.6884 111.232 73.8007 110.218 73.8463C109.167 73.9037 108.114 73.8666 107.071 73.7354C106.482 73.663 105.903 73.5312 105.344 73.3423C105.008 73.2279 104.685 73.0828 104.379 72.9088C103.98 72.6827 103.629 72.3888 103.343 72.0419C102.983 71.5979 102.759 71.0691 102.696 70.5131C102.687 70.3778 102.687 70.242 102.696 70.1066V69.9151V69.821L102.735 69.4447C102.777 68.9373 102.859 68.4535 102.938 67.9629C103.299 66.083 103.809 64.231 104.461 62.4223C104.785 61.5319 105.116 60.6515 105.49 59.7813C105.864 58.9111 106.227 58.0643 106.672 57.1807L110.588 58.8875Z" fill="#FF8B7B"/>
<path d="M107.11 55.5442C105.629 56.3002 104.6 60.8429 104.6 60.8429L108.979 63.383C108.979 63.383 110.115 61.283 110.948 59.556C112.542 56.2531 110.022 54.059 107.11 55.5442Z" fill="#407BFF"/>
<path d="M112.735 71.4506L115.615 71.333L114.337 73.9202C114.337 73.9202 111.624 73.7656 111.984 72.5392L112.735 71.4506Z" fill="#FF8B7B"/>
<path d="M117.512 73.1138L116.078 74.8005L114.34 73.9067L115.615 71.3296L117.512 73.1138Z" fill="#FF8B7B"/>
</svg>
