<svg width="116" height="82" viewBox="0 0 116 82" fill="none" xmlns="http://www.w3.org/2000/svg">
<path d="M13.5505 41.9941L20.7103 48.9838H18.8263C18.3506 48.983 17.8818 48.9034 17.4576 48.7512C17.0334 48.599 16.6656 48.3786 16.3839 48.1076L9.18652 41.152L11.1617 41.1422C11.6271 41.1395 12.0866 41.2154 12.5021 41.3635C12.9176 41.5117 13.277 41.7279 13.5505 41.9941Z" fill="#0A3FB3"/>
<path d="M17.605 43.1037L23.0431 43.0992V34.6395C23.0429 34.3665 22.9499 34.0976 22.7718 33.8553C22.5937 33.6131 22.3358 33.4047 22.0199 33.2477C21.704 33.0907 21.3393 32.9897 20.9565 32.9532C20.5738 32.9168 20.1843 32.9459 19.8208 33.0382L9.25732 35.7321L9.51403 36.237C9.69444 36.5896 10.0653 36.8772 10.5454 37.0368C11.0254 37.1964 11.5754 37.2148 12.0746 37.0881L20.2838 34.9933V41.1517L14.2378 41.1342L15.574 42.3855C15.8106 42.6083 16.1172 42.7892 16.4697 42.9138C16.8222 43.0385 17.2109 43.1035 17.605 43.1037Z" fill="#0A3FB3"/>
<path d="M18.7963 38.5234L18.7759 38.0474L7.45516 38.2402C6.26186 38.2607 5.23182 38.9015 5.14805 39.7436C5.14375 39.7835 5.1416 39.8238 5.1416 39.8643V48.9837H6.22964C6.67317 48.9837 7.09853 48.8592 7.41216 48.6375C7.72578 48.4158 7.90197 48.1151 7.90197 47.8016V40.0427L16.863 39.9531C17.1234 39.9505 17.3804 39.9112 17.6191 39.8377C17.8578 39.7641 18.0734 39.6577 18.2534 39.5246C18.4333 39.3915 18.574 39.2345 18.6672 39.0626C18.7604 38.8907 18.8043 38.7074 18.7963 38.5234Z" fill="#0A3FB3"/>
<path d="M26.1613 37.304C26.4871 36.4835 27.25 35.8153 28.4501 35.2995C29.6502 34.7837 31.4715 34.5263 33.9139 34.5273C36.375 34.5273 38.2059 34.7883 39.4067 35.3101C40.6076 35.832 41.3705 36.5002 41.6956 37.3146C42.0214 38.1285 42.1839 39.1897 42.1832 40.4982V43.0242C42.1832 44.4724 41.9766 45.6206 41.5635 46.469C41.1503 47.3173 40.348 47.9576 39.1565 48.3899C37.9643 48.8212 36.2167 49.0368 33.9139 49.0368C31.6111 49.0368 29.8686 48.8212 28.6864 48.3899C27.5049 47.9586 26.7076 47.3183 26.2944 46.469C25.8813 45.6196 25.6733 44.4714 25.6704 43.0242V40.4982C25.6704 39.1897 25.834 38.125 26.1613 37.304ZM28.8636 45.5503C28.9735 45.8266 29.1641 46.0837 29.4231 46.3048C29.6821 46.526 30.0037 46.7063 30.3673 46.8342C31.1349 47.1197 32.3164 47.2624 33.9118 47.2624C35.4871 47.2624 36.6636 47.1197 37.4412 46.8342C37.8091 46.7071 38.1356 46.5274 38.4001 46.3064C38.6645 46.0853 38.861 45.8278 38.9771 45.5503C39.2227 44.9803 39.3455 44.1661 39.3455 43.1077V40.3926C39.3455 39.4309 39.2424 38.6759 39.0362 38.1278C38.83 37.5796 38.3377 37.1341 37.5593 36.7915C36.781 36.4503 35.5637 36.28 33.9075 36.2805C32.2513 36.281 31.034 36.4478 30.2556 36.7808C29.478 37.1149 28.9907 37.557 28.7938 38.1073C28.5969 38.6575 28.502 39.4193 28.5092 40.3926V43.107C28.5092 44.1654 28.6273 44.9798 28.8636 45.5503Z" fill="#0A3FB3"/>
<path d="M45.1486 37.304C45.4737 36.4835 46.237 35.8153 47.4385 35.2995C48.64 34.7837 50.4609 34.5263 52.9012 34.5273C55.363 34.5273 57.1943 34.7883 58.3951 35.3101C59.5959 35.832 60.3593 36.5002 60.6851 37.3146C61.0094 38.1285 61.172 39.1897 61.1727 40.4982V43.0242C61.1727 44.4724 60.9657 45.6206 60.5519 46.469C60.138 47.3173 59.3357 47.9576 58.1449 48.3899C56.9534 48.8212 55.2058 49.0368 52.9023 49.0368C50.5988 49.0368 48.8566 48.8212 47.6759 48.3899C46.4944 47.9586 45.6967 47.3183 45.2828 46.469C44.869 45.6196 44.6624 44.4714 44.6631 43.0242V40.4982C44.6624 39.1897 44.8242 38.125 45.1486 37.304ZM47.8509 45.5503C47.9607 45.8267 48.1513 46.0838 48.4103 46.3049C48.6693 46.5261 48.991 46.7064 49.3546 46.8342C50.1223 47.1197 51.3037 47.2624 52.8991 47.2624C54.4744 47.2624 55.6509 47.1197 56.4285 46.8342C56.7965 46.7072 57.1232 46.5275 57.3876 46.3065C57.652 46.0854 57.8485 45.8279 57.9644 45.5503C58.21 44.9803 58.3332 44.1661 58.3339 43.1077V40.3926C58.3339 39.4309 58.2304 38.6759 58.0235 38.1278C57.8166 37.5796 57.3243 37.1341 56.5466 36.7915C55.769 36.4503 54.5517 36.28 52.8948 36.2805C51.2379 36.281 50.0224 36.4478 49.2483 36.7808C48.4743 37.1134 47.9902 37.5558 47.7962 38.108C47.6021 38.6602 47.5026 39.4218 47.4976 40.3926V43.107C47.4976 44.1654 47.6154 44.9798 47.8509 45.5503Z" fill="#0A3FB3"/>
<path d="M84.8334 34.7363V48.8077H83.4747C83.0909 48.8075 82.7229 48.6996 82.4516 48.5076C82.1803 48.3157 82.0279 48.0555 82.0279 47.7842V36.4902H80.9646L77.1505 48.0173C77.0761 48.2421 76.8965 48.4425 76.6406 48.586C76.3848 48.7294 76.0679 48.8076 75.7413 48.8077H72.663C72.3361 48.8076 72.0189 48.7293 71.763 48.5855C71.5071 48.4417 71.3276 48.2409 71.2539 48.0158L67.4677 36.4902H66.3776V47.7842C66.3776 48.0555 66.2252 48.3157 65.9539 48.5076C65.6826 48.6996 65.3146 48.8075 64.9308 48.8077H63.5688V34.7363H69.7716L73.6383 47.0538H74.7897L78.6564 34.7363H84.8334Z" fill="#0A3FB3"/>
<path d="M87.4297 34.7363H90.233V47.0538H98.7386V47.8434C98.7386 48.0992 98.5949 48.3444 98.3391 48.5253C98.0833 48.7061 97.7363 48.8077 97.3745 48.8077H87.4297V34.7363Z" fill="#0A3FB3"/>
<path d="M109.176 34.7363H110.737L104.299 45.1124V48.8077H101.493V45.0706L95.1138 34.7363H96.6454C97.1085 34.736 97.5609 34.8342 97.944 35.0181C98.3271 35.202 98.6231 35.463 98.7935 35.7674L102.676 42.7116H103.149L107.032 35.7674C107.202 35.4636 107.497 35.2029 107.88 35.0191C108.262 34.8353 108.713 34.7368 109.176 34.7363Z" fill="#0A3FB3"/>
</svg>
