<svg width="25" height="25" viewBox="0 0 25 25" fill="none" xmlns="http://www.w3.org/2000/svg">
<circle cx="12.5" cy="12.5" r="12.5" fill="#B30A0D" fill-opacity="0.7"/>
<path d="M18.7489 7.52384C19.1314 7.12923 19.0705 6.54312 18.6101 6.21525C18.1497 5.88737 17.4659 5.9396 17.0834 6.33421L12.5 11.0492L7.91658 6.33421C7.53407 5.9396 6.85028 5.88737 6.38991 6.21525C5.92953 6.54312 5.8686 7.12923 6.25112 7.52384L11.0884 12.5L6.25112 17.4762C5.8686 17.8708 5.92953 18.4569 6.38991 18.7848C6.85028 19.1126 7.53407 19.0604 7.91658 18.6658L12.5 13.9508L17.0834 18.6658C17.4659 19.0604 18.1497 19.1126 18.6101 18.7848C19.0705 18.4569 19.1314 17.8708 18.7489 17.4762L13.9116 12.5L18.7489 7.52384Z" fill="white"/>
</svg>
