<svg width="425" height="106" viewBox="0 0 425 106" fill="none" xmlns="http://www.w3.org/2000/svg">
<path d="M49.6464 61.2177L75.8783 90.8815H68.976C67.2331 90.8783 65.5154 90.5401 63.9612 89.8943C62.407 89.2485 61.0596 88.313 60.0274 87.163L33.6577 57.6442L40.8945 57.6023C42.5995 57.5909 44.2831 57.913 45.8054 58.5418C47.3276 59.1706 48.6445 60.0881 49.6464 61.2177Z" fill="#3396FF"/>
<path d="M64.5017 65.9286L84.4256 65.9092V30.0072C84.425 28.8487 84.0841 27.7072 83.4316 26.6792C82.7792 25.6512 81.8344 24.7667 80.6769 24.1004C79.5194 23.4341 78.1832 23.0055 76.7809 22.8508C75.3787 22.6961 73.9516 22.8199 72.62 23.2116L33.9175 34.644L34.858 36.7868C35.519 38.2833 36.8779 39.504 38.6366 40.1811C40.3954 40.8583 42.4103 40.9366 44.2395 40.3989L74.3161 31.5088V57.6442L52.1649 57.5701L57.0603 62.8803C57.9272 63.826 59.0508 64.5936 60.3422 65.1226C61.6337 65.6516 63.0577 65.9276 64.5017 65.9286Z" fill="#3396FF"/>
<path d="M68.8659 46.4891L68.7911 44.4688L27.3143 45.2872C22.9423 45.3742 19.1684 48.0938 18.8615 51.6672C18.8458 51.8369 18.8379 52.0077 18.8379 52.1795V90.8817H22.8242C24.4492 90.8817 26.0077 90.3531 27.1567 89.4122C28.3058 88.4713 28.9513 87.1952 28.9513 85.8647V52.9368L61.7826 52.5565C62.7366 52.5454 63.6783 52.3788 64.5529 52.0666C65.4275 51.7544 66.2175 51.3027 66.8768 50.738C67.5361 50.1733 68.0515 49.5068 68.393 48.7773C68.7345 48.0478 68.8952 47.27 68.8659 46.4891Z" fill="#3396FF"/>
<path d="M95.8492 41.3144C97.0428 37.8323 99.8381 34.9967 104.235 32.8078C108.632 30.6188 115.305 29.5265 124.253 29.5308C133.27 29.5308 139.978 30.6381 144.378 32.8529C148.777 35.0676 151.573 37.9032 152.764 41.3595C153.957 44.8138 154.553 49.3174 154.55 54.8703V65.5907C154.55 71.7365 153.793 76.6096 152.28 80.2099C150.766 83.8102 147.826 86.5276 143.461 88.3621C139.093 90.1923 132.69 91.1074 124.253 91.1074C115.816 91.1074 109.432 90.1923 105.101 88.3621C100.772 86.5319 97.8509 83.8145 96.3371 80.2099C94.8234 76.6053 94.0613 71.7322 94.0508 65.5907V54.8703C94.0508 49.3174 94.6502 44.7987 95.8492 41.3144ZM105.75 76.311C106.153 77.4839 106.851 78.5747 107.8 79.5132C108.749 80.4517 109.927 81.217 111.259 81.7598C114.072 82.9713 118.4 83.5771 124.245 83.5771C130.017 83.5771 134.327 82.9713 137.176 81.7598C138.524 81.2206 139.721 80.4577 140.69 79.5197C141.658 78.5817 142.378 77.489 142.804 76.311C143.704 73.8922 144.154 70.4369 144.154 65.9451V54.4224C144.154 50.341 143.776 47.137 143.02 44.8106C142.265 42.4841 140.461 40.5937 137.609 39.1394C134.758 37.6916 130.298 36.9687 124.23 36.9709C118.162 36.973 113.702 37.6808 110.85 39.0943C108.001 40.5121 106.216 42.3885 105.494 44.7236C104.773 47.0586 104.425 50.2916 104.451 54.4224V65.9419C104.451 70.4337 104.884 73.89 105.75 76.311Z" fill="#3396FF"/>
<path d="M165.415 41.3144C166.606 37.8323 169.403 34.9967 173.805 32.8078C178.207 30.6188 184.879 29.5265 193.82 29.5308C202.839 29.5308 209.549 30.6381 213.948 32.8529C218.348 35.0676 221.144 37.9032 222.338 41.3595C223.526 44.8138 224.122 49.3174 224.124 54.8703V65.5907C224.124 71.7365 223.366 76.6096 221.85 80.2099C220.334 83.8102 217.394 86.5276 213.031 88.3621C208.666 90.1923 202.263 91.1074 193.824 91.1074C185.384 91.1074 179.001 90.1923 174.675 88.3621C170.346 86.5319 167.424 83.8145 165.907 80.2099C164.391 76.6053 163.634 71.7322 163.637 65.5907V54.8703C163.634 49.3174 164.227 44.7987 165.415 41.3144ZM175.316 76.311C175.719 77.4841 176.417 78.5751 177.366 79.5136C178.315 80.4521 179.493 81.2173 180.826 81.7598C183.638 82.9713 187.967 83.5771 193.812 83.5771C199.583 83.5771 203.894 82.9713 206.743 81.7598C208.091 81.2211 209.288 80.4584 210.257 79.5203C211.226 78.5822 211.945 77.4893 212.37 76.311C213.27 73.8922 213.721 70.4369 213.724 65.9451V54.4224C213.724 50.341 213.345 47.137 212.586 44.8106C211.828 42.4841 210.025 40.5937 207.176 39.1394C204.327 37.6916 199.867 36.9687 193.796 36.9709C187.725 36.973 183.272 37.6808 180.436 39.0943C177.6 40.5057 175.827 42.3831 175.116 44.7268C174.405 47.0704 174.04 50.3023 174.022 54.4224V65.9419C174.022 70.4337 174.453 73.89 175.316 76.311Z" fill="#3396FF"/>
<path d="M310.813 30.4165V90.134H305.835C304.428 90.1331 303.08 89.6751 302.086 88.8606C301.092 88.0461 300.534 86.9418 300.534 85.7904V37.8598H296.638L282.664 86.7796C282.392 87.7336 281.733 88.5841 280.796 89.193C279.859 89.8019 278.698 90.1335 277.501 90.134H266.223C265.025 90.1338 263.863 89.8015 262.925 89.1912C261.988 88.5809 261.33 87.7286 261.06 86.7732L247.189 37.8598H243.194V85.7904C243.194 86.9418 242.636 88.0461 241.642 88.8606C240.648 89.6751 239.3 90.1331 237.894 90.134H232.904V30.4165H255.63L269.796 82.6906H274.015L288.181 30.4165H310.813Z" fill="#3396FF"/>
<path d="M320.324 30.4165H330.595V82.6906H361.758V86.0417C361.758 87.1271 361.231 88.1679 360.294 88.9354C359.357 89.7028 358.086 90.134 356.76 90.134H320.324V30.4165Z" fill="#3396FF"/>
<path d="M399.996 30.4165H405.718L382.13 74.4514V90.134H371.848V74.2742L348.477 30.4165H354.088C355.785 30.4153 357.442 30.8319 358.846 31.6123C360.25 32.3927 361.334 33.5006 361.959 34.7923L376.184 64.2627H377.916L392.141 34.7923C392.765 33.5029 393.847 32.3966 395.248 31.6165C396.648 30.8363 398.302 30.4183 399.996 30.4165Z" fill="#3396FF"/>
</svg>
