<svg width="186" height="52" viewBox="0 0 186 52" fill="none" xmlns="http://www.w3.org/2000/svg">
<path d="M22.26 25.9877L33.4934 39.9672H30.5376C29.7913 39.9657 29.0557 39.8064 28.3901 39.502C27.7245 39.1976 27.1475 38.7568 26.7055 38.2148L15.4131 24.3037L18.5121 24.284C19.2423 24.2786 19.9633 24.4303 20.6151 24.7267C21.267 25.023 21.8309 25.4554 22.26 25.9877Z" fill="white"/>
<path d="M28.6217 28.2078L37.1538 28.1987V11.2794C37.1535 10.7334 37.0075 10.1955 36.7281 9.711C36.4487 9.2265 36.0441 8.8097 35.5484 8.4957C35.0528 8.1817 34.4805 7.9797 33.8801 7.9068C33.2796 7.8339 32.6684 7.8922 32.0982 8.0768L15.5244 13.4645L15.9272 14.4743C16.2102 15.1796 16.7922 15.7549 17.5453 16.074C18.2985 16.3931 19.1613 16.43 19.9447 16.1766L32.8245 11.987V24.3037L23.3386 24.2688L25.435 26.7713C25.8062 27.217 26.2874 27.5787 26.8404 27.828C27.3935 28.0773 28.0033 28.2074 28.6217 28.2078Z" fill="white"/>
<path d="M30.4911 19.0466L30.4591 18.0945L12.6973 18.4802C10.825 18.5212 9.20894 19.8028 9.07749 21.4869C9.07075 21.5668 9.06738 21.6473 9.06738 21.7283V39.9672H10.7745C11.4704 39.9672 12.1377 39.7181 12.6298 39.2747C13.1219 38.8313 13.3983 38.23 13.3983 37.6029V22.0852L27.4578 21.906C27.8664 21.9007 28.2696 21.8222 28.6442 21.6751C29.0187 21.5279 29.357 21.3151 29.6393 21.049C29.9217 20.7828 30.1424 20.4687 30.2886 20.1249C30.4349 19.7812 30.5037 19.4146 30.4911 19.0466Z" fill="white"/>
<path d="M42.0465 16.6079C42.5577 14.9669 43.7547 13.6306 45.6376 12.599C47.5205 11.5674 50.3781 11.0527 54.2102 11.0547C58.0715 11.0547 60.9442 11.5766 62.8282 12.6203C64.7122 13.664 65.9093 15.0003 66.4193 16.6292C66.9305 18.257 67.1855 20.3794 67.1844 22.9963V28.0484C67.1844 30.9447 66.8603 33.2413 66.2121 34.938C65.5638 36.6346 64.305 37.9153 62.4356 38.7798C60.565 39.6423 57.8232 40.0736 54.2102 40.0736C50.5971 40.0736 47.8632 39.6423 46.0084 38.7798C44.1547 37.9173 42.9037 36.6367 42.2555 34.938C41.6072 33.2392 41.2809 30.9427 41.2764 28.0484V22.9963C41.2764 20.3794 41.5331 18.2499 42.0465 16.6079ZM46.2864 33.1005C46.4588 33.6533 46.7579 34.1674 47.1642 34.6096C47.5706 35.0519 48.0752 35.4126 48.6457 35.6684C49.85 36.2393 51.7037 36.5248 54.2068 36.5248C56.6784 36.5248 58.5242 36.2393 59.7443 35.6684C60.3216 35.4143 60.8339 35.0548 61.2487 34.6127C61.6636 34.1707 61.9719 33.6557 62.1541 33.1005C62.5395 31.9606 62.7321 30.3323 62.7321 28.2155V22.7852C62.7321 20.8618 62.5704 19.3519 62.2468 18.2555C61.9233 17.1591 61.1509 16.2683 59.9297 15.5829C58.7085 14.9006 56.7986 14.5599 54.2001 14.561C51.6015 14.562 49.6916 14.8955 48.4704 15.5617C47.2503 16.2298 46.4858 17.1141 46.1769 18.2145C45.8679 19.3149 45.7191 20.8385 45.7303 22.7852V28.214C45.7303 30.3308 45.9157 31.9596 46.2864 33.1005Z" fill="white"/>
<path d="M71.8369 16.6079C72.347 14.9669 73.5446 13.6306 75.4297 12.599C77.3149 11.5674 80.1718 11.0527 84.0006 11.0547C87.863 11.0547 90.7363 11.5766 92.6203 12.6203C94.5043 13.664 95.7019 15.0003 96.2131 16.6292C96.722 18.257 96.9771 20.3794 96.9782 22.9963V28.0484C96.9782 30.9447 96.6535 33.2413 96.0041 34.938C95.3548 36.6346 94.0959 37.9153 92.2276 38.7798C90.3582 39.6423 87.6164 40.0736 84.0023 40.0736C80.3881 40.0736 77.6547 39.6423 75.8021 38.7798C73.9484 37.9173 72.6969 36.6367 72.0476 34.938C71.3982 33.2392 71.0741 30.9427 71.0752 28.0484V22.9963C71.0741 20.3794 71.328 18.2499 71.8369 16.6079ZM76.0768 33.1005C76.2491 33.6534 76.548 34.1675 76.9544 34.6098C77.3607 35.0521 77.8655 35.4127 78.4361 35.6684C79.6404 36.2393 81.4941 36.5248 83.9972 36.5248C86.4688 36.5248 88.3146 36.2393 89.5347 35.6684C90.1122 35.4145 90.6246 35.0551 91.0395 34.613C91.4544 34.1709 91.7626 33.6558 91.9445 33.1005C92.3299 31.9606 92.5231 30.3323 92.5242 28.2155V22.7852C92.5242 20.8618 92.3619 19.3519 92.0372 18.2555C91.7125 17.1591 90.9402 16.2683 89.7201 15.5829C88.5 14.9006 86.5901 14.5599 83.9905 14.561C81.3908 14.562 79.4837 14.8955 78.2693 15.5617C77.0548 16.2268 76.2953 17.1116 75.9909 18.216C75.6864 19.3205 75.5303 20.8436 75.5224 22.7852V28.214C75.5224 30.3308 75.7072 31.9596 76.0768 33.1005Z" fill="white"/>
<path d="M134.101 11.4722V39.6149H131.969C131.367 39.6145 130.789 39.3986 130.364 39.0148C129.938 38.631 129.699 38.1105 129.699 37.5679V14.9799H128.031L122.046 38.0341C121.93 38.4837 121.648 38.8845 121.246 39.1714C120.845 39.4584 120.348 39.6147 119.836 39.6149H115.006C114.493 39.6148 113.995 39.4582 113.594 39.1706C113.192 38.883 112.911 38.4813 112.795 38.0311L106.855 14.9799H105.144V37.5679C105.144 38.1105 104.905 38.631 104.479 39.0148C104.054 39.3986 103.476 39.6145 102.874 39.6149H100.737V11.4722H110.469L116.536 36.1071H118.342L124.409 11.4722H134.101Z" fill="white"/>
<path d="M138.174 11.4722H142.572V36.1071H155.917V37.6864C155.917 38.1978 155.692 38.6883 155.29 39.05C154.889 39.4117 154.345 39.6149 153.777 39.6149H138.174V11.4722Z" fill="white"/>
<path d="M172.292 11.4722H174.742L164.641 32.2242V39.6149H160.238V32.1407L150.229 11.4722H152.633C153.359 11.4716 154.069 11.668 154.67 12.0357C155.271 12.4035 155.736 12.9256 156.003 13.5343L162.095 27.4227H162.836L168.928 13.5343C169.195 12.9267 169.659 12.4053 170.259 12.0377C170.858 11.67 171.567 11.473 172.292 11.4722Z" fill="white"/>
</svg>
